<svg width="121" height="120" viewBox="0 0 121 120" fill="none" xmlns="http://www.w3.org/2000/svg">
<mask id="mask0_9_10065" style="mask-type:alpha" maskUnits="userSpaceOnUse" x="0" y="0" width="121" height="120">
<circle cx="60.7812" cy="60" r="60" fill="#D9D9D9"/>
</mask>
<g mask="url(#mask0_9_10065)">
<path d="M156.96 113.362C176.822 91.0153 185.668 29.0498 153.417 -1.33571C132.066 -21.4483 118.787 -9.97485 94.7671 -23.2801C65.444 -39.5187 61.0733 -88.5812 25.4055 -64.4398C6.5092 -51.6544 -6.5902 -15.6188 -8.89473 25.3367C-11.1532 65.4444 -1.54618 92.9647 18.0862 111.796C64.1892 114.699 110.384 114.173 156.96 113.362Z" fill="#CFDBE9"/>
<path d="M86.6141 52.7824V45.6555C86.6141 43.7103 88.1904 42.134 90.1357 42.134H112.59C114.535 42.134 116.111 43.7103 116.111 45.6555V52.7824C116.111 54.7276 114.535 56.3039 112.59 56.3039H90.1398C88.1946 56.3081 86.6141 54.7276 86.6141 52.7824Z" fill="#8071F3"/>
<path d="M96.0971 52.4093L85.2307 62.9948L102.842 54.0946" fill="#8071F3"/>
<path d="M89.3391 45.4794V45.4417C89.3391 45.1524 89.5739 44.9177 89.8631 44.9177H100.964C101.254 44.9177 101.488 45.1524 101.488 45.4417V45.4794C101.488 45.7687 101.254 46.0035 100.964 46.0035H89.8631C89.5739 46.0035 89.3391 45.7687 89.3391 45.4794Z" fill="#EFF6FE"/>
<path d="M101.987 45.4794V45.4416C101.987 45.1524 102.222 44.9176 102.511 44.9176H112.2C112.489 44.9176 112.724 45.1524 112.724 45.4416V45.4794C112.724 45.7686 112.489 46.0034 112.2 46.0034H102.511C102.222 46.0034 101.987 45.7686 101.987 45.4794Z" fill="#EFF6FE"/>
<path d="M97.7572 47.8648V47.8271C97.7572 47.5378 97.992 47.303 98.2812 47.303H112.2C112.489 47.303 112.724 47.5378 112.724 47.8271V47.8648C112.724 48.1541 112.489 48.3888 112.2 48.3888H98.2812C97.992 48.3888 97.7572 48.1541 97.7572 47.8648Z" fill="#EFF6FE"/>
<path d="M89.3391 47.8648V47.8271C89.3391 47.5378 89.5739 47.303 89.8631 47.303H96.0803C96.3696 47.303 96.6043 47.5378 96.6043 47.8271V47.8648C96.6043 48.1541 96.3696 48.3888 96.0803 48.3888H89.8631C89.5739 48.3888 89.3391 48.1541 89.3391 47.8648Z" fill="#EFF6FE"/>
<path d="M99.6898 50.2502V50.2125C99.6898 49.9232 99.9246 49.6884 100.214 49.6884H112.2C112.489 49.6884 112.724 49.9232 112.724 50.2125V50.2502C112.724 50.5394 112.489 50.7742 112.2 50.7742H100.214C99.9246 50.7742 99.6898 50.5394 99.6898 50.2502Z" fill="#EFF6FE"/>
<path d="M89.3391 50.2502V50.2125C89.3391 49.9232 89.5739 49.6884 89.8631 49.6884H98.1429C98.4322 49.6884 98.6669 49.9232 98.6669 50.2125V50.2502C98.6669 50.5394 98.4322 50.7742 98.1429 50.7742H89.8631C89.5739 50.7742 89.3391 50.5394 89.3391 50.2502Z" fill="#EFF6FE"/>
<path d="M89.3391 52.6356V52.5978C89.3391 52.3086 89.5739 52.0738 89.8631 52.0738H92.9361C93.2254 52.0738 93.4601 52.3086 93.4601 52.5978V52.6356C93.4601 52.9248 93.2254 53.1596 92.9361 53.1596H89.8631C89.5739 53.1596 89.3391 52.9248 89.3391 52.6356Z" fill="#EFF6FE"/>
<path d="M94.5459 52.6356V52.5978C94.5459 52.3086 94.7807 52.0738 95.0699 52.0738H112.2C112.489 52.0738 112.724 52.3086 112.724 52.5978V52.6356C112.724 52.9248 112.489 53.1596 112.2 53.1596H95.0699C94.7807 53.1596 94.5459 52.9248 94.5459 52.6356Z" fill="#EFF6FE"/>
<path d="M39.247 29.359C42.239 22.4421 39.0572 14.4094 32.1402 11.4175C25.2233 8.4255 17.1906 11.6073 14.1987 18.5242C11.2067 25.4411 14.3885 33.4739 21.3054 36.4658C28.2223 39.4578 36.2551 36.276 39.247 29.359Z" fill="#8071F3"/>
<path d="M27.1807 12.3125H26.271V23.7742H27.1807V12.3125Z" fill="#EFF6FE"/>
<path d="M16.6567 30.3917L17.1744 31.1397L26.7258 24.5286L26.2081 23.7806L16.6567 30.3917Z" fill="#EFF6FE"/>
<path d="M27.9814 23.9419C27.9814 24.6336 27.4197 25.1996 26.7237 25.1996C26.032 25.1996 25.4661 24.6378 25.4661 23.9419C25.4661 23.2502 26.0278 22.6842 26.7237 22.6842C27.4197 22.6842 27.9814 23.246 27.9814 23.9419Z" fill="#EFF6FE"/>
<path d="M75.6347 102.268C75.6347 102.268 76.5528 110.682 77.5799 111.357C79.4161 112.569 100.671 115.369 100.671 115.369L99.9751 120.899C99.9751 120.899 70.8639 123.515 69.6271 122.06C67.4807 119.536 63.7076 107.362 63.7076 107.362L75.6347 102.268Z" fill="#E06A58"/>
<path d="M61.5989 80.6066L63.9507 74.9596C63.9507 74.9596 70.3314 77.9571 72.4359 81.6588C74.6872 85.6164 77.4415 106.657 77.4415 106.657C77.4415 106.657 66.1768 109.252 64.1059 108.15C62.0349 107.047 61.5989 80.6066 61.5989 80.6066Z" fill="#F2AE30"/>
<path d="M43.6853 54.3965C42.0377 53.7929 40.2937 53.2646 38.5288 53.3988C36.7638 53.5329 34.9611 54.4678 34.3616 56.019C33.934 57.1173 34.1311 58.4127 33.4561 59.4021C32.8105 60.3496 31.5277 60.7437 30.3287 60.8233C29.1255 60.9072 27.9139 60.7478 26.7191 60.903C23.0299 61.3935 20.3972 65.4013 21.6087 68.6838C22.0908 69.9918 23.0802 71.2411 22.8538 72.6036C22.6149 74.0625 21.0847 75.0226 20.4558 76.3767C19.6216 78.1793 20.6193 80.3635 22.2669 81.5919C23.9145 82.816 26.0567 83.2813 28.1361 83.5916C30.9994 84.0192 33.955 84.2204 36.7848 83.6167C39.6146 83.013 42.3186 81.5206 43.7817 79.1897C44.4315 78.1584 44.8256 76.9929 45.5802 76.0245C47.1397 74.0248 49.9024 73.2492 52.0782 71.8322C54.4552 70.2769 56.1992 67.2501 54.799 64.8814C53.4491 62.605 49.9359 62.0978 48.5273 59.8549C47.9446 58.9284 47.8063 57.8258 47.429 56.8155C47.0433 55.801 46.121 55.2895 43.6853 54.3965Z" fill="#0A2240"/>
<path d="M53.2856 82.3213C53.7007 82.7992 54.1912 83.3232 54.8703 83.3694C55.5872 83.4197 56.1867 82.9124 56.6478 82.4219C59.0291 79.9023 60.6012 76.8084 61.2384 73.6181C60.6473 73.2827 60.0771 72.9599 59.5615 72.6581C59.0835 72.373 58.723 71.9747 58.5176 71.5094C58.3751 71.1656 58.3247 70.8051 58.3625 70.4278C58.6979 67.2752 58.9955 65.5186 60.1023 62.3199C54.8452 61.1335 49.8857 59.7249 47.0349 57.3437C46.687 58.811 46.2761 61.6827 45.4 64.5293C44.4651 67.5435 43.0062 70.5242 40.5327 71.807C45.3874 74.6746 49.718 78.238 53.2856 82.3213Z" fill="#F9A07B"/>
<path d="M58.3624 70.432C58.3247 70.8093 58.375 71.174 58.5175 71.5136C55.4069 75.2867 48.4519 70.3565 45.3999 64.5335C46.2761 61.6869 46.6869 58.8152 47.0349 57.3479C49.8814 59.7291 54.8451 61.1419 60.1022 62.3241C58.9955 65.5228 58.6978 67.2752 58.3624 70.432Z" fill="#E06A58"/>
<path d="M67.0237 116.044C66.3362 120.597 71.2495 125.498 71.3711 127.929C60.9365 127.929 39.078 128.566 27.9475 127.053C27.4402 124.244 32.9363 117.926 32.9363 111.688C32.9363 110.862 32.9028 109.957 32.8357 108.984C32.6596 106.201 32.2488 102.889 31.7918 99.4929C30.5509 90.383 28.8991 80.6402 30.1191 78.6195C32.5087 74.683 38.097 72.0083 40.8681 70.8596C41.8198 70.4655 42.4402 70.2517 42.4863 70.2266C45.9617 76.1544 53.0341 81.2103 55.7046 80.984C56.4466 80.9253 58.6476 80.1581 60.1023 72.8342C60.6682 73.157 61.2342 73.4546 61.796 73.7439C64.5587 75.1818 67.1495 76.3683 67.8957 78.217C69.8661 83.0843 71.7987 95.3551 71.3711 99.7192C70.9393 104.121 69.1702 107.483 67.9293 111.902C67.64 112.938 67.3759 114.036 67.1621 115.218C67.1076 115.482 67.0657 115.759 67.0237 116.044Z" fill="#FFC73C"/>
<path d="M71.3711 127.929C60.9365 127.929 39.078 128.566 27.9475 127.053C27.4402 124.244 32.9363 117.926 32.9363 111.688C32.9363 110.862 32.9028 109.957 32.8357 108.984C32.6596 106.2 32.2488 102.889 31.7918 99.4928C33.7664 101.576 36.6465 92.7726 37.9209 95.3509C44.8172 109.269 50.2546 112.929 59.704 112.929C62.5212 112.929 65.1204 112.539 67.9293 111.902C67.64 112.937 67.3759 114.036 67.1621 115.218C67.1118 115.486 67.0657 115.763 67.0237 116.048C66.3362 120.593 71.2495 125.493 71.3711 127.929Z" fill="#FFBB33"/>
<path d="M61.796 73.7438C61.3474 77.0012 60.0185 81.3905 56.1532 82.5476C50.9296 84.1113 43.371 74.3517 40.8682 70.8595C41.8198 70.4655 42.4403 70.2517 42.4864 70.2265C45.9618 76.1544 53.0342 81.2103 55.7046 80.9839C56.4467 80.9252 58.6476 80.158 60.1023 72.8341C60.6683 73.1527 61.2343 73.4504 61.796 73.7438Z" fill="#FCE172"/>
<path d="M157.049 90.6011L155.602 89.1338L108.272 88.8235L84.5265 123.162L85.7674 124.16L157.049 90.6011Z" fill="#325F73"/>
<path d="M109.186 90.0938L85.7675 124.16L130.499 124.382L157.049 90.6011L109.186 90.0938Z" fill="#0B2D50"/>
<path d="M120.488 111.839C123.363 111.839 125.695 110.674 125.695 109.236C125.695 107.798 123.363 106.632 120.488 106.632C117.612 106.632 115.281 107.798 115.281 109.236C115.281 110.674 117.612 111.839 120.488 111.839Z" fill="#3C738C"/>
<path d="M74.3624 58.2251C75.1001 54.2667 73.5815 50.6635 70.9707 50.177C68.3599 49.6904 65.6455 52.5049 64.9079 56.4632C64.1702 60.4215 65.6887 64.0248 68.2995 64.5113C70.9104 64.9978 73.6248 62.1834 74.3624 58.2251Z" fill="#5367F3"/>
<path d="M74.3644 45.8024C73.878 49.2484 72.3395 53.0467 70.0966 57.2431C69.3085 53.8055 68.8054 49.6174 68.1095 45.4293C67.401 41.2328 66.4996 37.0363 64.9359 33.6071C64.5838 32.8483 64.2023 32.123 63.7872 31.4522C64.7137 31.3642 65.6528 31.4522 66.5458 31.6996C67.9418 32.0727 69.2498 32.7938 70.3188 33.758C72.0963 35.3385 73.2869 37.4933 73.9954 39.7655C74.5782 41.652 74.683 43.6559 74.3644 45.8024Z" fill="#0B2D50"/>
<path d="M71.7317 49.3659C71.7065 50.045 71.6604 50.7368 71.5975 51.4243C70.6417 62.5758 65.9589 70.2267 58.7943 70.2267C48.6783 70.2267 42.1216 58.8824 42.1216 47.7686C42.1216 36.8058 48.8376 28.8698 56.6981 29.7879C61.23 30.3078 64.5419 31.8128 66.8938 34.0179C68.4491 35.4852 69.5726 37.2586 70.3398 39.2751C71.216 41.5347 71.6394 44.092 71.7275 46.8463C71.7275 46.8547 71.7358 46.8631 71.7358 46.8715C71.7694 47.6848 71.761 48.5148 71.7317 49.3659Z" fill="#F9A07B"/>
<path d="M71.7316 49.3658C71.4298 48.2884 70.9812 47.2361 70.3691 46.2929C64.4035 49.4119 57.2934 50.6151 50.5522 49.4748C49.2694 50.5438 48.0159 51.5961 46.754 52.6484C46.7792 47.5757 46.8504 44.1422 48.8292 41.6856C50.6864 39.3798 53.7845 38.512 56.7191 38.1347C60.0226 37.7029 63.3806 37.7197 66.6757 38.1976C67.9376 38.3737 69.2456 38.6462 70.344 39.2834C71.2202 41.543 71.6436 44.1003 71.7316 46.8546C71.7316 46.863 71.74 46.8714 71.74 46.8798C71.7694 47.6847 71.761 48.5148 71.7316 49.3658Z" fill="#E06A58"/>
<path d="M73.1906 42.4989C71.803 43.6728 70.0632 44.6454 68.1096 45.4335C62.5506 47.6764 55.3273 48.4184 49.6971 48.1459C46.9302 54.2247 45.8108 56.4047 45.1023 61.7079C42.3983 59.1716 40.1974 54.5266 39.5434 50.8751C38.8978 47.2362 38.9606 43.417 39.9752 39.841C41.5724 34.2024 45.6012 31.184 48.3933 29.7167C49.0892 29.3352 49.718 29.071 50.2043 28.8782C53.772 27.4989 57.7924 27.6247 61.4522 28.744C63.4477 29.3645 65.1289 30.4126 66.5417 31.7038C69.3966 34.282 71.1615 37.7742 72.3018 40.3902C72.6624 41.1909 72.9516 41.9162 73.1906 42.4989Z" fill="#0B2D50"/>
<path d="M74.3644 45.8024C74.1338 44.5825 73.7901 43.4002 73.3037 42.2599C73.0312 41.6143 72.6959 40.9897 72.306 40.386C71.0357 38.3905 69.1869 36.7471 66.9524 36.0218C66.3152 35.1289 65.6445 34.3239 64.9402 33.6113C62.4038 31.033 59.4273 29.5573 56.2747 29.0417C53.6503 28.6183 50.9212 28.8572 48.4016 29.7124C49.0975 29.3309 49.7264 29.0668 50.2127 28.874C53.7803 27.4947 57.8007 27.6205 61.4606 28.7398C63.4561 29.3603 65.1372 30.4084 66.55 31.6996C67.946 32.0727 69.254 32.7938 70.323 33.758C72.1006 35.3385 73.2912 37.4933 73.9997 39.7655C74.5782 41.6521 74.683 43.656 74.3644 45.8024Z" fill="#225570"/>
<path d="M52.9209 52.64C54.7907 51.571 56.7317 51.0889 59.4525 52.0825" stroke="#0B2D50" stroke-width="2" stroke-miterlimit="10" stroke-linecap="round"/>
<path d="M65.7241 52.5646C67.3256 51.3698 69.6984 51.2482 70.9351 52.5646" stroke="#0B2D50" stroke-width="2" stroke-miterlimit="10" stroke-linecap="round"/>
<path d="M63.7915 58.6602C63.955 59.507 63.8669 61.3809 63.4645 62.2236" stroke="#CC454E" stroke-width="2" stroke-miterlimit="10" stroke-linecap="round"/>
<path d="M57.4737 59.2303C57.8997 59.2303 58.245 58.686 58.245 58.0145C58.245 57.3431 57.8997 56.7988 57.4737 56.7988C57.0476 56.7988 56.7023 57.3431 56.7023 58.0145C56.7023 58.686 57.0476 59.2303 57.4737 59.2303Z" fill="#262D40"/>
<path d="M67.5562 58.6643C67.9822 58.6643 68.3276 58.12 68.3276 57.4486C68.3276 56.7771 67.9822 56.2328 67.5562 56.2328C67.1301 56.2328 66.7848 56.7771 66.7848 57.4486C66.7848 58.12 67.1301 58.6643 67.5562 58.6643Z" fill="#262D40"/>
<path d="M62.8357 63.8795C62.8357 63.8795 62.6847 64.173 62.3955 64.5713C61.9427 65.1792 61.1713 66.0176 60.1191 66.3446H60.1149C59.6705 66.4871 59.1884 66.5374 58.6518 66.441C57.0755 66.1601 56.6604 64.7054 56.585 63.5861C56.5682 63.3681 56.5682 63.1669 56.5724 62.9824C56.5808 62.5296 56.6311 62.2278 56.6311 62.2278C59.1423 63.6112 62.8357 63.8795 62.8357 63.8795Z" fill="#CC454E"/>
<path d="M62.8358 63.8796C62.8358 63.8796 62.6849 64.1731 62.3956 64.5713C61.1127 64.5546 58.4884 63.8964 56.5725 62.9825C56.5809 62.5297 56.6312 62.2278 56.6312 62.2278C59.1424 63.6113 62.8358 63.8796 62.8358 63.8796Z" fill="#EFF6FE"/>
<path d="M60.1149 66.3404C59.6705 66.483 59.1884 66.5333 58.6518 66.4369C57.0755 66.156 56.6604 64.7012 56.585 63.5819C57.348 63.6741 58.0858 63.9676 58.6979 64.4329C59.3393 64.9234 59.8298 65.59 60.1149 66.3404Z" fill="#E8729B"/>
<path d="M45.1274 50.7158C45.1274 50.7158 45.0394 45.4881 47.2152 40.2938C49.9444 33.7748 55.5075 30.987 60.903 30.7983C67.4052 30.5677 71.4759 34.9319 71.4759 34.9319C71.4759 34.9319 69.3588 31.1966 65.1833 30.1233C62.4415 29.419 58.3038 29.3059 54.9835 30.6558C51.5626 32.0434 47.299 35.8961 45.7563 39.9668C44.2177 44.0375 43.4673 50.3763 43.4673 50.3763L45.1274 50.7158Z" fill="#98C6FF"/>
<path d="M45.0168 64.3251C47.8009 64.0356 49.7024 60.381 49.2638 56.1622C48.8252 51.9434 46.2127 48.7581 43.4285 49.0475C40.6444 49.337 38.743 52.9916 39.1816 57.2104C39.6202 61.4292 42.2327 64.6145 45.0168 64.3251Z" fill="#5367F3"/>
<path d="M43.7368 62.9731C45.5341 62.703 46.606 59.9207 46.1309 56.7587C45.6557 53.5968 43.8135 51.2524 42.0161 51.5225C40.2188 51.7926 39.1469 54.5748 39.622 57.7368C40.0972 60.8988 41.9394 63.2431 43.7368 62.9731Z" fill="#98C6FF"/>
<path d="M63.1448 68.7008C63.1448 68.9295 62.9944 69.2131 62.5897 69.465C62.1923 69.7125 61.6121 69.8819 60.9449 69.8819C60.2778 69.8819 59.6976 69.7125 59.3002 69.465C58.8955 69.2131 58.7451 68.9295 58.7451 68.7008C58.7451 68.472 58.8955 68.1885 59.3002 67.9365C59.6976 67.689 60.2778 67.5197 60.9449 67.5197C61.6121 67.5197 62.1923 67.689 62.5897 67.9365C62.9944 68.1885 63.1448 68.472 63.1448 68.7008Z" fill="url(#paint0_linear_9_10065)" stroke="#5367F3"/>
<path d="M47.3829 63.0789C47.3829 63.0789 51.3488 68.1767 58.2451 68.7007L47.3829 63.0789Z" fill="url(#paint1_linear_9_10065)"/>
<path d="M47.3829 63.0789C47.3829 63.0789 51.3488 68.1767 58.2451 68.7007" stroke="#5367F3" stroke-width="2" stroke-miterlimit="10" stroke-linecap="round"/>
<path d="M63.9047 113.323L63.6448 120.027C63.6448 120.027 39.4009 127.292 35.3972 124.995C33.4436 123.871 31.62 117.692 30.2575 111.659C28.8321 105.32 27.9182 99.1491 27.9182 99.1491L42.13 96.3655C42.13 96.3655 42.1384 105.031 42.6205 110.041C42.7924 111.906 43.0398 113.265 43.371 113.487C44.6244 114.313 63.9047 113.323 63.9047 113.323Z" fill="#F9A07B"/>
<path d="M42.6205 110.032C40.0381 110.871 35.0535 112.166 30.2575 111.655C28.8321 105.316 27.9182 99.1448 27.9182 99.1448L42.13 96.3611C42.13 96.357 42.1384 105.022 42.6205 110.032Z" fill="#E06A58"/>
<path d="M63.2131 113.39C66.8184 112.619 72.9224 110.766 75.4545 110.129C77.253 109.676 81.9358 112.099 83.1725 114.384C83.7133 115.382 84.2248 121.033 82.3508 120.45C81.4118 120.157 81.5669 117.733 81.2734 116.744C81.0345 115.939 80.2715 115.159 79.1102 114.489C79.8858 116.421 79.8564 118.106 79.7726 120.194C79.7558 120.655 79.7265 121.138 79.5043 121.536C79.2779 121.934 78.7916 122.219 78.3724 122.043C77.9447 121.867 77.798 121.335 77.7016 120.869C77.3704 119.259 77.035 117.65 76.9009 115.83C76.9344 117.62 76.8967 119.414 76.7835 121.2C76.6996 122.567 76.0205 123.317 75.1862 123.079C74.8131 122.974 74.6622 122.63 74.5029 122.177C74.2514 123.053 73.6225 124.022 72.8092 123.653C72.3145 123.431 72.0085 121.645 72.0965 119.809C70.537 120.777 68.7762 121.188 66.7472 121.28C64.9277 121.364 63.0664 121.024 61.9722 119.788C62.0812 117.855 62.7184 114.996 63.2131 113.39Z" fill="#F9A07B"/>
<path d="M74.5406 121.9C74.6622 120.45 74.5364 118.978 74.1675 117.578" stroke="#CC454E" stroke-miterlimit="10" stroke-linecap="round"/>
<path d="M40.5327 82.3045C39.5014 79.3992 35.7242 73.4546 35.7242 73.4546C35.7242 73.4546 29.9598 75.8526 27.914 79.9233C24.4511 86.8154 26.2119 106.603 26.2119 106.603C30.8779 108.557 40.2435 108.586 44.2303 108.024C44.2303 108.024 42.5995 88.1108 40.5327 82.3045Z" fill="#FFC73C"/>
<path d="M41.2664 83.5202C42.8385 91.0453 43.6811 98.0632 43.9494 104.939" stroke="#F2AE30" stroke-miterlimit="10" stroke-linecap="round"/>
</g>
<defs>
<linearGradient id="paint0_linear_9_10065" x1="58.2451" y1="67.0201" x2="63.6448" y2="67.0201" gradientUnits="userSpaceOnUse">
<stop stop-color="#AB7AF3"/>
<stop offset="1" stop-color="#5367F3"/>
</linearGradient>
<linearGradient id="paint1_linear_9_10065" x1="47.3828" y1="63.0796" x2="58.2452" y2="63.0796" gradientUnits="userSpaceOnUse">
<stop stop-color="#AB7AF3"/>
<stop offset="1" stop-color="#5367F3"/>
</linearGradient>
</defs>
</svg>
