<svg width="120" height="120" viewBox="0 0 120 120" fill="none" xmlns="http://www.w3.org/2000/svg">
<mask id="mask0_9_10836" style="mask-type:alpha" maskUnits="userSpaceOnUse" x="0" y="0" width="120" height="120">
<circle cx="60" cy="60" r="60" fill="#D9D9D9"/>
</mask>
<g mask="url(#mask0_9_10836)">
<rect x="-4" y="-9" width="132" height="137" fill="#CFDBE9"/>
<path d="M126.48 93.1734H-7V93.2401H126.48V93.1734Z" fill="#EBEBEB"/>
<path d="M39.2428 94.8766H33.0547V94.9433H39.2428V94.8766Z" fill="#EBEBEB"/>
<path d="M115.473 96.3075H100.345V96.3742H115.473V96.3075Z" fill="#EBEBEB"/>
<path d="M19.5332 96.3075H4.40454V96.3742H19.5332V96.3075Z" fill="#EBEBEB"/>
<path d="M56.2696 81.267H4.72223C3.88131 81.2643 3.20056 80.5836 3.20056 79.7426V7.28162C3.20857 6.44604 3.88665 5.7733 4.72223 5.77063H56.2696C57.1105 5.77063 57.7939 6.45405 57.7939 7.29497V79.7426C57.7939 80.5836 57.1105 81.267 56.2696 81.267ZM4.72223 5.82402C3.91868 5.82669 3.2673 6.47807 3.2673 7.28162V79.7426C3.2673 80.5462 3.91868 81.1976 4.72223 81.2002H56.2696C57.0731 81.1976 57.7245 80.5462 57.7272 79.7426V7.28162C57.7245 6.47807 57.0731 5.82669 56.2696 5.82402H4.72223Z" fill="#EBEBEB"/>
<path d="M114.016 81.267H62.4657C61.6248 81.2643 60.9441 80.5836 60.9414 79.7426V7.28162C60.9494 6.44604 61.6302 5.7733 62.4657 5.77063H114.016C114.851 5.7733 115.527 6.44604 115.535 7.28162V79.7426C115.535 80.5836 114.857 81.2643 114.016 81.267ZM62.4657 5.82402C61.6622 5.82669 61.0108 6.47807 61.0081 7.28162V79.7426C61.0108 80.5462 61.6622 81.1976 62.4657 81.2002H114.016C114.819 81.1976 115.471 80.5462 115.473 79.7426V7.28162C115.471 6.47807 114.819 5.82669 114.016 5.82402H62.4657Z" fill="#EBEBEB"/>
<path d="M77.1111 71.9847H70.947V93.3175H77.1111V71.9847Z" fill="#E6E6E6"/>
<path d="M72.7464 71.9847H66.5823V93.3175H72.7464V71.9847Z" fill="#E6E6E6"/>
<path d="M71.5771 93.3176H72.7463V89.986H70.3464L71.5771 93.3176Z" fill="#F0F0F0"/>
<path d="M41.7603 71.9847H35.5962V93.3175H41.7603V71.9847Z" fill="#E6E6E6"/>
<path d="M72.749 71.9847H40.7405V91.6783H72.749V71.9847Z" fill="#F0F0F0"/>
<path d="M70.7549 87.2469H58.2184C57.5457 87.2442 57.0011 86.6996 56.9984 86.0269V74.0377C57.0011 73.365 57.5457 72.8204 58.2184 72.8177H70.7522C71.4249 72.8204 71.9695 73.365 71.9722 74.0377V86.0269C71.9695 86.6996 71.4249 87.2442 70.7549 87.2469ZM58.2184 73.0927C57.6952 73.0927 57.2707 73.5171 57.268 74.0404V86.0296C57.2627 86.5528 57.6818 86.9826 58.2077 86.9906C58.2104 86.9906 58.2158 86.9906 58.2184 86.9906H70.7522C71.2754 86.9959 71.7052 86.5741 71.7106 86.0482C71.7106 86.0429 71.7106 86.0349 71.7106 86.0296V74.0404C71.7079 73.5171 71.2835 73.0927 70.7602 73.0927H58.2184Z" fill="#E0E0E0"/>
<path d="M55.2658 87.2469H42.732C42.0593 87.2442 41.5147 86.6996 41.512 86.0269V74.0377C41.5147 73.365 42.0593 72.8204 42.732 72.8177H55.2658C55.9386 72.8177 56.4858 73.3623 56.4858 74.0377V86.0269C56.4858 86.6996 55.9386 87.2469 55.2658 87.2469ZM42.732 73.0927C42.2088 73.0927 41.7843 73.5171 41.7843 74.0404V86.0296C41.7843 86.5528 42.2088 86.9773 42.732 86.9773H55.2658C55.7891 86.9773 56.2135 86.5528 56.2162 86.0296V74.0404C56.2135 73.5171 55.7891 73.0927 55.2658 73.0927H42.732Z" fill="#E0E0E0"/>
<path d="M54.1018 76.6085C53.4505 76.6112 52.9219 76.0826 52.9219 75.4339C52.9192 74.7825 53.4478 74.2539 54.0965 74.2539C54.7479 74.2512 55.2765 74.7798 55.2765 75.4285C55.2765 75.4312 55.2765 75.4312 55.2765 75.4339C55.2765 76.0826 54.7506 76.6085 54.1018 76.6085Z" fill="#FAFAFA"/>
<path d="M59.3824 76.6085C58.731 76.6139 58.1997 76.088 58.1971 75.4393C58.1917 74.7879 58.7176 74.2593 59.3663 74.2539C60.0177 74.2486 60.5463 74.7745 60.5516 75.4232C60.5516 75.4286 60.5516 75.4366 60.5516 75.4419C60.549 76.0853 60.0257 76.6059 59.3824 76.6085Z" fill="#FAFAFA"/>
<path d="M41.9098 93.3176H40.7405V89.986H43.1378L41.9098 93.3176Z" fill="#F0F0F0"/>
<path d="M39.7981 71.9847H33.634V93.3175H39.7981V71.9847Z" fill="#E6E6E6"/>
<path d="M38.6262 93.3176H39.7982V89.986H37.3982L38.6262 93.3176Z" fill="#F0F0F0"/>
<path d="M39.7981 71.9847H7.78961V91.6783H39.7981V71.9847Z" fill="#F0F0F0"/>
<path d="M37.8039 87.2469H25.2675C24.5947 87.2469 24.0475 86.7023 24.0448 86.0269V74.0377C24.0475 73.365 24.5921 72.8177 25.2675 72.8177H37.8013C38.474 72.8204 39.0186 73.365 39.0213 74.0377V86.0269C39.0213 86.6996 38.4767 87.2442 37.8039 87.2469ZM25.2675 73.0927C24.7442 73.0927 24.3198 73.5171 24.3171 74.0404V86.0296C24.3118 86.5528 24.7309 86.9826 25.2568 86.9906C25.2595 86.9906 25.2648 86.9906 25.2675 86.9906H37.8013C38.3245 86.9959 38.7543 86.5741 38.7596 86.0482C38.7596 86.0429 38.7596 86.0349 38.7596 86.0296V74.0404C38.757 73.5171 38.3352 73.0953 37.8119 73.0927H25.2675Z" fill="#E0E0E0"/>
<path d="M22.3149 87.2469H9.78379C9.11105 87.2469 8.56378 86.6996 8.56378 86.0269V74.0377C8.56378 73.365 9.11105 72.8177 9.78379 72.8177H22.3176C22.9903 72.8204 23.5349 73.365 23.5376 74.0377V86.0269C23.5349 86.6996 22.9903 87.2442 22.3149 87.2469ZM9.78379 73.0927C9.26055 73.0927 8.83608 73.5171 8.83341 74.0404V86.0296C8.82807 86.5528 9.2472 86.9826 9.77311 86.9906C9.77578 86.9906 9.78112 86.9906 9.78379 86.9906H22.3176C22.8408 86.9906 23.2653 86.5661 23.2679 86.0429V74.0404C23.2653 73.5171 22.8408 73.0927 22.3176 73.0927H9.78379Z" fill="#E0E0E0"/>
<path d="M21.1536 76.6085C20.5022 76.6112 19.9736 76.0826 19.9736 75.4339C19.971 74.7825 20.4996 74.2539 21.1483 74.2539C21.7997 74.2512 22.3282 74.7798 22.3282 75.4285C22.3282 75.4312 22.3282 75.4312 22.3282 75.4339C22.3282 76.0826 21.8023 76.6085 21.1536 76.6085Z" fill="#FAFAFA"/>
<path d="M26.4341 76.6085C25.7827 76.6139 25.2542 76.088 25.2488 75.4393C25.2435 74.7879 25.7694 74.2593 26.4181 74.2539C27.0695 74.2486 27.5981 74.7745 27.6034 75.4232C27.6034 75.4286 27.6034 75.4366 27.6034 75.4419C27.5981 76.0853 27.0775 76.6059 26.4341 76.6085Z" fill="#FAFAFA"/>
<path d="M8.9589 93.3176H7.78961V89.986H10.1869L8.9589 93.3176Z" fill="#F0F0F0"/>
<path d="M64.3531 12.8503H52.8845V24.3189H64.3531V12.8503Z" fill="#EBEBEB"/>
<path d="M64.8631 12.853H64.3558V24.3216H64.8631V12.853Z" fill="#E0E0E0"/>
<path d="M62.8021 14.4067H54.4409V22.7679H62.8021V14.4067Z" fill="#EFF6FE"/>
<path d="M60.0204 19.9836C59.2488 20.7551 57.9941 20.7551 57.2226 19.9836C56.4511 19.212 56.4511 17.9573 57.2226 17.1858C57.9941 16.4143 59.2488 16.4143 60.0204 17.1858C60.7919 17.96 60.7919 19.212 60.0204 19.9836Z" fill="#F5F5F5"/>
<path d="M53.1195 27.5971H39.6727V41.0439H53.1195V27.5971Z" fill="#EBEBEB"/>
<path d="M53.7148 27.5999H53.1194V41.0467H53.7148V27.5999Z" fill="#E0E0E0"/>
<path d="M51.2988 29.4204H41.496V39.2232H51.2988V29.4204Z" fill="#EFF6FE"/>
<path d="M48.485 32.2289H44.3044V36.4095H48.485V32.2289Z" fill="#F5F5F5"/>
<path d="M113.266 23.2724H105.986V24.9729H113.266V23.2724Z" fill="#E6E6E6"/>
<path d="M105.986 23.2724H75.8511V24.9729H105.986V23.2724Z" fill="#F5F5F5"/>
<path d="M92.9739 14.2438H84.4899V23.2751H92.9739V14.2438Z" fill="#E0E0E0"/>
<path d="M84.4899 14.2438H82.3168V23.2751H84.4899V14.2438Z" fill="#F0F0F0"/>
<path d="M95.1977 12.8503H88.8253V23.2724H95.1977V12.8503Z" fill="#E6E6E6"/>
<path d="M88.828 12.8503H86.986V23.2724H88.828V12.8503Z" fill="#F0F0F0"/>
<path d="M96.0787 14.2438H90.7048V23.2751H96.0787V14.2438Z" fill="#F0F0F0"/>
<path d="M90.7048 14.2438H89.4767V23.2751H90.7048V14.2438Z" fill="#FAFAFA"/>
<path d="M102.149 15.7709H95.1016V23.2725H102.149V15.7709Z" fill="#E6E6E6"/>
<path d="M95.1016 15.7709H93.2969V23.2725H95.1016V15.7709Z" fill="#FAFAFA"/>
<path d="M103.997 14.615H98.7029V23.2752H103.997V14.615Z" fill="#E6E6E6"/>
<path d="M98.7028 14.615H97.1732V23.2752H98.7028V14.615Z" fill="#F0F0F0"/>
<path d="M105.404 15.7709H100.262V23.2725H105.404V15.7709Z" fill="#F0F0F0"/>
<path d="M100.262 15.7709H99.2421V23.2725H100.262V15.7709Z" fill="#FAFAFA"/>
<path d="M101.677 73.6907C103.957 70.7087 109.384 69.6009 111.261 67.7241C113.717 65.2601 113.703 61.5627 111.613 60.2279C109.798 59.0693 103.775 66.9072 103.097 67.7829C100.761 70.7942 100.088 73.0313 99.6479 75.1963C99.696 73.357 99.7467 71.6645 99.7868 70.3617C99.9149 66.1063 100.072 64.7395 100.144 64.3204C100.403 64.1122 100.694 63.8746 100.865 63.7464C102.323 62.6599 105.553 61.3651 107.171 59.7874C109.528 57.4809 109.149 54.7205 107.494 53.6927C105.767 52.6195 102.707 55.1583 101.084 57.6757C99.4611 60.1932 100.155 62.6038 99.7013 64.6808C99.6052 65.0919 99.5064 66.6483 99.4157 68.808C99.0313 66.6803 97.8566 64.7769 96.1241 63.4821C93.8869 61.6962 91.9568 59.5258 90.1148 59.8061C88.2728 60.0864 89.2739 62.9616 90.7208 64.9798C92.0182 66.7764 98.4226 68.5704 99.365 70.0146C99.2528 72.9405 99.1541 76.6486 99.0847 80.1031C98.5774 78.3198 98.9271 78.1703 96.8582 75.4339C95.6275 73.8108 90.5846 71.8006 89.9866 72.9218C89.3887 74.0431 90.299 76.1467 92.2024 77.623C93.7374 78.8137 97.1305 78.811 97.9341 79.5505C98.1183 79.7213 98.7243 80.3834 99.074 80.7651C98.9912 84.9778 98.9538 88.6992 98.9966 89.9673L99.3249 89.9806C99.3089 89.6549 99.3489 87.5112 99.413 84.6734C100.241 83.1624 105.812 82.2815 107.531 80.7117C109.331 79.0699 110.623 77.1532 109.854 75.8691C109.21 74.7986 104.146 76.2535 102.069 78.0288C100.697 79.2088 99.8588 80.4688 99.4744 82.164C99.5225 80.2312 99.5759 78.1569 99.6266 76.1974C100.04 75.7089 100.993 74.585 101.677 73.6907Z" fill="#E6E6E6"/>
<path d="M102.163 93.2614H96.3804C96.0627 93.2614 95.7904 92.8503 95.729 92.279L95.3179 88.5389H103.223L102.811 92.279C102.747 92.8503 102.478 93.2614 102.163 93.2614Z" fill="#F0F0F0"/>
<path d="M103.388 89.9858H95.1497C94.9521 89.9858 94.7866 89.7135 94.7653 89.3504L94.5971 86.5847C94.5704 86.1603 94.7492 85.7892 94.9815 85.7892H103.556C103.786 85.7892 103.967 86.1603 103.941 86.5847L103.772 89.3504C103.754 89.7135 103.586 89.9858 103.388 89.9858Z" fill="#F0F0F0"/>
<path d="M59.74 105.229C88.3268 105.229 111.501 103.876 111.501 102.207C111.501 100.538 88.3268 99.1854 59.74 99.1854C31.1533 99.1854 7.97913 100.538 7.97913 102.207C7.97913 103.876 31.1533 105.229 59.74 105.229Z" fill="#F5F5F5"/>
<path d="M50.2603 32.6482C49.6703 34.0818 46.1972 33.9856 42.5558 32.4827C38.9145 30.9797 36.4424 28.6011 37.0351 27.1702C37.1712 26.8391 37.553 25.5978 37.9641 25.4242C39.3203 24.8529 41.9018 26.1397 44.6968 27.293C47.2997 28.3661 50.2736 29.0576 50.7355 30.4698C51.0158 31.3321 50.4285 32.2397 50.2603 32.6482Z" fill="url(#paint0_linear_9_10836)"/>
<path opacity="0.2" d="M50.7381 30.4725C50.9597 31.5964 50.4712 32.1357 50.2603 32.6482C50.0414 33.1768 49.4327 33.4971 48.5704 33.6146C48.4663 33.6306 48.3568 33.6413 48.2447 33.6493C47.6654 33.692 46.9954 33.6573 46.2639 33.5452C46.1704 33.5345 46.077 33.5158 45.9809 33.4998C45.2655 33.377 44.5019 33.1795 43.7144 32.9178C43.629 32.8885 43.5436 32.8591 43.4581 32.8271C43.1591 32.723 42.8548 32.6082 42.5531 32.4827C42.2515 32.3599 41.9578 32.2264 41.6722 32.0903C41.5894 32.0529 41.5093 32.0128 41.4292 31.9728C40.7111 31.6177 40.0624 31.2307 39.4884 30.8356C39.4137 30.7848 39.3416 30.7314 39.2695 30.6834C38.6715 30.2482 38.1696 29.8024 37.7906 29.3619C37.7238 29.2872 37.6651 29.2151 37.6064 29.1404C37.0324 28.4116 36.8055 27.7201 37.0324 27.1675C37.1792 26.8098 37.5022 25.5951 37.9587 25.4216C38.4153 25.2507 39.0052 25.2748 39.6887 25.4189C39.7767 25.4376 39.8675 25.459 39.9583 25.483C41.3064 25.8247 42.9749 26.5855 44.6915 27.293C46.7177 28.1286 49.1123 28.9962 50.2843 29.9973C50.3564 30.0587 50.4231 30.1201 50.4845 30.1842C50.586 30.2803 50.6661 30.3764 50.7381 30.4725Z" fill="black"/>
<g opacity="0.2">
<path d="M40.0864 25.2614L39.9636 25.4856L37.7959 29.3646C37.7292 29.2898 37.6704 29.2177 37.6117 29.143L39.694 25.4216L39.8542 25.1332L40.0864 25.2614Z" fill="black"/>
</g>
<g opacity="0.2">
<path d="M41.7256 26.8417L39.4911 30.8381C39.4164 30.7874 39.3443 30.734 39.2722 30.686L41.4933 26.7109L41.7256 26.8417Z" fill="black"/>
</g>
<g opacity="0.2">
<path d="M45.834 29.1376L43.7197 32.9205C43.6343 32.8911 43.5489 32.8617 43.4634 32.8297L45.6018 29.0068L45.834 29.1376Z" fill="black"/>
</g>
<g opacity="0.2">
<path d="M43.9226 28.0699L41.6748 32.093C41.5921 32.0556 41.512 32.0156 41.4319 31.9755L43.6877 27.9391L43.9226 28.0699Z" fill="black"/>
</g>
<g opacity="0.2">
<path d="M48.3248 29.8691L46.2666 33.5479C46.1731 33.5372 46.0797 33.5185 45.9836 33.5025L48.0899 29.7357L48.3248 29.8691Z" fill="black"/>
</g>
<path d="M50.7221 31.3882C50.1321 32.8217 46.7017 32.7657 43.0603 31.2627C39.419 29.7597 36.9469 27.3811 37.5396 25.9502C38.1296 24.5166 41.56 24.5727 45.2014 26.0756C48.84 27.5786 51.3121 29.9572 50.7221 31.3882Z" fill="url(#paint1_linear_9_10836)"/>
<path opacity="0.2" d="M49.4834 30.8783C49.0669 31.8901 46.392 31.7486 43.5115 30.5607C40.631 29.3727 38.6341 27.5894 39.0506 26.5749C39.467 25.5632 42.142 25.7046 45.0225 26.8926C47.9057 28.0833 49.9025 29.8666 49.4834 30.8783Z" fill="#EFF6FE"/>
<path d="M68.6591 19.6901C69.6068 20.9154 67.7969 23.8787 64.6841 26.292C61.5713 28.7026 58.2771 29.6637 57.3293 28.4383C57.1104 28.1554 56.2241 27.205 56.2775 26.7645C56.4564 25.3042 58.8564 23.7051 61.2483 21.8524C63.4748 20.1279 65.5517 17.8908 67.0093 18.1924C67.893 18.3793 68.3895 19.343 68.6591 19.6901Z" fill="url(#paint2_linear_9_10836)"/>
<path opacity="0.2" d="M67.0093 18.1951C68.0958 18.5635 68.3201 19.2523 68.6591 19.6901C69.0088 20.1413 68.9848 20.83 68.6591 21.6362C68.6217 21.735 68.5764 21.8338 68.5283 21.9352C68.2774 22.4585 67.9143 23.0244 67.4551 23.6011C67.3991 23.6758 67.3377 23.7479 67.2763 23.8227C66.8144 24.3806 66.2618 24.9466 65.6425 25.4992C65.5757 25.5579 65.5063 25.6193 65.4369 25.678C65.1966 25.8836 64.9484 26.0918 64.6868 26.292C64.4305 26.4923 64.1688 26.6818 63.9099 26.8607C63.8351 26.914 63.7604 26.9621 63.6883 27.0128C63.0236 27.4586 62.3642 27.8324 61.7342 28.1314C61.6514 28.1714 61.5713 28.2061 61.4912 28.2435C60.8185 28.5452 60.1778 28.7587 59.6118 28.8709C59.5157 28.8922 59.4223 28.9082 59.3289 28.9216C58.4105 29.0577 57.6977 28.9109 57.332 28.4384C57.0944 28.1341 56.2028 27.2504 56.2775 26.7672C56.3549 26.284 56.6699 25.7848 57.1345 25.2669C57.1959 25.2002 57.2572 25.1308 57.324 25.064C58.2904 24.0656 59.78 22.9951 61.2483 21.8578C62.9809 20.5177 64.9243 18.8705 66.3766 18.35C66.4647 18.3179 66.5528 18.2912 66.6382 18.2672C66.769 18.2325 66.8892 18.2085 67.0093 18.1951Z" fill="black"/>
<g opacity="0.2">
<path d="M57.1905 24.8423L57.3213 25.0613L59.6065 28.8708C59.5104 28.8921 59.417 28.9081 59.3235 28.9215L57.1318 25.2641L56.9609 24.9812L57.1905 24.8423Z" fill="black"/>
</g>
<g opacity="0.2">
<path d="M59.377 24.2069L61.7316 28.1312C61.6488 28.1713 61.5687 28.206 61.4886 28.2433L59.1447 24.3404L59.377 24.2069Z" fill="black"/>
</g>
<g opacity="0.2">
<path d="M63.4107 21.7856L65.6399 25.5017C65.5731 25.5605 65.5037 25.6219 65.4343 25.6806L63.1812 21.9245L63.4107 21.7856Z" fill="black"/>
</g>
<g opacity="0.2">
<path d="M61.5367 22.9122L63.9073 26.8632C63.8325 26.9166 63.7578 26.9647 63.6857 27.0154L61.3071 23.0511L61.5367 22.9122Z" fill="black"/>
</g>
<g opacity="0.2">
<path d="M65.2848 19.9863L67.4525 23.6036C67.3964 23.6783 67.335 23.7504 67.2736 23.8252L65.0552 20.1251L65.2848 19.9863Z" fill="black"/>
</g>
<path d="M63.8749 25.248C66.9883 22.8367 68.7431 19.8889 67.7943 18.6638C66.8455 17.4387 63.5524 18.4003 60.439 20.8115C57.3255 23.2228 55.5707 26.1707 56.5195 27.3958C57.4683 28.6209 60.7614 27.6593 63.8749 25.248Z" fill="url(#paint3_linear_9_10836)"/>
<path opacity="0.2" d="M63.4891 24.5072C65.9532 22.5988 67.4071 20.3496 66.7363 19.4835C66.0656 18.6174 63.5242 19.4624 61.06 21.3709C58.5959 23.2793 57.142 25.5285 57.8128 26.3946C58.4835 27.2607 61.0249 26.4157 63.4891 24.5072Z" fill="#EFF6FE"/>
<path d="M55.773 13.9503C55.4607 15.7069 51.531 16.4518 47.0648 15.6589C42.6012 14.8633 39.2348 12.7944 39.5472 11.0378C39.6193 10.6294 39.7447 9.14238 40.1639 8.84606C41.5494 7.86898 44.7689 8.68321 48.1994 9.29455C51.3922 9.86318 54.9081 9.90856 55.7757 11.3848C56.2989 12.2818 55.8611 13.4485 55.773 13.9503Z" fill="url(#paint4_linear_9_10836)"/>
<path opacity="0.2" d="M55.773 11.385C56.2989 12.5943 55.8825 13.3204 55.7703 13.9505C55.6556 14.5992 55.0495 15.1091 54.1072 15.4534C53.9951 15.4988 53.8749 15.5362 53.7495 15.5736C53.1087 15.7631 52.3452 15.8913 51.4963 15.9446C51.3869 15.9553 51.2801 15.958 51.1679 15.9633C50.335 16.0007 49.4274 15.966 48.477 15.8646C48.3755 15.8539 48.2688 15.8405 48.1646 15.8272C47.8043 15.7818 47.4332 15.7284 47.0621 15.6617C46.6937 15.5976 46.3306 15.5202 45.9756 15.4374C45.8741 15.4161 45.7727 15.3894 45.6739 15.3653C44.7796 15.1411 43.952 14.8688 43.2099 14.5618C43.1111 14.5217 43.0203 14.4817 42.9269 14.4443C42.15 14.1026 41.472 13.7209 40.938 13.3231C40.8446 13.2564 40.7592 13.1896 40.6764 13.1202C39.8515 12.4421 39.427 11.7187 39.5472 11.0433C39.6246 10.6054 39.6887 9.15852 40.1612 8.85151C40.6337 8.54451 41.3038 8.42705 42.1047 8.42438C42.2088 8.42438 42.3155 8.42438 42.425 8.42972C44.0241 8.48311 46.0904 8.92893 48.194 9.30268C50.6767 9.74583 53.5839 10.1303 55.151 10.9685C55.2471 11.0192 55.3379 11.0726 55.4233 11.1287C55.5541 11.2061 55.6689 11.2942 55.773 11.385Z" fill="black"/>
<g opacity="0.2">
<path d="M42.5105 8.14132L42.425 8.42163L40.9381 13.3177C40.8446 13.2509 40.7592 13.1842 40.6765 13.1148L42.1047 8.41629L42.2141 8.05322L42.5105 8.14132Z" fill="black"/>
</g>
<g opacity="0.2">
<path d="M44.7422 9.51624L43.2099 14.5591C43.1111 14.5191 43.0203 14.479 42.9269 14.4417L44.4486 9.42548L44.7422 9.51624Z" fill="black"/>
</g>
<g opacity="0.2">
<path d="M49.9292 11.0886L48.4796 15.8645C48.3782 15.8538 48.2714 15.8405 48.1673 15.8271L49.6329 11.0005L49.9292 11.0886Z" fill="black"/>
</g>
<g opacity="0.2">
<path d="M47.5186 10.3571L45.9782 15.4347C45.8768 15.4134 45.7753 15.3867 45.6766 15.3626L47.2223 10.2664L47.5186 10.3571Z" fill="black"/>
</g>
<g opacity="0.2">
<path d="M52.9112 11.2968L51.499 15.9419C51.3896 15.9526 51.2828 15.9553 51.1707 15.9606L52.6149 11.2061L52.9112 11.2968Z" fill="black"/>
</g>
<path d="M55.9808 12.4203C56.2934 10.664 52.9272 8.59603 48.4623 7.80147C43.9974 7.0069 40.1245 7.78658 39.812 9.54293C39.4994 11.2993 42.8655 13.3672 47.3304 14.1618C51.7953 14.9563 55.6682 14.1767 55.9808 12.4203Z" fill="url(#paint5_linear_9_10836)"/>
<path opacity="0.2" d="M54.4614 12.1504C54.6823 10.9094 51.9972 9.39361 48.4642 8.76488C44.9312 8.13615 41.8881 8.63254 41.6672 9.8736C41.4464 11.1147 44.1314 12.6304 47.6644 13.2591C51.1974 13.8879 54.2406 13.3915 54.4614 12.1504Z" fill="#EFF6FE"/>
<path d="M79.0786 58.7969L51.6058 60.3959C50.6314 60.452 49.6756 60.6869 48.7867 61.0847L18.9459 74.4407C17.862 74.9266 17.264 76.0879 17.5069 77.2331L22.443 100.549C22.7821 102.149 24.5654 102.992 26.047 102.253L55.5007 87.5485L82.6986 86.6301C84.1269 86.5821 85.1947 85.3033 84.9678 83.9125L81.3264 61.5839C81.1369 60.4307 80.2613 58.7622 79.0786 58.7969Z" fill="url(#paint6_linear_9_10836)"/>
<path opacity="0.1" d="M79.0786 58.7969L51.6058 60.3959C50.6314 60.452 49.6756 60.6869 48.7867 61.0847L18.9459 74.4407C17.862 74.9266 17.264 76.0879 17.5069 77.2331L22.443 100.549C22.7821 102.149 24.5654 102.992 26.047 102.253L55.5007 87.5485L82.6986 86.6301C84.1269 86.5821 85.1947 85.3033 84.9678 83.9125L81.3264 61.5839C81.1369 60.4307 80.2613 58.7622 79.0786 58.7969Z" fill="black"/>
<path d="M23.9324 43.6184L9.51447 56.9069L35.3841 84.9752L49.802 71.6867L23.9324 43.6184Z" fill="url(#paint7_linear_9_10836)"/>
<path opacity="0.5" d="M49.804 71.6832L35.3855 84.9725L9.51703 56.9069L18.9781 48.1854L23.9356 43.615L24.7605 44.512L49.804 71.6832Z" fill="#FAFAFA"/>
<path d="M24.0256 45.3338L11.3036 57.0592L35.5016 83.3138L48.2235 71.5884L24.0256 45.3338Z" stroke="url(#paint8_linear_9_10836)" stroke-miterlimit="10"/>
<path d="M32.6314 67.428C34.0906 66.0829 33.906 63.509 32.2191 61.679C30.5323 59.849 27.9818 59.4559 26.5226 60.801C25.0634 62.1461 25.248 64.7201 26.9349 66.55C28.6217 68.38 31.1721 68.7731 32.6314 67.428Z" fill="url(#paint9_linear_9_10836)"/>
<path opacity="0.1" d="M35.2331 73.5812L30.1101 75.3512L18.9779 48.1853L23.9354 43.6149L24.7603 44.5119L35.2331 73.5812Z" fill="black"/>
<path d="M36.2278 32.6207L17.7941 39.3032L30.8033 75.1893L49.237 68.5068L36.2278 32.6207Z" fill="url(#paint10_linear_9_10836)"/>
<path opacity="0.5" d="M36.2278 32.6207L17.7941 39.3032L30.8033 75.1893L49.237 68.5068L36.2278 32.6207Z" fill="#FAFAFA"/>
<path d="M35.6492 34.2405L19.3839 40.137L31.5524 73.7041L47.8177 67.8077L35.6492 34.2405Z" stroke="url(#paint11_linear_9_10836)" stroke-miterlimit="10"/>
<path d="M35.0418 57.9423C36.9075 57.266 37.7323 54.8211 36.8841 52.4814C36.036 50.1417 33.836 48.7933 31.9703 49.4696C30.1047 50.1459 29.2799 52.5909 30.128 54.9306C30.9762 57.2703 33.1762 58.6187 35.0418 57.9423Z" fill="url(#paint12_linear_9_10836)"/>
<path d="M79.2575 59.7447L52.1611 61.2717C51.2 61.3251 50.2576 61.5574 49.382 61.9525L19.979 75.2257C18.9112 75.7063 18.3239 76.8675 18.5668 78.0128L23.4975 101.332C23.8366 102.931 25.5985 103.777 27.0588 103.043L56.0774 88.4216L82.9042 87.5727C84.3137 87.5273 85.3629 86.2539 85.136 84.863L81.4866 62.5371C81.2918 61.3839 80.4268 59.7127 79.2575 59.7447Z" fill="url(#paint13_linear_9_10836)"/>
<path opacity="0.2" d="M53.2636 65.3561L76.5132 63.9252" stroke="black" stroke-width="2" stroke-miterlimit="10" stroke-linecap="round" stroke-linejoin="round"/>
<path opacity="0.2" d="M50.4792 65.9568L54.7265 85.4663" stroke="black" stroke-width="2" stroke-miterlimit="10" stroke-linecap="round" stroke-linejoin="round"/>
<path opacity="0.2" d="M22.16 83.5709L25.1553 98.5794C25.1553 98.5767 27.4512 92.6235 22.16 83.5709Z" fill="#FAFAFA"/>
<path opacity="0.2" d="M22.5525 83.747C22.6539 84.022 49.1551 72.6415 49.1551 72.6415C49.1551 72.6415 49.8251 80.8211 41.851 85.2954C33.8769 89.767 22.5525 83.747 22.5525 83.747Z" fill="#FAFAFA"/>
<path d="M40.1558 84.1903C40.7898 84.1903 41.3037 83.6764 41.3037 83.0424C41.3037 82.4084 40.7898 81.8945 40.1558 81.8945C39.5218 81.8945 39.0079 82.4084 39.0079 83.0424C39.0079 83.6764 39.5218 84.1903 40.1558 84.1903Z" fill="url(#paint14_linear_9_10836)"/>
<path opacity="0.2" d="M49.1711 72.6415C49.1711 72.6415 52.4574 77.5856 51.6618 86.0135L49.1711 72.6415Z" fill="black"/>
<g opacity="0.2">
<path d="M20.892 77.6763L21.5033 77.4067" stroke="#FAFAFA" stroke-linecap="round" stroke-linejoin="round"/>
<path d="M22.7714 76.8461L47.5186 65.9061" stroke="#FAFAFA" stroke-linecap="round" stroke-linejoin="round" stroke-dasharray="5.2 5.2"/>
<path d="M48.1539 65.6257L48.7626 65.3561" stroke="#FAFAFA" stroke-linecap="round" stroke-linejoin="round"/>
</g>
<path opacity="0.2" d="M54.0431 69.7423L77.2927 68.3087" stroke="black" stroke-width="2" stroke-miterlimit="10" stroke-linecap="round" stroke-linejoin="round"/>
<path opacity="0.2" d="M55.0896 75.2123L78.3392 73.7787" stroke="black" stroke-width="2" stroke-miterlimit="10" stroke-linecap="round" stroke-linejoin="round"/>
<path d="M73.2429 36.3536C73.2429 36.3536 72.6582 42.5818 70.3437 43.1184C68.0292 43.655 66.075 42.6913 66.075 42.6913L64.1929 41.2443L63.2746 44.4452C63.2746 44.4452 64.2784 45.8094 66.374 44.8643C66.374 44.8643 70.1088 46.5115 72.1777 44.8643C74.2467 43.2172 74.9061 38.7082 74.9061 38.7082L73.2429 36.3536Z" fill="#B97964"/>
<path d="M75.1036 33.3369C75.1036 33.3369 73.4885 30.5845 74.2227 25.5951C74.9568 20.6056 79.1401 19.9809 80.7552 20.3466C82.3703 20.7124 83.6917 22.2607 84.7916 25.2106C85.8915 28.1632 86.2973 28.9321 88.1313 28.4195C89.9653 27.9069 94.8453 26.2918 96.2042 27.7227C97.563 29.1536 97.1225 30.7687 97.1225 30.7687C97.1225 30.7687 103.911 29.1163 103.324 35.1709C102.737 41.2256 92.9392 46.8771 83.6197 40.8945C74.2974 34.9146 75.1036 33.3369 75.1036 33.3369Z" fill="#263238"/>
<path d="M75.0289 47.9904C75.0289 47.9904 73.1842 63.8558 73.2456 71.2987C73.307 78.7388 75.9526 96.2674 75.9526 96.2674H79.2121C79.2121 96.2674 78.7823 82.2467 78.8437 77.4494C78.9051 72.6521 79.7674 64.7208 79.7674 64.7208C79.7674 64.7208 80.8139 71.8539 82.0419 74.3767C83.2726 76.8968 90.0988 85.816 94.8346 88.5817L97.0478 86.5528C97.0478 86.5528 92.1277 80.4634 90.283 77.4521C88.4383 74.4381 86.7778 73.5785 86.1024 67.9803C85.427 62.3849 86.5936 53.4043 84.6261 47.993H75.0289V47.9904Z" fill="#263238"/>
<path opacity="0.2" d="M79.7647 64.7181L78.3472 54.6617C78.3472 54.6617 77.2286 60.7084 79.4337 68.0898L79.7647 64.7181Z" fill="black"/>
<path d="M76.6199 97.1591L76.7294 100.275L78.9158 100.456L79.0252 100.165V96.9402L76.6199 97.1591Z" fill="#B97964"/>
<path d="M75.5815 95.9738L75.7817 97.1404L79.5352 97.2312L79.7728 95.8297L75.5815 95.9738Z" fill="url(#paint15_linear_9_10836)"/>
<path d="M93.8015 88.7952L97.28 85.5543L98.0462 86.7743L95.0589 89.508L93.8015 88.7952Z" fill="url(#paint16_linear_9_10836)"/>
<path d="M95.478 88.7952L97.7739 90.7279L99.2475 88.9954L97.3628 87.0466L95.478 88.7952Z" fill="#B97964"/>
<path d="M99.6933 88.862L101.082 89.7163C101.351 89.8818 101.407 90.2502 101.196 90.4878C100.19 91.6224 97.619 94.5109 97.3628 94.7164C97.0451 94.9727 96.6607 94.5349 96.5699 94.1344C96.5699 94.1344 97.2987 93.1681 97.3628 92.5487C97.4108 92.0922 97.3868 91.4301 97.3734 91.1125C97.3681 90.9923 97.4081 90.8749 97.4856 90.7841L99.0366 88.9661C99.2021 88.7739 99.4798 88.7285 99.6933 88.862Z" fill="#263238"/>
<path d="M79.4497 100.536L79.738 102.141C79.7941 102.453 79.5565 102.739 79.2388 102.741C77.7198 102.747 73.8542 102.76 73.5312 102.704C73.1281 102.637 73.2002 102.06 73.4378 101.724C73.4378 101.724 74.6444 101.623 75.1463 101.257C75.5174 100.987 75.9952 100.528 76.2248 100.307C76.3102 100.221 76.425 100.176 76.5452 100.17L78.9345 100.114C79.1854 100.112 79.4043 100.291 79.4497 100.536Z" fill="#263238"/>
<path d="M84.9731 39.1914L88.3048 36.8528C88.3048 36.8528 87.4185 33.3076 86.1077 33.1314C84.797 32.9552 78.2751 31.7138 74.1292 33.1314C74.1292 33.1314 72.6396 33.5558 72.1804 37.7391L73.953 38.3051C73.953 38.3051 74.5911 46.1377 74.9808 47.3443H84.4446C84.4392 47.3443 84.546 40.6089 84.9731 39.1914Z" fill="#FFC73C"/>
<path d="M85.6913 38.6868C85.6913 38.6868 86.9513 42.2907 87.1782 44.2288C87.1782 44.2288 84.1776 43.0355 83.4007 42.4856L82.8161 40.3766L80.8192 39.4182L80.2399 40.9986L81.8844 43.0649C81.8844 43.0649 86.4014 47.2936 88.6946 46.3245C90.9877 45.3554 87.7869 37.2131 87.7869 37.2131L85.6913 38.6868Z" fill="#B97964"/>
<path d="M77.2153 22.9068C77.2153 22.9068 76.062 25.216 76.1581 27.0901C76.2542 28.9641 77.1912 29.7357 78.9959 29.9999C78.9959 29.9999 79.7647 32.4053 77.7465 32.6455C77.5943 32.6642 77.5383 33.2755 77.5516 33.3743C77.605 33.7641 77.9894 33.9777 78.3392 34.0684C78.7129 34.1672 79.1107 34.1832 79.4978 34.1966C80.3627 34.2259 81.0755 33.8762 81.6495 33.2382C81.6949 33.1901 82.098 32.6696 82.098 32.6696C82.098 32.6696 81.1369 32.1917 81.4733 29.0629C81.4733 29.0629 82.122 28.7025 82.4824 27.8135C82.4824 27.8135 83.1071 27.5012 83.2512 26.8765C83.3954 26.2518 82.8428 25.3869 81.8337 26.2518C81.8337 26.2518 79.9356 25.2908 79.2121 21.9244C79.2094 21.9191 78.4646 22.7627 77.2153 22.9068Z" fill="#B97964"/>
<path d="M77.7572 26.5775L77.9227 25.3442L77.0498 26.3106C77.0471 26.3106 77.3247 26.6309 77.7572 26.5775Z" fill="#A24E3F"/>
<path d="M78.2644 27.4798C78.2644 27.4798 79.1854 27.6213 79.6286 27.0286" stroke="#222221" stroke-width="0.75" stroke-miterlimit="10" stroke-linecap="round" stroke-linejoin="round"/>
<path d="M79.1854 23.6169C79.1854 23.6169 79.7727 23.39 80.3787 23.9346" stroke="#222221" stroke-miterlimit="10" stroke-linecap="round" stroke-linejoin="round"/>
<path d="M77.5917 23.3499C77.5917 23.3499 77.0685 23.2672 76.8202 23.5715" stroke="#222221" stroke-miterlimit="10" stroke-linecap="round" stroke-linejoin="round"/>
<path d="M79.5565 25.2401C79.5324 25.4269 79.4123 25.5631 79.2895 25.5471C79.1667 25.531 79.0839 25.3682 79.108 25.1813C79.132 24.9945 79.2521 24.8583 79.3749 24.8743C79.5004 24.8903 79.5805 25.0532 79.5565 25.2401Z" fill="#222221"/>
<path d="M77.4346 24.8277C77.4587 24.6421 77.3775 24.4784 77.2532 24.4623C77.129 24.4461 77.0086 24.5836 76.9845 24.7692C76.9604 24.9549 77.0415 25.1186 77.1658 25.1347C77.2901 25.1509 77.4104 25.0134 77.4346 24.8277Z" fill="#222221"/>
<path d="M79.3777 24.8742L78.9559 24.69C78.9559 24.69 79.0413 25.0691 79.3777 24.8742Z" fill="#222221"/>
<path d="M77.2846 24.4791L76.8629 24.2949C76.8629 24.2949 76.9509 24.6739 77.2846 24.4791Z" fill="#222221"/>
<path d="M74.6471 46.9279V48.0411L84.8984 48.1266L84.6234 46.8024L74.6471 46.9279Z" fill="url(#paint17_linear_9_10836)"/>
<path opacity="0.4" d="M74.6471 46.9279V48.0411L84.8984 48.1266L84.6234 46.8024L74.6471 46.9279Z" fill="#FFC73C"/>
<path d="M74.7726 41.5246L69.137 61.1381C68.7393 62.5237 67.5433 63.4634 66.1951 63.5968C65.776 63.6369 65.3409 63.6022 64.9084 63.4794L54.1205 60.38C52.3079 59.8567 51.2587 57.964 51.7793 56.1513L57.4175 36.5351C57.7218 35.4859 58.48 34.6931 59.4224 34.3113C60.1058 34.0337 60.8826 33.9749 61.6461 34.1965L72.4313 37.2933C74.2467 37.8138 75.2931 39.7066 74.7726 41.5246Z" fill="url(#paint18_linear_9_10836)"/>
<path opacity="0.2" d="M74.7726 41.5246L69.137 61.1381C68.7393 62.5237 67.5433 63.4634 66.1951 63.5968C65.776 63.6369 65.3409 63.6022 64.9084 63.4794L54.1205 60.38C52.3079 59.8567 51.2587 57.964 51.7793 56.1513L57.4175 36.5351C57.7218 35.4859 58.48 34.6931 59.4224 34.3113C60.1058 34.0337 60.8826 33.9749 61.6461 34.1965L72.4313 37.2933C74.2467 37.8138 75.2931 39.7066 74.7726 41.5246Z" fill="black"/>
<path d="M73.8355 41.7567L68.2 61.3703C67.8983 62.4221 67.1348 63.2176 66.1951 63.5967C65.776 63.6368 65.3409 63.6021 64.9084 63.4793L54.1205 60.3799C52.3079 59.8566 51.2587 57.9639 51.7793 56.1512L57.4175 36.535C57.7218 35.4858 58.48 34.6929 59.4224 34.3112C59.8415 34.2711 60.2766 34.3059 60.7091 34.4287L71.4943 37.5254C73.307 38.0486 74.3561 39.9414 73.8355 41.7567Z" fill="url(#paint19_linear_9_10836)"/>
<path opacity="0.5" d="M73.8355 41.7567L68.2 61.3703C67.8983 62.4221 67.1348 63.2176 66.1951 63.5967C65.776 63.6368 65.3409 63.6021 64.9084 63.4793L54.1205 60.3799C52.3079 59.8566 51.2587 57.9639 51.7793 56.1512L57.4175 36.535C57.7218 35.4858 58.48 34.6929 59.4224 34.3112C59.8415 34.2711 60.2766 34.3059 60.7091 34.4287L71.4943 37.5254C73.307 38.0486 74.3561 39.9414 73.8355 41.7567Z" fill="#FAFAFA"/>
<path d="M58.6803 43.4192L57.5266 43.0941L53.3752 57.8276L54.5289 58.1527L58.6803 43.4192Z" fill="#FAFAFA"/>
<path d="M56.1815 58.626L55.0282 58.2923L59.1794 43.5641L60.33 43.8952L56.1815 58.626Z" fill="#FAFAFA"/>
<path d="M57.858 59.1065L56.7047 58.7754L60.8559 44.0446L62.0092 44.3783L57.858 59.1065Z" fill="#FAFAFA"/>
<path opacity="0.5" d="M68.7262 46.3041L67.5725 45.9791L63.4211 60.7125L64.5748 61.0376L68.7262 46.3041Z" fill="black"/>
<path d="M68.5764 42.1438L68.0024 44.1434L67.319 43.9512C66.6303 43.7563 66.2298 43.0408 66.422 42.3521L66.7958 41.0253L68.176 41.4204C68.4856 41.5111 68.6645 41.8342 68.5764 42.1438Z" fill="#FAFAFA"/>
<path d="M68.248 41.1642L66.8679 40.7691L67.2816 39.3061C67.4739 38.6174 68.192 38.217 68.8807 38.4092L69.5908 38.6094L68.9715 40.7638C68.8834 41.0761 68.5604 41.255 68.248 41.1642Z" fill="#FAFAFA"/>
<path d="M69.5562 41.8182L70.9443 42.216L70.5759 43.5214C70.3837 44.2102 69.6683 44.6133 68.9795 44.4184L68.2587 44.2155L68.8327 42.2187C68.9208 41.909 69.2438 41.7301 69.5562 41.8182Z" fill="#FAFAFA"/>
<path d="M71.4355 40.4754L71.0164 41.9597L69.6282 41.5619C69.3185 41.4711 69.1397 41.1481 69.2278 40.8385L69.8471 38.6841L70.5386 38.879C71.2273 39.0712 71.6277 39.7866 71.4355 40.4754Z" fill="#FAFAFA"/>
</g>
<defs>
<linearGradient id="paint0_linear_9_10836" x1="36.9472" y1="25.2853" x2="50.8103" y2="25.2853" gradientUnits="userSpaceOnUse">
<stop stop-color="#AB7AF3"/>
<stop offset="1" stop-color="#5367F3"/>
</linearGradient>
<linearGradient id="paint1_linear_9_10836" x1="37.4517" y1="24.9117" x2="50.8092" y2="24.9117" gradientUnits="userSpaceOnUse">
<stop stop-color="#AB7AF3"/>
<stop offset="1" stop-color="#5367F3"/>
</linearGradient>
<linearGradient id="paint2_linear_9_10836" x1="56.2751" y1="18.1664" x2="68.9115" y2="18.1664" gradientUnits="userSpaceOnUse">
<stop stop-color="#AB7AF3"/>
<stop offset="1" stop-color="#5367F3"/>
</linearGradient>
<linearGradient id="paint3_linear_9_10836" x1="54.8019" y1="25.1783" x2="66.0769" y2="16.4461" gradientUnits="userSpaceOnUse">
<stop stop-color="#AB7AF3"/>
<stop offset="1" stop-color="#5367F3"/>
</linearGradient>
<linearGradient id="paint4_linear_9_10836" x1="39.5269" y1="8.39327" x2="56.0285" y2="8.39327" gradientUnits="userSpaceOnUse">
<stop stop-color="#AB7AF3"/>
<stop offset="1" stop-color="#5367F3"/>
</linearGradient>
<linearGradient id="paint5_linear_9_10836" x1="39.2483" y1="12.7236" x2="40.3802" y2="6.36312" gradientUnits="userSpaceOnUse">
<stop stop-color="#AB7AF3"/>
<stop offset="1" stop-color="#5367F3"/>
</linearGradient>
<linearGradient id="paint6_linear_9_10836" x1="17.4524" y1="58.8024" x2="84.9989" y2="58.8024" gradientUnits="userSpaceOnUse">
<stop stop-color="#AB7AF3"/>
<stop offset="1" stop-color="#5367F3"/>
</linearGradient>
<linearGradient id="paint7_linear_9_10836" x1="9.5179" y1="56.9109" x2="23.9361" y2="43.6222" gradientUnits="userSpaceOnUse">
<stop stop-color="#AB7AF3"/>
<stop offset="1" stop-color="#5367F3"/>
</linearGradient>
<linearGradient id="paint8_linear_9_10836" x1="11.3069" y1="57.063" x2="24.0291" y2="45.3374" gradientUnits="userSpaceOnUse">
<stop stop-color="#AB7AF3"/>
<stop offset="1" stop-color="#5367F3"/>
</linearGradient>
<linearGradient id="paint9_linear_9_10836" x1="23.8813" y1="63.2376" x2="29.1657" y2="58.3664" gradientUnits="userSpaceOnUse">
<stop stop-color="#AB7AF3"/>
<stop offset="1" stop-color="#5367F3"/>
</linearGradient>
<linearGradient id="paint10_linear_9_10836" x1="17.7957" y1="39.3082" x2="36.2297" y2="32.6256" gradientUnits="userSpaceOnUse">
<stop stop-color="#AB7AF3"/>
<stop offset="1" stop-color="#5367F3"/>
</linearGradient>
<linearGradient id="paint11_linear_9_10836" x1="19.3854" y1="40.1417" x2="35.651" y2="34.2452" gradientUnits="userSpaceOnUse">
<stop stop-color="#AB7AF3"/>
<stop offset="1" stop-color="#5367F3"/>
</linearGradient>
<linearGradient id="paint12_linear_9_10836" x1="28.5926" y1="50.6954" x2="35.3489" y2="48.2462" gradientUnits="userSpaceOnUse">
<stop stop-color="#AB7AF3"/>
<stop offset="1" stop-color="#5367F3"/>
</linearGradient>
<linearGradient id="paint13_linear_9_10836" x1="18.5115" y1="59.7503" x2="85.1676" y2="59.7503" gradientUnits="userSpaceOnUse">
<stop stop-color="#AB7AF3"/>
<stop offset="1" stop-color="#5367F3"/>
</linearGradient>
<linearGradient id="paint14_linear_9_10836" x1="39.0078" y1="81.8948" x2="41.3038" y2="81.8948" gradientUnits="userSpaceOnUse">
<stop stop-color="#AB7AF3"/>
<stop offset="1" stop-color="#5367F3"/>
</linearGradient>
<linearGradient id="paint15_linear_9_10836" x1="75.5814" y1="95.8298" x2="79.7728" y2="95.8298" gradientUnits="userSpaceOnUse">
<stop stop-color="#AB7AF3"/>
<stop offset="1" stop-color="#5367F3"/>
</linearGradient>
<linearGradient id="paint16_linear_9_10836" x1="93.8015" y1="85.5549" x2="98.0462" y2="85.5549" gradientUnits="userSpaceOnUse">
<stop stop-color="#AB7AF3"/>
<stop offset="1" stop-color="#5367F3"/>
</linearGradient>
<linearGradient id="paint17_linear_9_10836" x1="74.647" y1="46.8026" x2="84.8985" y2="46.8026" gradientUnits="userSpaceOnUse">
<stop stop-color="#AB7AF3"/>
<stop offset="1" stop-color="#5367F3"/>
</linearGradient>
<linearGradient id="paint18_linear_9_10836" x1="51.6456" y1="34.0652" x2="74.9064" y2="34.0652" gradientUnits="userSpaceOnUse">
<stop stop-color="#AB7AF3"/>
<stop offset="1" stop-color="#5367F3"/>
</linearGradient>
<linearGradient id="paint19_linear_9_10836" x1="51.6456" y1="34.2994" x2="73.9692" y2="34.2994" gradientUnits="userSpaceOnUse">
<stop stop-color="#AB7AF3"/>
<stop offset="1" stop-color="#5367F3"/>
</linearGradient>
</defs>
</svg>
