<svg width="121" height="120" viewBox="0 0 121 120" fill="none" xmlns="http://www.w3.org/2000/svg">
<mask id="mask0_9_9162" style="mask-type:alpha" maskUnits="userSpaceOnUse" x="0" y="0" width="121" height="120">
<circle cx="60.5312" cy="60" r="60" fill="#D9D9D9"/>
</mask>
<g mask="url(#mask0_9_9162)">
<rect x="-42.4688" y="-31" width="189" height="157" fill="#CFDBE9"/>
<path d="M111.38 111.645L42.9331 112.67C41.2705 112.694 39.9058 111.368 39.879 109.705L38.3892 10.0323C38.3654 8.3697 39.6913 7.00505 41.3539 6.97823L109.801 5.95326C111.463 5.92942 112.828 7.25533 112.855 8.91794L114.345 108.591C114.369 110.253 113.043 111.618 111.38 111.645Z" fill="#E0E0E0"/>
<path d="M111.38 111.645C111.38 111.645 111.457 111.636 111.609 111.627C111.761 111.615 111.988 111.576 112.277 111.487C112.563 111.389 112.908 111.225 113.254 110.939C113.594 110.653 113.933 110.236 114.139 109.681C114.246 109.407 114.306 109.097 114.321 108.77C114.333 108.442 114.315 108.09 114.312 107.727C114.3 106.997 114.288 106.198 114.273 105.334C114.246 103.606 114.214 101.61 114.178 99.363C114.038 90.3766 113.835 77.3737 113.585 61.3079C113.463 53.2749 113.329 44.4762 113.183 35.028C113.111 30.3053 113.037 25.4188 112.959 20.3893C112.92 17.8745 112.882 15.321 112.843 12.7348C112.822 11.4416 112.801 10.1395 112.78 8.82853C112.76 8.18494 112.503 7.55923 112.089 7.06462C111.669 6.57597 111.088 6.21842 110.45 6.08732C110.132 6.01879 109.807 6.01879 109.473 6.02773C109.139 6.03369 108.806 6.03667 108.472 6.04263C107.804 6.05156 107.134 6.06348 106.461 6.07242C105.117 6.09328 103.764 6.11414 102.405 6.13499C99.6851 6.17671 96.935 6.21842 94.155 6.26014C88.5951 6.34356 82.919 6.42997 77.1386 6.51638C65.5809 6.68919 53.6149 6.86797 41.3569 7.0527C40.606 7.06164 39.8701 7.36854 39.3397 7.89294C38.8034 8.41437 38.4846 9.14437 38.4637 9.88628C38.4726 11.4029 38.5054 12.9255 38.5233 14.4391C38.568 17.4663 38.6127 20.4727 38.6574 23.4583C38.7468 29.4293 38.8332 35.311 38.9196 41.0914C39.0924 52.6522 39.2563 63.8047 39.4142 74.4269C39.5721 85.0491 39.7181 95.144 39.8581 104.592C39.876 105.772 39.8939 106.943 39.9088 108.105C39.9207 108.683 39.9207 109.267 39.9416 109.836C39.9684 110.399 40.171 110.948 40.4988 111.401C40.8265 111.853 41.2854 112.205 41.8008 112.411C42.06 112.512 42.3312 112.575 42.6053 112.604C42.8794 112.625 43.1595 112.613 43.4396 112.61C44.5569 112.595 45.6653 112.577 46.7618 112.563C51.1478 112.5 55.3549 112.437 59.3714 112.378C75.4373 112.148 88.4402 111.961 97.4236 111.833C101.917 111.77 105.403 111.722 107.769 111.693C108.952 111.678 109.851 111.666 110.459 111.66C111.07 111.645 111.38 111.645 111.38 111.645C111.38 111.645 111.07 111.654 110.462 111.666C109.854 111.678 108.955 111.693 107.772 111.713C105.406 111.752 101.917 111.809 97.4266 111.88C88.4402 112.02 75.4403 112.223 59.3744 112.473C55.3579 112.536 51.1507 112.598 46.7648 112.667C45.6683 112.685 44.5599 112.7 43.4426 112.718C43.1625 112.72 42.8824 112.732 42.5964 112.712C42.3103 112.682 42.0303 112.616 41.7621 112.512C41.2287 112.297 40.752 111.934 40.4094 111.463C40.0697 110.995 39.8581 110.423 39.8283 109.839C39.8075 109.261 39.8075 108.686 39.7956 108.105C39.7777 106.946 39.7598 105.775 39.7419 104.592C39.5989 95.144 39.444 85.0491 39.2831 74.4269C39.1222 63.8047 38.9553 52.6522 38.7795 41.0914C38.6931 35.311 38.6037 29.4293 38.5143 23.4583C38.4697 20.4727 38.425 17.4663 38.3803 14.4391C38.3624 12.9255 38.3266 11.4118 38.3207 9.88032C38.3415 9.09967 38.6812 8.33392 39.2414 7.78866C39.7985 7.23744 40.5732 6.91564 41.3598 6.9067C53.6178 6.72495 65.5838 6.54617 77.1416 6.37336C82.922 6.28695 88.5981 6.20352 94.158 6.1201C96.9379 6.07838 99.6881 6.03667 102.408 5.99793C103.767 5.97708 105.12 5.9592 106.464 5.93834C107.137 5.9294 107.804 5.91748 108.475 5.90854C108.809 5.90259 109.142 5.89961 109.476 5.89365C109.804 5.88471 110.152 5.88471 110.483 5.95622C111.151 6.09328 111.755 6.46573 112.193 6.97821C112.625 7.49666 112.891 8.15217 112.914 8.82257C112.935 10.1336 112.956 11.4386 112.977 12.7318C113.016 15.3181 113.052 17.8716 113.09 20.3893C113.165 25.4218 113.236 30.3053 113.305 35.028C113.442 44.4732 113.573 53.2749 113.689 61.3079C113.919 77.3737 114.106 90.3766 114.234 99.363C114.264 101.61 114.294 103.606 114.318 105.334C114.33 106.198 114.342 106.997 114.351 107.727C114.351 108.093 114.368 108.439 114.357 108.77C114.339 109.1 114.279 109.413 114.169 109.69C113.96 110.247 113.615 110.668 113.272 110.954C112.923 111.24 112.575 111.404 112.286 111.499C111.994 111.585 111.767 111.621 111.612 111.633C111.457 111.642 111.38 111.645 111.38 111.645Z" fill="#263238"/>
<g opacity="0.3">
<path d="M46.9495 109.982L109.384 108.707L109.92 96.6338L107.897 89.3845L46.2314 99.9679L46.9495 109.982Z" fill="black"/>
</g>
<path d="M111.38 111.645C111.38 111.645 111.457 111.636 111.609 111.627C111.761 111.615 111.988 111.576 112.277 111.487C112.563 111.389 112.908 111.225 113.254 110.939C113.594 110.653 113.933 110.236 114.139 109.681C114.246 109.407 114.306 109.097 114.321 108.77C114.333 108.442 114.315 108.09 114.312 107.727C114.3 106.997 114.288 106.198 114.273 105.334C114.246 103.606 114.214 101.61 114.178 99.363C114.038 90.3766 113.835 77.3737 113.585 61.3079C113.463 53.2749 113.329 44.4762 113.183 35.028C113.111 30.3053 113.037 25.4188 112.959 20.3893C112.92 17.8745 112.882 15.321 112.843 12.7348C112.822 11.4416 112.801 10.1395 112.78 8.82853C112.76 8.18494 112.503 7.55923 112.089 7.06462C111.669 6.57597 111.088 6.21842 110.45 6.08732C110.132 6.01879 109.807 6.01879 109.473 6.02773C109.139 6.03369 108.806 6.03667 108.472 6.04263C107.804 6.05156 107.134 6.06348 106.461 6.07242C105.117 6.09328 103.764 6.11414 102.405 6.13499C99.6851 6.17671 96.935 6.21842 94.155 6.26014C88.5951 6.34356 82.919 6.42997 77.1386 6.51638C65.5809 6.68919 53.6149 6.86797 41.3569 7.0527C40.606 7.06164 39.8701 7.36854 39.3397 7.89294C38.8034 8.41437 38.4846 9.14437 38.4637 9.88628C38.4726 11.4029 38.5054 12.9255 38.5233 14.4391C38.568 17.4663 38.6127 20.4727 38.6574 23.4583C38.7468 29.4293 38.8332 35.311 38.9196 41.0914C39.0924 52.6522 39.2563 63.8047 39.4142 74.4269C39.5721 85.0491 39.7181 95.144 39.8581 104.592C39.876 105.772 39.8939 106.943 39.9088 108.105C39.9207 108.683 39.9207 109.267 39.9416 109.836C39.9684 110.399 40.171 110.948 40.4988 111.401C40.8265 111.853 41.2854 112.205 41.8008 112.411C42.06 112.512 42.3312 112.575 42.6053 112.604C42.8794 112.625 43.1595 112.613 43.4396 112.61C44.5569 112.595 45.6653 112.577 46.7618 112.563C51.1478 112.5 55.3549 112.437 59.3714 112.378C75.4373 112.148 88.4402 111.961 97.4236 111.833C101.917 111.77 105.403 111.722 107.769 111.693C108.952 111.678 109.851 111.666 110.459 111.66C111.07 111.645 111.38 111.645 111.38 111.645C111.38 111.645 111.07 111.654 110.462 111.666C109.854 111.678 108.955 111.693 107.772 111.713C105.406 111.752 101.917 111.809 97.4266 111.88C88.4402 112.02 75.4403 112.223 59.3744 112.473C55.3579 112.536 51.1507 112.598 46.7648 112.667C45.6683 112.685 44.5599 112.7 43.4426 112.718C43.1625 112.72 42.8824 112.732 42.5964 112.712C42.3103 112.682 42.0303 112.616 41.7621 112.512C41.2287 112.297 40.752 111.934 40.4094 111.463C40.0697 110.995 39.8581 110.423 39.8283 109.839C39.8075 109.261 39.8075 108.686 39.7956 108.105C39.7777 106.946 39.7598 105.775 39.7419 104.592C39.5989 95.144 39.444 85.0491 39.2831 74.4269C39.1222 63.8047 38.9553 52.6522 38.7795 41.0914C38.6931 35.311 38.6037 29.4293 38.5143 23.4583C38.4697 20.4727 38.425 17.4663 38.3803 14.4391C38.3624 12.9255 38.3266 11.4118 38.3207 9.88032C38.3415 9.09967 38.6812 8.33392 39.2414 7.78866C39.7985 7.23744 40.5732 6.91564 41.3598 6.9067C53.6178 6.72495 65.5838 6.54617 77.1416 6.37336C82.922 6.28695 88.5981 6.20352 94.158 6.1201C96.9379 6.07838 99.6881 6.03667 102.408 5.99793C103.767 5.97708 105.12 5.9592 106.464 5.93834C107.137 5.9294 107.804 5.91748 108.475 5.90854C108.809 5.90259 109.142 5.89961 109.476 5.89365C109.804 5.88471 110.152 5.88471 110.483 5.95622C111.151 6.09328 111.755 6.46573 112.193 6.97821C112.625 7.49666 112.891 8.15217 112.914 8.82257C112.935 10.1336 112.956 11.4386 112.977 12.7318C113.016 15.3181 113.052 17.8716 113.09 20.3893C113.165 25.4218 113.236 30.3053 113.305 35.028C113.442 44.4732 113.573 53.2749 113.689 61.3079C113.919 77.3737 114.106 90.3766 114.234 99.363C114.264 101.61 114.294 103.606 114.318 105.334C114.33 106.198 114.342 106.997 114.351 107.727C114.351 108.093 114.368 108.439 114.357 108.77C114.339 109.1 114.279 109.413 114.169 109.69C113.96 110.247 113.615 110.668 113.272 110.954C112.923 111.24 112.575 111.404 112.286 111.499C111.994 111.585 111.767 111.621 111.612 111.633C111.457 111.642 111.38 111.645 111.38 111.645Z" fill="#263238"/>
<g opacity="0.3">
<path d="M46.9495 109.982L109.384 108.707L109.92 96.6338L107.897 89.3845L46.2314 99.9679L46.9495 109.982Z" fill="black"/>
</g>
<path d="M109.104 10.2176L42.1779 11.2216L43.6247 107.664L110.551 106.66L109.104 10.2176Z" fill="#EFF6FE"/>
<path d="M110.546 106.666C110.537 106.112 109.929 67.1419 109.041 10.2259L109.104 10.2885C88.8037 10.5954 66.0934 10.9351 42.1852 11.2956H42.1763L42.2448 11.2271C42.7811 47.4439 43.2757 80.9045 43.675 107.67L43.6184 107.616C84.3254 107.035 110.093 106.672 110.546 106.666C110.093 106.672 84.3254 107.08 43.6214 107.721H43.5677V107.664C43.1625 80.8986 42.659 47.4379 42.1107 11.2211V11.1526H42.1792H42.1882C66.0963 10.798 88.8067 10.4583 109.107 10.1574H109.169V10.22C109.98 67.1389 110.537 106.109 110.546 106.666Z" fill="#263238"/>
<path d="M61.0005 34.5407L46.3633 34.7603L46.4098 37.8588L61.047 37.6392L61.0005 34.5407Z" fill="#E0E0E0"/>
<path d="M92.0051 27.3172L62.6652 27.7573L62.7116 30.8558L92.0516 30.4156L92.0051 27.3172Z" fill="#F5F5F5"/>
<path d="M60.0764 27.7346L46.1185 27.944L46.165 31.0424L60.1229 30.833L60.0764 27.7346Z" fill="#F5F5F5"/>
<path d="M104.3 27.1228L93.6819 27.2821L93.7284 30.3806L104.347 30.2213L104.3 27.1228Z" fill="#F5F5F5"/>
<path d="M101.82 79.4787L82.946 79.7618L82.9989 83.2923L101.873 83.0091L101.82 79.4787Z" fill="#E0E0E0"/>
<path d="M104.31 41.6614L46.4135 42.53L46.4664 46.0604L104.363 45.1919L104.31 41.6614Z" fill="#E0E0E0"/>
<path d="M103.344 49.7233C103.344 49.765 90.8685 49.9884 75.485 50.2179C60.0925 50.4473 47.6199 50.5992 47.6199 50.5575C47.6199 50.5158 60.0925 50.2924 75.482 50.0629C90.8656 49.8305 103.341 49.6786 103.344 49.7233Z" fill="#263238"/>
<path d="M91.2678 24.364C91.2678 24.4057 84.2718 24.5458 75.6429 24.6739C67.0111 24.802 60.015 24.8735 60.015 24.8288C60.015 24.7871 67.0081 24.6471 75.6399 24.519C84.2688 24.3908 91.2678 24.3223 91.2678 24.364Z" fill="#263238"/>
<path d="M103.389 52.7862C103.389 52.8279 90.9132 53.0514 75.5296 53.2808C60.1371 53.5102 47.6646 53.6622 47.6646 53.6205C47.6646 53.5788 60.1371 53.3553 75.5267 53.1259C90.9132 52.8964 103.389 52.7445 103.389 52.7862Z" fill="#263238"/>
<path d="M103.433 55.8523C103.433 55.894 90.958 56.1175 75.5744 56.3469C60.1819 56.5763 47.7094 56.7283 47.7094 56.6866C47.7094 56.6448 60.1819 56.4214 75.5714 56.192C90.958 55.9595 103.433 55.8076 103.433 55.8523Z" fill="#263238"/>
<path d="M72.6097 59.377C72.6097 59.4187 67.0468 59.5379 60.1848 59.6392C53.3199 59.7405 47.757 59.7912 47.757 59.7465C47.757 59.7048 53.3199 59.5856 60.1819 59.4843C67.0438 59.383 72.6097 59.3353 72.6097 59.377Z" fill="#263238"/>
<path d="M103.526 61.9812C103.526 62.023 91.0503 62.2464 75.6667 62.4759C60.2742 62.7053 47.8017 62.8572 47.8017 62.8155C47.8017 62.7738 60.2742 62.5503 75.6637 62.3209C91.0503 62.0885 103.526 61.9366 103.526 61.9812Z" fill="#263238"/>
<path d="M103.57 65.0442C103.57 65.086 91.095 65.3094 75.7114 65.5389C60.3219 65.7683 47.8464 65.9202 47.8464 65.8785C47.8464 65.8368 60.3189 65.6133 75.7084 65.3839C91.095 65.1545 103.57 65.0025 103.57 65.0442Z" fill="#263238"/>
<path d="M92.5491 68.2741C92.5491 68.3158 82.5526 68.5005 70.2231 68.6853C57.8876 68.87 47.8941 68.9832 47.8911 68.9415C47.8911 68.8998 57.8846 68.7151 70.2201 68.5303C82.5526 68.3456 92.5491 68.2324 92.5491 68.2741Z" fill="#263238"/>
<path d="M103.663 71.1732C103.663 71.2149 91.1874 71.4384 75.8038 71.6678C60.4143 71.8973 47.9388 72.0492 47.9388 72.0075C47.9388 71.9658 60.4113 71.7423 75.8008 71.5129C91.1874 71.2835 103.663 71.1315 103.663 71.1732Z" fill="#263238"/>
<path d="M103.711 74.2392C103.711 74.2809 91.235 74.5044 75.8515 74.7338C60.4619 74.9632 47.9865 75.1152 47.9865 75.0735C47.9865 75.0318 60.459 74.8083 75.8485 74.5789C91.2321 74.3464 103.708 74.1945 103.711 74.2392Z" fill="#263238"/>
<path d="M94.4738 13.5064L60.158 14.0189L60.0388 5.9502C60.0239 4.91033 60.8552 4.05221 61.8951 4.03731L92.4418 3.58143C93.4816 3.56654 94.3398 4.39784 94.3546 5.43771L94.4738 13.5064Z" fill="#263238"/>
<path d="M81.4799 0L72.7467 0.131102L73.8789 7.60091L80.4579 7.50258L81.4799 0Z" fill="#263238"/>
<path d="M92.123 3.58444C92.123 3.62317 85.4278 3.75725 77.1714 3.87942C68.912 4.00158 62.2169 4.07011 62.2169 4.03138C62.2169 3.99264 68.9091 3.85856 77.1714 3.7364C85.4249 3.61423 92.12 3.5457 92.123 3.58444Z" fill="#455A64"/>
<path d="M60.9029 12.401C60.8641 12.401 60.8105 10.9946 60.7837 9.25752C60.7569 7.52042 60.7688 6.11108 60.8075 6.11108C60.8463 6.11108 60.8999 7.51745 60.9267 9.25454C60.9535 10.9916 60.9416 12.401 60.9029 12.401Z" fill="#455A64"/>
<path d="M93.3296 11.1705C93.2909 11.1705 93.2373 9.89223 93.2134 8.31604C93.1896 6.73984 93.2015 5.4616 93.2432 5.45862C93.282 5.45862 93.3356 6.73686 93.3565 8.31306C93.3833 9.89223 93.3684 11.1705 93.3296 11.1705Z" fill="#455A64"/>
<path d="M91.6939 12.5202C91.6939 12.5589 84.8229 12.696 76.346 12.8211C67.8662 12.9492 60.9952 13.0178 60.9952 12.979C60.9952 12.9403 67.8662 12.8032 76.346 12.6781C84.82 12.55 91.6939 12.4815 91.6939 12.5202Z" fill="#455A64"/>
<g opacity="0.3">
<path d="M94.3695 6.40015L95.8534 10.5894L95.8832 12.6543L94.2802 12.6781L94.3695 6.40015Z" fill="black"/>
</g>
<g opacity="0.3">
<path d="M54.6279 92.5696L54.8931 96.1808C54.8931 96.1808 62.9261 96.2941 66.6297 95.7131L66.5403 97.9835L74.5941 91.2169L63.8736 90.7968L54.6279 92.5696Z" fill="black"/>
</g>
<path d="M53.4063 95.3882L52.9266 85.6897C57.8757 86.7981 62.9559 87.3881 68.8316 86.8756L69.2428 95.0813C63.9779 95.5789 58.7011 95.8203 53.4063 95.3882Z" fill="#8071F3"/>
<path d="M67.0915 90.9218L67.0677 84.6141L71.0335 87.7545L74.9963 90.895L71.0544 94.0623L67.1124 97.2326L67.0915 90.9218Z" fill="#8071F3"/>
<path d="M100.233 87.3911C100.233 87.3911 100.287 87.3941 100.391 87.409C100.502 87.4239 100.653 87.4477 100.85 87.4775C101.252 87.543 101.848 87.6354 102.596 87.8499C102.969 87.9602 103.38 88.1002 103.803 88.3147C104.226 88.5233 104.664 88.8123 105.057 89.2056C105.451 89.596 105.805 90.0936 106.005 90.6954C106.21 91.2943 106.219 92.0064 105.954 92.6649C105.695 93.3234 105.203 93.9015 104.619 94.3841C104.029 94.8668 103.344 95.278 102.611 95.6296C101.157 96.3686 99.5182 96.9972 97.7365 97.4442C94.1848 98.3381 90.0223 98.4751 85.9135 97.3995C85.401 97.2654 84.8974 97.1075 84.3999 96.9496C83.9052 96.7797 83.4196 96.5831 82.9607 96.3388C82.5019 96.0944 82.0668 95.8084 81.6884 95.4568C81.316 95.1022 81.0031 94.6821 80.8065 94.2084C80.6128 93.7346 80.5502 93.2191 80.5949 92.7215C80.6426 92.224 80.7946 91.7472 81.0121 91.3122C81.4471 90.4332 82.1682 89.7598 82.9309 89.2503C83.7026 88.7408 84.522 88.3654 85.3265 88.0406C86.128 87.701 86.9295 87.4388 87.7102 87.1974C89.2774 86.7356 90.7791 86.4644 92.1557 86.3184C93.5352 86.1724 94.7926 86.1516 95.8921 86.1963C96.9916 86.2559 97.9361 86.3542 98.7018 86.4823C99.0862 86.533 99.4229 86.6134 99.7149 86.667C100.007 86.7207 100.254 86.7832 100.451 86.8309C100.645 86.8786 100.794 86.9173 100.901 86.9441C101.002 86.971 101.053 86.9888 101.053 86.9888C101.053 86.9888 100.999 86.9829 100.898 86.959C100.791 86.9352 100.639 86.9024 100.445 86.8607C100.245 86.816 100.001 86.7594 99.706 86.7117C99.411 86.6611 99.0773 86.5866 98.6929 86.5419C97.9301 86.4227 96.9856 86.3333 95.8891 86.2827C94.7926 86.2439 93.5382 86.2737 92.1676 86.4287C90.797 86.5836 89.3013 86.8607 87.7459 87.3226C86.9712 87.5669 86.1727 87.8291 85.3772 88.1688C84.5757 88.4935 83.7652 88.869 83.0084 89.3725C82.2575 89.8761 81.5603 90.5316 81.1402 91.3807C80.7141 92.215 80.5622 93.2489 80.9406 94.1547C81.1283 94.6046 81.4233 95.0069 81.7868 95.3495C82.1503 95.6892 82.5764 95.9693 83.0263 96.2077C83.4762 96.446 83.9529 96.6427 84.4445 96.8095C84.9392 96.9674 85.4397 97.1254 85.9492 97.2565C90.0313 98.3261 94.1639 98.1921 97.6977 97.3131C99.4676 96.8721 101.097 96.2523 102.548 95.5224C103.281 95.1737 103.958 94.7715 104.539 94.2977C105.117 93.824 105.597 93.2638 105.847 92.6292C106.106 91.9975 106.097 91.3122 105.903 90.7312C105.713 90.1472 105.37 89.6556 104.989 89.2712C104.217 88.4905 103.302 88.139 102.572 87.9125C101.833 87.692 101.237 87.5907 100.838 87.5132C100.642 87.4775 100.49 87.4507 100.382 87.4298C100.284 87.403 100.233 87.3911 100.233 87.3911Z" fill="#263238"/>
<path d="M20.4462 35.1083L19.8682 32.96C20.6071 31.7384 20.9944 30.2814 20.8782 28.7261C20.622 25.2221 17.7765 22.3795 14.2725 22.1322C9.86869 21.8224 6.25148 25.4932 6.62989 29.8911C6.93083 33.4189 9.85677 36.2286 13.3906 36.4014C15.1992 36.4908 16.8647 35.9068 18.1668 34.8819L18.1638 34.8848L20.4462 35.1083Z" fill="#EFF6FE"/>
<path d="M20.4462 35.1084C20.4462 35.1084 20.3926 35.0995 20.2913 35.0875C20.184 35.0756 20.038 35.0577 19.8503 35.0369C19.46 34.9952 18.8968 34.9326 18.1639 34.8492L18.1877 34.9028L18.1907 34.8998C18.2026 34.8849 18.1996 34.8641 18.1847 34.8521C18.1728 34.8432 18.1549 34.8432 18.143 34.8521C17.4219 35.4093 16.3523 36.0172 14.9548 36.2525C14.2606 36.3747 13.4889 36.3836 12.6874 36.2615C11.8859 36.1393 11.0546 35.8712 10.268 35.4242C9.48136 34.9773 8.7454 34.3546 8.14651 33.5739C7.54761 32.7933 7.08875 31.8547 6.85337 30.8267C6.37664 28.7798 6.88316 26.3514 8.43552 24.6113L8.72752 24.2866L9.04634 23.9916C9.24895 23.786 9.49626 23.634 9.71674 23.4553C10.1935 23.1394 10.6881 22.8593 11.2125 22.6686C12.2553 22.2664 13.3667 22.1264 14.4215 22.2217C15.4763 22.326 16.4715 22.6627 17.3236 23.1662C18.1788 23.6668 18.8909 24.3253 19.4302 25.0523C20.5177 26.5153 20.9051 28.2077 20.8306 29.614C20.768 31.0323 20.2972 32.1675 19.8324 32.9452C19.8324 32.9542 19.8294 32.9631 19.8294 32.972C20.0231 33.6573 20.1721 34.1877 20.2764 34.5542C20.327 34.73 20.3658 34.867 20.3956 34.9683C20.4283 35.0577 20.4462 35.1084 20.4462 35.1084C20.4492 35.1114 20.4373 35.0667 20.4164 34.9743C20.3926 34.876 20.3568 34.7389 20.3151 34.5661C20.2198 34.1907 20.0797 33.6514 19.9009 32.9512L19.898 32.978C20.3777 32.2003 20.8663 31.0562 20.9438 29.617C21.0272 28.1928 20.6458 26.4676 19.5464 24.9719C18.9981 24.2299 18.2741 23.5536 17.4041 23.0411C16.537 22.5286 15.521 22.177 14.4424 22.0697C13.3637 21.9714 12.2315 22.1115 11.1618 22.5226C10.6225 22.7163 10.119 23.0053 9.63034 23.3271C9.40389 23.5089 9.15062 23.6668 8.94205 23.8754L8.61728 24.1763L8.31932 24.507C6.73418 26.2829 6.21872 28.7678 6.71035 30.8565C6.95169 31.9053 7.42247 32.8648 8.03626 33.6573C8.65005 34.4529 9.40389 35.0875 10.2054 35.5374C11.0069 35.9903 11.8561 36.2585 12.6695 36.3777C13.4859 36.4969 14.2695 36.485 14.9727 36.3539C16.391 36.1036 17.4666 35.4779 18.1847 34.9028L18.137 34.8581V34.8611C18.1251 34.876 18.1281 34.8968 18.143 34.9088C18.149 34.9117 18.1549 34.9147 18.1609 34.9147C18.9028 34.9803 19.4778 35.0279 19.8741 35.0637C20.0589 35.0786 20.2019 35.0905 20.3062 35.0995C20.3985 35.1054 20.4462 35.1084 20.4462 35.1084Z" fill="#263238"/>
<path d="M13.6111 32.7157L9.85382 30.2039L10.7298 28.89L13.2505 30.5764L16.3851 26.4258L17.6454 27.3793L13.6111 32.7157Z" fill="#27AE60"/>
<path d="M37.2451 119.27L36.8131 125.187C36.8131 125.187 43.0255 127.592 43.0553 128.691L30.9016 128.31L31.1757 119.061L37.2451 119.27Z" fill="#263238"/>
<path d="M22.7406 119.174L22.383 126.343L23.8281 132.091C23.9324 132.505 23.6434 132.916 23.1994 132.988C22.9521 133.026 22.6988 132.952 22.523 132.782C21.3938 131.706 17.2581 127.726 17.3147 127.201C17.3803 126.596 17.1628 119.615 17.1628 119.615L22.7406 119.174Z" fill="#263238"/>
<path d="M40.6746 70.8574C40.6746 70.8574 41.7383 74.1975 41.5774 78.3242C41.5149 79.9213 37.6891 124.165 37.6891 124.165L30.0286 124.454L30.4428 82.9903L29.82 83.1422C29.82 83.1422 26.3786 100.948 26.1581 103.821C25.9585 106.401 23.2143 125.193 23.2143 125.193L16.2123 125.533L17.4131 100.766L19.022 76.9864L19.7133 70.0559L40.6746 70.8574Z" fill="#263238"/>
<path d="M30.7526 80.6513C30.7497 80.6542 30.7675 80.6721 30.8033 80.7019C30.842 80.7287 30.9046 80.7645 30.991 80.7824C31.1638 80.8241 31.4499 80.7883 31.7031 80.5827C31.9683 80.3801 32.1173 79.9928 32.156 79.5846C32.1948 79.1704 32.1858 78.7265 32.1977 78.2587C32.2126 77.3201 32.2156 76.4709 32.2126 75.8571C32.2097 75.2433 32.1948 74.8619 32.1739 74.8619C32.153 74.8619 32.1292 75.2403 32.1083 75.8571C32.0845 76.4709 32.0666 77.3201 32.0517 78.2587C32.0398 78.7265 32.0517 79.1794 32.0219 79.5756C31.9921 79.9689 31.864 80.3205 31.6376 80.5082C31.4171 80.7019 31.1608 80.7526 31.0029 80.7317C30.839 80.7049 30.7616 80.6364 30.7526 80.6513Z" fill="#455A64"/>
<path d="M19.4273 76.6437C19.4243 76.6527 19.5018 76.6795 19.6418 76.7122C19.7818 76.745 19.9904 76.7778 20.2526 76.7897C20.7711 76.8195 21.507 76.7391 22.24 76.4113C22.973 76.0836 23.5212 75.583 23.843 75.1778C24.0069 74.9751 24.1201 74.7994 24.1916 74.6712C24.2631 74.5431 24.2929 74.4686 24.284 74.4656C24.2631 74.4537 24.1052 74.7308 23.7655 75.1122C23.4288 75.4906 22.8895 75.9614 22.1804 76.2772C21.4742 76.5931 20.7651 76.6854 20.2556 76.6854C19.7431 76.6854 19.4302 76.6199 19.4273 76.6437Z" fill="#455A64"/>
<path d="M38.3654 73.9621C38.3506 73.9651 38.3744 74.2601 38.5114 74.7189C38.6455 75.1748 38.9137 75.7916 39.3398 76.3845C39.7688 76.9774 40.2694 77.4214 40.6627 77.6925C41.056 77.9667 41.3272 78.0799 41.3361 78.068C41.3689 78.0292 40.2992 77.4721 39.4619 76.2981C38.6068 75.1361 38.4131 73.9442 38.3654 73.9621Z" fill="#455A64"/>
<path d="M36.5211 26.3067C37.2064 26.3663 37.8917 25.8478 38.0228 25.1745C38.1509 24.5011 37.704 23.7651 37.0455 23.5685C37.4597 23.1245 37.5461 22.4064 37.2541 21.8761C36.9621 21.3427 36.3096 21.0328 35.7136 21.1431C35.6749 20.5442 35.3025 19.9781 34.7661 19.7069C34.2328 19.4328 33.5564 19.4626 33.0469 19.7814C32.3706 19.2302 31.3009 19.2362 30.6305 19.7933C30.0465 19.701 29.4178 20.0257 29.1586 20.5591C28.8993 21.0924 29.0275 21.7867 29.4595 22.1919" fill="#263238"/>
<path d="M30.3653 21.1817L30.6722 21.1758C33.7709 21.1013 36.4078 23.4164 36.7296 26.5003C37.0306 29.3666 37.3256 32.5369 37.3434 34.0803C37.3822 37.2714 34.203 37.8435 34.203 37.8435L34.5665 41.6693L26.8166 41.6157L25.7976 27.7308C25.4311 24.4235 27.052 21.4558 30.3653 21.1817Z" fill="#FFA8A7"/>
<path d="M34.2297 37.8377C34.2297 37.8377 32.1947 38.0105 30.0196 36.7144C30.0196 36.7144 31.0595 38.9878 34.2357 38.6243L34.2297 37.8377Z" fill="#6F4439"/>
<path d="M35.5318 29.6676C35.5467 29.909 35.3531 30.1176 35.1028 30.1384C34.8525 30.1593 34.638 29.9805 34.6231 29.7392C34.6082 29.4978 34.8018 29.2892 35.0521 29.2684C35.3024 29.2505 35.5169 29.4293 35.5318 29.6676Z" fill="#263238"/>
<path d="M36.0831 28.0765C36.0295 28.1361 35.6779 27.8887 35.1862 27.9036C34.6976 27.9096 34.343 28.1718 34.2894 28.1122C34.2626 28.0854 34.3162 27.9781 34.4711 27.859C34.6231 27.7427 34.8823 27.6236 35.1892 27.6176C35.4931 27.6116 35.7553 27.7189 35.9043 27.8292C36.0563 27.9424 36.1099 28.0496 36.0831 28.0765Z" fill="#263238"/>
<path d="M31.0536 29.6527C31.0685 29.8941 30.8748 30.1027 30.6245 30.1235C30.3742 30.1444 30.1597 29.9656 30.1448 29.7243C30.1299 29.4829 30.3236 29.2743 30.5738 29.2535C30.8241 29.2326 31.0387 29.4114 31.0536 29.6527Z" fill="#263238"/>
<path d="M31.2651 28.285C31.2115 28.3446 30.8569 28.0973 30.3682 28.1122C29.8796 28.1182 29.525 28.3804 29.4714 28.3208C29.4446 28.294 29.4982 28.1867 29.6531 28.0675C29.8051 27.9513 30.0643 27.8321 30.3712 27.8262C30.6781 27.8202 30.9373 27.9275 31.0863 28.0377C31.2383 28.1509 31.2919 28.2552 31.2651 28.285Z" fill="#263238"/>
<path d="M33.1333 31.8755C33.1303 31.8487 33.4342 31.7891 33.9259 31.7116C34.051 31.6967 34.1702 31.6669 34.1881 31.5835C34.2149 31.4911 34.1613 31.36 34.0957 31.214C33.9706 30.9131 33.8395 30.6002 33.7024 30.2695C33.1542 28.9257 32.7579 27.8173 32.8115 27.7964C32.8651 27.7756 33.3538 28.8482 33.899 30.192C34.0301 30.5228 34.1583 30.8386 34.2775 31.1425C34.3281 31.2825 34.4145 31.4434 34.3549 31.6312C34.3221 31.7265 34.2328 31.795 34.1523 31.8189C34.0719 31.8457 34.0033 31.8487 33.9408 31.8546C33.4432 31.8963 33.1363 31.9053 33.1333 31.8755Z" fill="#263238"/>
<path d="M31.6465 26.3871C31.5839 26.5122 31.1608 26.3871 30.6424 26.3841C30.1239 26.3692 29.6919 26.4765 29.6412 26.3484C29.6204 26.2888 29.7098 26.1726 29.8915 26.0683C30.0733 25.964 30.3533 25.8806 30.6632 25.8865C30.9731 25.8925 31.2442 25.9878 31.417 26.0981C31.5928 26.2083 31.6733 26.3275 31.6465 26.3871Z" fill="#263238"/>
<path d="M36.0562 26.0534C35.9549 26.1666 35.5497 26.0623 35.0611 26.0683C34.5754 26.0593 34.1642 26.1636 34.0659 26.0504C34.0242 25.9938 34.0838 25.8806 34.2625 25.7733C34.4383 25.663 34.7333 25.5707 35.067 25.5707C35.4007 25.5707 35.6927 25.666 35.8656 25.7763C36.0414 25.8865 36.1009 25.9997 36.0562 26.0534Z" fill="#263238"/>
<path d="M36.3899 25.0433C36.3899 25.0433 35.499 23.0649 34.5247 22.6239C33.3448 22.0876 32.874 23.3807 31.7537 23.0947C30.6334 22.8116 29.5071 22.2961 28.3927 23.1811C27.1711 24.1524 27.77 24.796 27.7283 26.2143C27.5555 31.9619 26.5454 33.6096 26.1819 30.9131C26.1432 30.6181 25.3148 30.4006 25.1629 29.1521C24.9662 27.5342 24.856 25.5647 25.1897 24.4057C25.4728 23.4284 26.0091 22.7431 26.9834 21.9803C28.5209 20.7765 30.6721 20.6991 32.1381 20.8093C33.604 20.9255 36.4614 22.5375 36.3899 25.0433Z" fill="#263238"/>
<path d="M26.3845 30.8237C26.3518 30.3321 25.9197 29.9537 25.4281 30.0103C24.8352 30.0818 24.1796 30.4364 24.2482 31.664C24.3703 33.8421 26.5335 33.27 26.5335 33.2074C26.5365 33.1657 26.4441 31.7355 26.3845 30.8237Z" fill="#FFA8A7"/>
<path d="M26.0151 32.4148C26.0061 32.4088 25.9793 32.4446 25.9167 32.4774C25.8572 32.5101 25.7499 32.534 25.6337 32.4982C25.3983 32.4267 25.1838 32.0721 25.151 31.6788C25.1331 31.4822 25.1659 31.2885 25.2255 31.1306C25.2821 30.9667 25.3804 30.8505 25.4936 30.8237C25.6069 30.7909 25.6933 30.8565 25.7231 30.9161C25.7559 30.9757 25.7439 31.0203 25.7558 31.0233C25.7618 31.0293 25.8005 30.9846 25.7767 30.8952C25.7648 30.8535 25.738 30.8028 25.6843 30.7641C25.6307 30.7254 25.5503 30.7075 25.4698 30.7194C25.303 30.7403 25.1599 30.9041 25.0914 31.0799C25.0139 31.2587 24.9752 31.4732 24.9931 31.6937C25.0318 32.1317 25.2791 32.531 25.6009 32.6025C25.7558 32.6353 25.881 32.5816 25.9436 32.525C26.0151 32.4684 26.024 32.4178 26.0151 32.4148Z" fill="#6F4439"/>
<path d="M26.325 26.5957C26.614 26.7834 26.9179 26.9741 27.2605 27.0009C27.6032 27.0277 27.9876 26.8221 28.0382 26.4825C28.0591 26.3305 28.0203 26.1547 28.1157 26.0355C28.2319 25.8925 28.4524 25.9313 28.6341 25.9462C29.2688 25.9968 29.9928 25.2787 30.1418 24.659C30.3087 24.8973 30.6662 24.9629 30.9075 24.799C31.1489 24.6351 31.2353 24.5428 31.423 24.3193C31.6107 24.0958 31.8729 23.8932 32.162 23.926C32.3228 23.9439 32.4778 24.0362 32.6387 24.0184C32.9247 23.9856 33.0558 23.6459 33.0916 23.3629C33.1273 23.0768 33.1542 22.7461 33.3925 22.5852C33.613 22.4362 33.908 22.5137 34.1732 22.5435C34.4383 22.5762 34.778 22.5047 34.8376 22.2455C34.8704 22.1085 34.8078 21.9684 34.7303 21.8522C34.3788 21.3248 33.6309 21.1073 33.0499 21.3576C32.8204 20.6425 32.1322 20.0972 31.3813 20.0376C30.6304 19.9781 29.8647 20.4041 29.522 21.0716C29.0513 20.6634 28.3779 20.5054 27.773 20.6574C27.1682 20.8094 26.6527 21.2712 26.4322 21.8552C25.8989 21.7271 25.297 21.9476 24.9722 22.3885C24.6475 22.8295 24.6147 23.4671 24.8918 23.9409C24.5044 24.1733 24.1797 24.5726 24.1826 25.0225C24.1856 25.4754 24.6355 25.9134 25.0676 25.7853C24.9007 26.1398 25.0557 26.6136 25.4013 26.8043C25.7469 26.992 26.2296 26.8668 26.4382 26.5331" fill="#263238"/>
<path d="M33.2256 21.9953C33.2286 21.9953 33.2286 22.0102 33.2256 22.034C33.2227 22.0608 33.2227 22.0996 33.2137 22.1502C33.1959 22.2515 33.1601 22.4005 33.0647 22.5733C32.9694 22.7432 32.8234 22.9398 32.594 23.1007C32.3705 23.2616 32.0606 23.3868 31.7061 23.3778L31.7418 23.3272C31.8133 23.5119 31.8014 23.7354 31.712 23.929C31.6286 24.1257 31.4945 24.3015 31.3515 24.4743C31.277 24.5577 31.2144 24.6531 31.1131 24.7305C31.0148 24.805 30.8926 24.8497 30.7705 24.8676C30.5261 24.9063 30.2461 24.8348 30.0613 24.6322L30.1418 24.6084C30.0971 25.0434 29.8617 25.4844 29.4744 25.7585C29.2717 25.9134 29.0155 26.0118 28.7622 26.0118C28.509 26.0147 28.2736 25.9462 28.0531 25.8747L28.1097 25.8479C27.9995 26.122 27.8237 26.3574 27.6091 26.5332C27.3976 26.709 27.1145 26.8162 26.8553 26.7596C26.3369 26.6643 25.9853 26.2442 25.9078 25.8419L25.9585 25.8628C25.7052 26.0088 25.4311 26.0267 25.2106 25.9909C24.9871 25.9552 24.8083 25.8628 24.6832 25.7704C24.5551 25.6751 24.4806 25.5767 24.4329 25.5112C24.3912 25.4397 24.3733 25.4009 24.3763 25.4009C24.3882 25.392 24.4538 25.5648 24.707 25.7436C24.8322 25.83 25.008 25.9134 25.2225 25.9432C25.434 25.973 25.6933 25.9492 25.9257 25.8092L25.9674 25.7853L25.9763 25.83C26.0538 26.2054 26.3935 26.5958 26.8732 26.6792C27.1086 26.7298 27.3589 26.6345 27.5585 26.4676C27.7581 26.3008 27.925 26.0743 28.0293 25.8181L28.0442 25.7764L28.0859 25.7913C28.3034 25.8628 28.5298 25.9254 28.7652 25.9224C28.9976 25.9224 29.2271 25.836 29.4207 25.687C29.7842 25.4278 30.0077 25.0166 30.0524 24.6054L30.0643 24.5011L30.1328 24.5786C30.2878 24.7514 30.5381 24.8199 30.7586 24.7842C30.8688 24.7693 30.9761 24.7305 31.0625 24.665C31.1459 24.6054 31.2115 24.5071 31.2859 24.4236C31.429 24.2538 31.5601 24.084 31.6375 23.9022C31.721 23.7205 31.7329 23.5238 31.6733 23.357L31.6554 23.3063L31.709 23.3093C32.0428 23.3242 32.3407 23.208 32.5582 23.059C32.7817 22.91 32.9307 22.7223 33.026 22.5584C33.2227 22.2217 33.2107 21.9893 33.2256 21.9953Z" fill="#455A64"/>
<path d="M33.2674 33.4368C33.2525 33.3564 32.7191 33.4815 32.2334 33.115C31.7448 32.7485 31.6703 32.1645 31.5958 32.1794C31.5601 32.1794 31.5213 32.3314 31.572 32.5727C31.6196 32.8111 31.7776 33.1359 32.0755 33.3623C32.3735 33.5858 32.7131 33.6335 32.9336 33.5977C33.1601 33.5619 33.2763 33.4726 33.2674 33.4368Z" fill="#263238"/>
<path d="M41.1752 59.9611L41.1454 59.24L39.7152 41.6694C39.2861 41.5592 35.356 40.716 35.356 40.716L34.4711 38.6928L31.7061 40.4687L26.4411 38.222L25.7231 40.1975L19.9278 42.7391L19.7967 43.0192L20.8306 58.8467L19.028 68.9207L19.4302 71.9479L33.2852 74.0902C33.9795 74.1617 34.6827 74.1349 35.3709 74.0068L41.6549 72.8507L42.3491 71.063L41.1752 59.9611Z" fill="#455A64"/>
<path d="M21.0809 42.4114C21.0809 42.4114 16.6562 42.9179 15.7832 48.4271C15.0562 53.0157 13.03 63.325 14.052 65.0443C16.8379 69.7252 20.7352 66.0126 20.7352 66.0126L21.1077 59.5022L21.6768 50.2238L21.0809 42.4114Z" fill="#455A64"/>
<path d="M39.6526 41.6694C39.6526 41.6694 43.818 41.9614 44.7596 46.5261C45.0873 48.1172 45.862 62.2375 45.862 62.2375L44.7238 74.5282L39.3546 74.0962L38.9524 52.3065L39.6526 41.6694Z" fill="#455A64"/>
<path d="M19.1412 68.2741C19.1382 68.2741 19.1471 68.2235 19.171 68.1281C19.2008 68.0209 19.2365 67.8838 19.2812 67.714C19.3885 67.3356 19.5345 66.8171 19.7133 66.1735C20.0976 64.8476 20.631 63.0182 21.2418 60.9205L21.2388 60.9474C21.1822 60.2114 21.1494 59.4307 21.1196 58.6292C21.0213 55.8761 20.9736 53.3852 20.923 51.5825C20.8962 50.6946 20.8753 49.9706 20.8604 49.4492C20.8515 49.2108 20.8455 49.0171 20.8425 48.8681C20.8395 48.7341 20.8395 48.6655 20.8455 48.6655C20.8515 48.6655 20.8604 48.7341 20.8753 48.8652C20.8902 48.9963 20.9081 49.1929 20.923 49.4432C20.9587 49.9467 20.9975 50.6767 21.0362 51.5766C21.1137 53.3792 21.1792 55.8702 21.2805 58.6203C21.3103 59.4218 21.3431 60.1995 21.3937 60.9325V60.9474L21.3908 60.9593C20.7591 63.0509 20.2108 64.8774 19.8116 66.1974C19.612 66.835 19.454 67.3505 19.3349 67.7259C19.2812 67.8928 19.2365 68.0268 19.2008 68.1341C19.162 68.2294 19.1442 68.2771 19.1412 68.2741Z" fill="#263238"/>
<path d="M41.497 47.4825C41.5387 47.4855 41.494 49.5027 41.3927 51.9936C41.2914 54.4846 41.1752 56.4988 41.1335 56.4988C41.0918 56.4958 41.1364 54.4786 41.2378 51.9877C41.3361 49.4997 41.4523 47.4825 41.497 47.4825Z" fill="#263238"/>
<path d="M31.7031 40.4687C31.718 40.4836 31.5034 40.716 31.2144 41.1689C30.9284 41.6188 30.5291 42.2624 30.1745 43.046L30.1388 43.1264L30.0673 43.0788C29.7961 42.9 29.5101 42.7123 29.2121 42.5156C28.2795 41.8989 27.4423 41.3327 26.8404 40.9186C26.5395 40.71 26.2981 40.5402 26.1313 40.421C25.9674 40.3018 25.878 40.2303 25.8839 40.2214C25.8899 40.2124 25.9912 40.2661 26.167 40.3733C26.3428 40.4776 26.5931 40.6355 26.903 40.8322C27.5197 41.2255 28.3659 41.7737 29.2956 42.3905C29.5905 42.5871 29.8766 42.7778 30.1477 42.9566L30.0375 42.9894C30.4099 42.1909 30.8241 41.5562 31.1369 41.1182C31.2949 40.9007 31.4319 40.7338 31.5332 40.6266C31.6345 40.5134 31.7001 40.4627 31.7031 40.4687Z" fill="#263238"/>
<path d="M32.0666 41.6962C32.0696 41.6962 32.0726 41.726 32.0756 41.7826C32.0785 41.8482 32.0845 41.9316 32.0905 42.0329C32.0994 42.2653 32.1143 42.5871 32.1292 42.9953C32.162 43.8326 32.1947 45.0423 32.2275 46.541C32.2901 49.5355 32.3229 53.6741 32.2484 58.2418C32.1709 62.8125 32.004 66.9482 31.8431 69.9367C31.7627 71.4324 31.6882 72.6421 31.6286 73.4764C31.5988 73.8846 31.575 74.2064 31.5571 74.4388C31.5482 74.5401 31.5392 74.6236 31.5333 74.6891C31.5273 74.7457 31.5243 74.7755 31.5214 74.7725C31.5184 74.7725 31.5184 74.7427 31.5184 74.6861C31.5214 74.6206 31.5214 74.5372 31.5243 74.4358C31.5333 74.2034 31.5482 73.8816 31.566 73.4734C31.6048 72.6243 31.6614 71.4175 31.7329 69.9307C31.867 66.9392 32.016 62.8066 32.0934 58.2389C32.1679 53.6712 32.153 49.5355 32.1202 46.541C32.0994 45.0542 32.0845 43.8445 32.0726 42.9953C32.0666 42.5841 32.0636 42.2623 32.0607 42.0299C32.0607 41.9257 32.0607 41.8452 32.0607 41.7797C32.0636 41.726 32.0636 41.6962 32.0666 41.6962Z" fill="#263238"/>
<path d="M34.8167 50.1821C34.8108 50.1761 34.927 50.1731 35.1474 50.1672C35.3888 50.1642 35.7106 50.1582 36.1128 50.1493C36.9739 50.1403 38.1747 50.1284 39.6019 50.1135H39.6734L39.6704 50.185C39.6109 51.5378 39.5393 53.1229 39.4619 54.8123L39.4589 54.863L39.4112 54.8809L39.4053 54.8838C38.5501 55.1937 37.7248 55.4946 36.9471 55.7777L36.9173 55.7896L36.8905 55.7777C36.1843 55.4559 35.5199 55.152 34.9091 54.8719L34.8703 54.854V54.8123C34.8495 53.4268 34.8316 52.2678 34.8197 51.4335C34.8167 51.0461 34.8137 50.7333 34.8137 50.5009C34.8108 50.2863 34.8137 50.1761 34.8167 50.1821C34.8227 50.188 34.8286 50.3072 34.8406 50.5277C34.8495 50.7631 34.8644 51.0819 34.8823 51.4752C34.9121 52.2976 34.9508 53.4417 35.0014 54.8093L34.9627 54.7498C35.5765 55.0239 36.2439 55.3248 36.9531 55.6406L36.8965 55.6377C37.6741 55.3516 38.4995 55.0507 39.3546 54.7378L39.3606 54.7349L39.3099 54.8034C39.3933 53.114 39.4708 51.5288 39.5393 50.1761L39.6079 50.2476C38.1985 50.2327 37.0156 50.2208 36.1635 50.2119C35.7553 50.2059 35.4275 50.1999 35.1832 50.194C34.9478 50.191 34.8227 50.188 34.8167 50.1821Z" fill="#263238"/>
<path d="M35.2637 40.8768C35.2786 40.8888 35.1296 41.1122 34.8346 41.431C34.6856 41.589 34.5009 41.7707 34.2774 41.9525C34.1672 42.0448 34.048 42.1372 33.9199 42.2266C33.8573 42.2713 33.7918 42.3219 33.7053 42.3577C33.6219 42.3994 33.4938 42.4024 33.4074 42.3547C33.2376 42.2564 33.1422 42.1402 33.023 42.0359C32.9098 41.9286 32.8025 41.8243 32.7042 41.7201C32.5046 41.5145 32.3347 41.3178 32.1977 41.151C31.9265 40.8143 31.7835 40.5878 31.7984 40.5759C31.8163 40.561 31.9891 40.7666 32.2811 41.0794C32.4271 41.2374 32.6029 41.4221 32.8055 41.6187C32.9068 41.7171 33.0141 41.8214 33.1273 41.9227C33.2405 42.018 33.3627 42.1491 33.4789 42.2147C33.5862 42.2802 33.7083 42.1908 33.8365 42.1014C33.9616 42.015 34.0808 41.9256 34.194 41.8392C34.4175 41.6664 34.6082 41.4966 34.7631 41.3506C35.067 41.0616 35.2458 40.8619 35.2637 40.8768Z" fill="#263238"/>
<path d="M17.0554 60.0683C17.0554 60.0683 16.6294 59.7465 15.4018 60.2053C14.1742 60.6642 14.195 64.0967 14.195 64.0967C14.195 64.0967 14.1057 65.8963 16.7932 66.3403C19.4808 66.7843 20.7203 64.9757 20.7203 64.9757L21.9867 62.2404L17.0554 60.0683Z" fill="#FFA8A7"/>
<path d="M21.4116 59.4992C21.4116 59.4992 21.9091 59.0702 22.5557 59.3294C23.2053 59.5886 22.8686 60.6732 22.8686 60.6732L21.93 60.2143L21.4116 59.4992Z" fill="#FFA8A7"/>
<path d="M17.4726 57.4433C19.1828 58.8974 25.0973 63.9805 25.0973 63.9805L26.1729 64.3202L25.7677 63.2714L18.2443 56.5673C18.0029 56.3528 17.6364 56.3736 17.4189 56.612C17.1984 56.8534 17.2223 57.2288 17.4726 57.4433Z" fill="#8071F3"/>
<path d="M21.5486 60.4855C21.5486 60.4855 21.8108 60.1667 21.5993 59.827C21.3877 59.4873 21.0659 59.4843 20.7143 59.4694C20.3628 59.4545 18.1787 59.7346 17.5441 59.8717C16.9094 60.0058 16.0364 60.7685 16.3493 61.5611L16.6204 61.8799C16.6204 61.8799 15.9321 62.738 16.3493 63.322L16.8379 63.6766C16.8379 63.6766 16.6144 64.7969 17.1269 65.0681C17.6394 65.3392 18.2622 65.1366 18.2622 65.1366C18.2622 65.1366 18.8849 65.4286 19.5523 65.4018C20.2227 65.375 22.6719 63.3608 22.8269 63.1731C23.1546 62.7738 22.8716 62.3567 22.8716 62.3567C22.8716 62.3567 23.0146 62.0617 22.8716 61.6714C22.7315 61.281 22.4276 61.3049 22.4276 61.3049C22.4276 61.3049 22.4365 60.8728 22.2369 60.6941C22.0403 60.5183 21.5486 60.4855 21.5486 60.4855Z" fill="#FFA8A7"/>
<path d="M21.5486 60.4855C21.5486 60.4825 21.5814 60.4795 21.641 60.4855C21.7006 60.4915 21.793 60.5004 21.9092 60.5242C22.0224 60.554 22.1803 60.5838 22.3054 60.7239C22.4187 60.8699 22.4604 61.0784 22.4693 61.3049L22.4276 61.2661C22.6421 61.2542 22.8388 61.427 22.9133 61.6446C22.9937 61.8591 23.0205 62.1183 22.9192 62.3745L22.9163 62.3239C23.0295 62.5027 23.0801 62.7351 23.0086 62.9615C22.9729 63.0718 22.9103 63.1761 22.8209 63.2595C22.7375 63.3399 22.6511 63.4114 22.5647 63.4889C22.2101 63.7898 21.8228 64.0997 21.4026 64.4126C20.9795 64.7225 20.5356 65.0502 20.0141 65.3154C19.9486 65.3482 19.883 65.3809 19.8086 65.4048C19.74 65.4346 19.6596 65.4525 19.5791 65.4644C19.4242 65.4763 19.2752 65.4644 19.1233 65.4465C18.8193 65.4048 18.5244 65.3243 18.2294 65.1992L18.286 65.2022C17.994 65.2826 17.6841 65.3094 17.3713 65.232C17.2223 65.1902 17.0614 65.1366 16.9392 65.0025C16.823 64.8714 16.7724 64.7076 16.7426 64.5496C16.6919 64.2427 16.7128 63.9448 16.7634 63.6528L16.7932 63.7303C16.6293 63.6111 16.4655 63.4919 16.3046 63.3757L16.2956 63.3667L16.2897 63.3578C16.1139 63.1075 16.1139 62.7857 16.1973 62.5295C16.2748 62.2643 16.4059 62.0349 16.5668 61.8233V61.9187C16.4744 61.8114 16.385 61.7041 16.2956 61.5969L16.2867 61.5879L16.2837 61.576C16.1824 61.3108 16.1973 61.0069 16.3165 60.7656C16.4297 60.5213 16.6025 60.3216 16.7992 60.1637C16.9958 60.0088 17.2104 59.8836 17.4458 59.8181C17.6811 59.7585 17.8986 59.7317 18.1162 59.6959C18.9832 59.5678 19.749 59.4784 20.3896 59.4277C20.5475 59.4128 20.7084 59.4099 20.8484 59.4218C20.9915 59.4307 21.1315 59.4456 21.2537 59.4903C21.5069 59.5797 21.647 59.7883 21.6917 59.9611C21.7334 60.1428 21.6768 60.2799 21.635 60.3604C21.5874 60.4557 21.5516 60.4885 21.5486 60.4855C21.5457 60.4825 21.5725 60.4438 21.6082 60.3633C21.641 60.2829 21.6857 60.1488 21.641 59.9879C21.5933 59.833 21.4563 59.6453 21.2268 59.5708C21.1136 59.532 20.9825 59.5231 20.8395 59.5142C20.6965 59.5052 20.5535 59.5141 20.3926 59.529C19.7579 59.5916 18.9922 59.6929 18.1311 59.83C17.9165 59.8657 17.6901 59.8985 17.4755 59.9551C17.264 60.0147 17.0614 60.1369 16.8796 60.2829C16.6979 60.4289 16.54 60.6166 16.4416 60.8341C16.3373 61.0516 16.3284 61.3049 16.4148 61.5313L16.4029 61.5105C16.4923 61.6148 16.5847 61.722 16.677 61.8293L16.7158 61.874L16.68 61.9246C16.537 62.1153 16.4089 62.3418 16.3403 62.5801C16.2658 62.8155 16.2718 63.0777 16.4118 63.2774L16.394 63.2595C16.5549 63.3757 16.7187 63.4949 16.8826 63.6141L16.9213 63.6409L16.9124 63.6915C16.8647 63.9627 16.8469 64.2576 16.8915 64.5318C16.9154 64.6748 16.9631 64.8118 17.0495 64.9072C17.1299 64.9996 17.27 65.0532 17.404 65.0889C17.6752 65.1575 17.9731 65.1336 18.2324 65.0621L18.2622 65.0532L18.289 65.0651C18.5601 65.1813 18.8521 65.2647 19.1382 65.3035C19.2812 65.3214 19.4272 65.3333 19.5642 65.3214C19.6268 65.3094 19.6894 65.3005 19.7549 65.2707C19.8205 65.2498 19.883 65.22 19.9456 65.1873C20.4492 64.934 20.8961 64.6092 21.3192 64.3053C21.7393 63.9984 22.1267 63.6915 22.4842 63.3965C22.66 63.2446 22.8447 63.1165 22.9014 62.9258C22.9639 62.741 22.9222 62.5325 22.8299 62.3805L22.815 62.3567L22.8269 62.3299C22.9997 61.9068 22.7911 61.3347 22.4336 61.3406H22.3919V61.3019C22.3919 61.0904 22.3531 60.8877 22.2608 60.7596C22.1594 60.6345 22.0075 60.5957 21.9002 60.563C21.6738 60.5034 21.5457 60.4944 21.5486 60.4855Z" fill="#55291D"/>
<path d="M21.5486 60.4855C21.5516 60.5272 20.6697 60.6613 19.606 60.9592C18.5422 61.2542 17.6752 61.4956 17.6633 61.4479C17.6573 61.427 17.8659 61.3466 18.2085 61.2274C18.5512 61.1112 19.0279 60.9533 19.5642 60.8103C20.6369 60.5093 21.5457 60.4438 21.5486 60.4855Z" fill="#55291D"/>
<path d="M22.4276 61.3048C22.4366 61.3227 22.2071 61.4597 21.8257 61.6653C21.4444 61.8679 20.914 62.1421 20.3091 62.4102C19.7043 62.6784 19.1441 62.8869 18.727 63.0121C18.3128 63.1372 18.0476 63.1909 18.0447 63.17C18.0387 63.1492 18.289 63.0598 18.6942 62.9078C19.0965 62.7558 19.6477 62.5354 20.2466 62.2672C21.4444 61.7279 22.4068 61.2631 22.4276 61.3048Z" fill="#55291D"/>
<path d="M22.8715 62.3567C22.8835 62.3746 22.6898 62.5116 22.3799 62.7292C22.0671 62.9437 21.638 63.2446 21.1493 63.5605C20.6607 63.8733 20.1959 64.1325 19.8473 64.2905C19.4987 64.4484 19.2722 64.5169 19.2633 64.499C19.2543 64.4782 19.4659 64.3739 19.7966 64.1921C20.1274 64.0104 20.5773 63.7422 21.0629 63.4294C22.0313 62.7917 22.8447 62.312 22.8715 62.3567Z" fill="#55291D"/>
<path d="M48.6418 76.9267H33.3655C32.9961 76.9267 32.6951 76.6674 32.6951 76.3456V57.0976C32.6951 56.7758 32.9961 56.5165 33.3655 56.5165H48.6418C49.0113 56.5165 49.3122 56.7758 49.3122 57.0976V76.3456C49.3122 76.6645 49.0113 76.9267 48.6418 76.9267Z" fill="#E0E0E0"/>
<path d="M48.642 76.9268C48.642 76.9268 48.6598 76.9268 48.6926 76.9239C48.7254 76.9209 48.776 76.9149 48.8416 76.9C48.9042 76.8821 48.9846 76.8523 49.0621 76.7957C49.1396 76.7421 49.217 76.6616 49.2647 76.5544C49.2885 76.5007 49.3034 76.4412 49.3094 76.3786C49.3124 76.316 49.3094 76.2475 49.3124 76.176C49.3124 76.0359 49.3124 75.881 49.3124 75.7141C49.3124 75.3804 49.3124 74.9961 49.3124 74.561C49.3124 72.8269 49.3094 70.3151 49.3064 67.2134C49.3064 65.661 49.3064 63.9627 49.3034 62.1392C49.3034 61.2274 49.3034 60.2829 49.3034 59.3116C49.3034 58.8259 49.3034 58.3343 49.3034 57.8337C49.3034 57.5834 49.3034 57.3331 49.3034 57.0798C49.3005 56.9547 49.2468 56.8355 49.1545 56.7372C49.0621 56.6418 48.934 56.5703 48.7909 56.5435C48.7194 56.5286 48.6479 56.5286 48.5734 56.5286C48.499 56.5286 48.4245 56.5286 48.35 56.5286C48.201 56.5286 48.052 56.5286 47.9001 56.5286C47.5991 56.5286 47.2982 56.5286 46.9943 56.5286C46.3864 56.5286 45.7726 56.5286 45.1529 56.5286C43.9134 56.5286 42.6441 56.5286 41.3569 56.5286C38.7766 56.5286 36.1069 56.5286 33.3716 56.5286C33.2048 56.5286 33.0379 56.5852 32.9187 56.6865C32.7966 56.7849 32.7221 56.9249 32.7161 57.0679C32.7131 57.3599 32.7161 57.6549 32.7131 57.9469C32.7131 58.5309 32.7131 59.1119 32.7131 59.69C32.7131 60.8431 32.7131 61.9783 32.7131 63.0956C32.7131 65.3273 32.7131 67.4816 32.7131 69.5345C32.7131 71.5874 32.7131 73.5361 32.7131 75.3596C32.7131 75.589 32.7131 75.8125 32.7131 76.0389C32.7131 76.1521 32.7102 76.2624 32.7131 76.3726C32.7161 76.4829 32.7608 76.5872 32.8323 76.6765C32.9038 76.7659 33.0051 76.8345 33.1184 76.8762C33.175 76.897 33.2346 76.909 33.2971 76.9149C33.3567 76.9209 33.4223 76.9179 33.4819 76.9179C33.7322 76.9179 33.9795 76.9179 34.2238 76.9179C35.2011 76.9179 36.1426 76.9179 37.0365 76.9179C40.6209 76.9209 43.5231 76.9209 45.5283 76.9209C46.5294 76.9209 47.3101 76.9239 47.8375 76.9239C48.1027 76.9239 48.3023 76.9239 48.4394 76.9239C48.5734 76.9239 48.642 76.9268 48.642 76.9268C48.642 76.9268 48.5734 76.9268 48.4364 76.9268C48.3023 76.9268 48.0997 76.9268 47.8345 76.9268C47.3071 76.9268 46.5294 76.9268 45.5253 76.9298C43.5201 76.9298 40.618 76.9328 37.0335 76.9328C36.1367 76.9328 35.1981 76.9328 34.2208 76.9328C33.9765 76.9328 33.7292 76.9328 33.4789 76.9328C33.4163 76.9328 33.3537 76.9328 33.2912 76.9298C33.2286 76.9238 33.166 76.9089 33.1064 76.8881C32.9873 76.8464 32.883 76.7749 32.8085 76.6825C32.734 76.5901 32.6893 76.4799 32.6833 76.3667C32.6804 76.2534 32.6833 76.1432 32.6804 76.033C32.6804 75.8095 32.6804 75.583 32.6804 75.3536C32.6804 73.5301 32.6804 71.5785 32.6774 69.5285C32.6774 67.4786 32.6774 65.3243 32.6774 63.0897C32.6774 61.9723 32.6774 60.8371 32.6774 59.684C32.6774 59.1089 32.6774 58.5279 32.6774 57.9409C32.6774 57.6489 32.6744 57.3569 32.6804 57.062C32.6863 56.91 32.7668 56.764 32.8919 56.6597C33.0171 56.5554 33.1928 56.4958 33.3686 56.4958C36.1039 56.4958 38.7736 56.4958 41.3539 56.4958C42.6441 56.4958 43.9104 56.4958 45.1499 56.4958C45.7697 56.4958 46.3834 56.4958 46.9913 56.4958C47.2952 56.4958 47.5961 56.4958 47.8971 56.4958C48.0461 56.4958 48.198 56.4958 48.347 56.4958C48.4215 56.4958 48.496 56.4958 48.5705 56.4958C48.6449 56.4958 48.7224 56.4959 48.7939 56.5107C48.9429 56.5376 49.077 56.6121 49.1723 56.7134C49.2677 56.8147 49.3243 56.9428 49.3273 57.0709C49.3273 57.3242 49.3273 57.5745 49.3273 57.8247C49.3273 58.3253 49.3273 58.8169 49.3273 59.3026C49.3273 60.274 49.3273 61.2185 49.3273 62.1302C49.3273 63.9537 49.3273 65.6551 49.3243 67.2045C49.3213 70.3062 49.3213 72.818 49.3183 74.5521C49.3183 74.9871 49.3183 75.3715 49.3154 75.7052C49.3154 75.8721 49.3154 76.027 49.3154 76.167C49.3154 76.2385 49.3183 76.3041 49.3124 76.3696C49.3064 76.4322 49.2945 76.4948 49.2677 76.5484C49.22 76.6557 49.1396 76.7361 49.0621 76.7898C48.9846 76.8434 48.9042 76.8732 48.8416 76.8911C48.776 76.906 48.7254 76.9119 48.6926 76.9149C48.6598 76.9268 48.642 76.9268 48.642 76.9268Z" fill="#263238"/>
<g opacity="0.3">
<path d="M34.2714 76.4203L48.2069 76.3547L48.3648 74.0247L47.9388 72.6183L34.1433 74.4836L34.2714 76.4203Z" fill="black"/>
</g>
<path d="M48.642 76.9268C48.642 76.9268 48.6598 76.9268 48.6926 76.9239C48.7254 76.9209 48.776 76.9149 48.8416 76.9C48.9042 76.8821 48.9846 76.8523 49.0621 76.7957C49.1396 76.7421 49.217 76.6616 49.2647 76.5544C49.2885 76.5007 49.3034 76.4412 49.3094 76.3786C49.3124 76.316 49.3094 76.2475 49.3124 76.176C49.3124 76.0359 49.3124 75.881 49.3124 75.7141C49.3124 75.3804 49.3124 74.9961 49.3124 74.561C49.3124 72.8269 49.3094 70.3151 49.3064 67.2134C49.3064 65.661 49.3064 63.9627 49.3034 62.1392C49.3034 61.2274 49.3034 60.2829 49.3034 59.3116C49.3034 58.8259 49.3034 58.3343 49.3034 57.8337C49.3034 57.5834 49.3034 57.3331 49.3034 57.0798C49.3005 56.9547 49.2468 56.8355 49.1545 56.7372C49.0621 56.6418 48.934 56.5703 48.7909 56.5435C48.7194 56.5286 48.6479 56.5286 48.5734 56.5286C48.499 56.5286 48.4245 56.5286 48.35 56.5286C48.201 56.5286 48.052 56.5286 47.9001 56.5286C47.5991 56.5286 47.2982 56.5286 46.9943 56.5286C46.3864 56.5286 45.7726 56.5286 45.1529 56.5286C43.9134 56.5286 42.6441 56.5286 41.3569 56.5286C38.7766 56.5286 36.1069 56.5286 33.3716 56.5286C33.2048 56.5286 33.0379 56.5852 32.9187 56.6865C32.7966 56.7849 32.7221 56.9249 32.7161 57.0679C32.7131 57.3599 32.7161 57.6549 32.7131 57.9469C32.7131 58.5309 32.7131 59.1119 32.7131 59.69C32.7131 60.8431 32.7131 61.9783 32.7131 63.0956C32.7131 65.3273 32.7131 67.4816 32.7131 69.5345C32.7131 71.5874 32.7131 73.5361 32.7131 75.3596C32.7131 75.589 32.7131 75.8125 32.7131 76.0389C32.7131 76.1521 32.7102 76.2624 32.7131 76.3726C32.7161 76.4829 32.7608 76.5872 32.8323 76.6765C32.9038 76.7659 33.0051 76.8345 33.1184 76.8762C33.175 76.897 33.2346 76.909 33.2971 76.9149C33.3567 76.9209 33.4223 76.9179 33.4819 76.9179C33.7322 76.9179 33.9795 76.9179 34.2238 76.9179C35.2011 76.9179 36.1426 76.9179 37.0365 76.9179C40.6209 76.9209 43.5231 76.9209 45.5283 76.9209C46.5294 76.9209 47.3101 76.9239 47.8375 76.9239C48.1027 76.9239 48.3023 76.9239 48.4394 76.9239C48.5734 76.9239 48.642 76.9268 48.642 76.9268C48.642 76.9268 48.5734 76.9268 48.4364 76.9268C48.3023 76.9268 48.0997 76.9268 47.8345 76.9268C47.3071 76.9268 46.5294 76.9268 45.5253 76.9298C43.5201 76.9298 40.618 76.9328 37.0335 76.9328C36.1367 76.9328 35.1981 76.9328 34.2208 76.9328C33.9765 76.9328 33.7292 76.9328 33.4789 76.9328C33.4163 76.9328 33.3537 76.9328 33.2912 76.9298C33.2286 76.9238 33.166 76.9089 33.1064 76.8881C32.9873 76.8464 32.883 76.7749 32.8085 76.6825C32.734 76.5901 32.6893 76.4799 32.6833 76.3667C32.6804 76.2534 32.6833 76.1432 32.6804 76.033C32.6804 75.8095 32.6804 75.583 32.6804 75.3536C32.6804 73.5301 32.6804 71.5785 32.6774 69.5285C32.6774 67.4786 32.6774 65.3243 32.6774 63.0897C32.6774 61.9723 32.6774 60.8371 32.6774 59.684C32.6774 59.1089 32.6774 58.5279 32.6774 57.9409C32.6774 57.6489 32.6744 57.3569 32.6804 57.062C32.6863 56.91 32.7668 56.764 32.8919 56.6597C33.0171 56.5554 33.1928 56.4958 33.3686 56.4958C36.1039 56.4958 38.7736 56.4958 41.3539 56.4958C42.6441 56.4958 43.9104 56.4958 45.1499 56.4958C45.7697 56.4958 46.3834 56.4958 46.9913 56.4958C47.2952 56.4958 47.5961 56.4958 47.8971 56.4958C48.0461 56.4958 48.198 56.4958 48.347 56.4958C48.4215 56.4958 48.496 56.4958 48.5705 56.4958C48.6449 56.4958 48.7224 56.4959 48.7939 56.5107C48.9429 56.5376 49.077 56.6121 49.1723 56.7134C49.2677 56.8147 49.3243 56.9428 49.3273 57.0709C49.3273 57.3242 49.3273 57.5745 49.3273 57.8247C49.3273 58.3253 49.3273 58.8169 49.3273 59.3026C49.3273 60.274 49.3273 61.2185 49.3273 62.1302C49.3273 63.9537 49.3273 65.6551 49.3243 67.2045C49.3213 70.3062 49.3213 72.818 49.3183 74.5521C49.3183 74.9871 49.3183 75.3715 49.3154 75.7052C49.3154 75.8721 49.3154 76.027 49.3154 76.167C49.3154 76.2385 49.3183 76.3041 49.3124 76.3696C49.3064 76.4322 49.2945 76.4948 49.2677 76.5484C49.22 76.6557 49.1396 76.7361 49.0621 76.7898C48.9846 76.8434 48.9042 76.8732 48.8416 76.8911C48.776 76.906 48.7254 76.9119 48.6926 76.9149C48.6598 76.9268 48.642 76.9268 48.642 76.9268Z" fill="#263238"/>
<g opacity="0.3">
<path d="M34.2714 76.4203L48.2069 76.3547L48.3648 74.0247L47.9388 72.6183L34.1433 74.4836L34.2714 76.4203Z" fill="black"/>
</g>
<path d="M48.4721 57.339H33.5355V75.9643H48.4721V57.339Z" fill="#EFF6FE"/>
<path d="M48.4722 75.9614C48.4722 75.8541 48.4662 68.3277 48.4573 57.336L48.4722 57.3479C43.9432 57.3479 38.8749 57.3479 33.5385 57.3479H33.5355L33.5504 57.336C33.5504 64.3291 33.5474 70.7918 33.5474 75.9614L33.5355 75.9494C42.6203 75.9584 48.3709 75.9614 48.4722 75.9614C48.3709 75.9614 42.6203 75.9643 33.5355 75.9733H33.5236V75.9614C33.5236 70.7918 33.5206 64.3321 33.5206 57.336V57.3241H33.5355H33.5385C38.8749 57.3241 43.9432 57.3241 48.4722 57.3241H48.4871V57.336C48.4781 68.3307 48.4722 75.8541 48.4722 75.9614Z" fill="#263238"/>
<path d="M37.6562 62.3745H34.3906V63.027H37.6562V62.3745Z" fill="#E0E0E0"/>
<path d="M44.5987 60.9532H38.0526V61.6058H44.5987V60.9532Z" fill="#F5F5F5"/>
<path d="M37.4715 60.9383H34.3578V61.5908H37.4715V60.9383Z" fill="#F5F5F5"/>
<path d="M47.3429 60.9503H44.9741V61.6028H47.3429V60.9503Z" fill="#F5F5F5"/>
<path d="M38.5889 71.7841H34.3757V72.526H38.5889V71.7841Z" fill="#E0E0E0"/>
<path d="M47.2952 64.0073H34.3757V64.7492H47.2952V64.0073Z" fill="#E0E0E0"/>
<path d="M47.0538 65.6967C47.0538 65.7384 44.2709 65.7742 40.8354 65.7742C37.4 65.7742 34.6171 65.7384 34.6171 65.6967C34.6171 65.655 37.4 65.6193 40.8354 65.6193C44.2709 65.6193 47.0538 65.655 47.0538 65.6967Z" fill="#263238"/>
<path d="M47.0538 66.3403C47.0538 66.382 44.2709 66.4178 40.8354 66.4178C37.4 66.4178 34.6171 66.382 34.6171 66.3403C34.6171 66.2986 37.4 66.2628 40.8354 66.2628C44.2709 66.2628 47.0538 66.2986 47.0538 66.3403Z" fill="#263238"/>
<path d="M47.0538 66.9869C47.0538 67.0286 44.2709 67.0644 40.8354 67.0644C37.4 67.0644 34.6171 67.0286 34.6171 66.9869C34.6171 66.9452 37.4 66.9094 40.8354 66.9094C44.2709 66.9094 47.0538 66.9422 47.0538 66.9869Z" fill="#263238"/>
<path d="M40.165 67.6304C40.165 67.6722 38.9226 67.7079 37.3911 67.7079C35.8595 67.7079 34.6171 67.6722 34.6171 67.6304C34.6171 67.5887 35.8595 67.553 37.3911 67.553C38.9226 67.553 40.165 67.5887 40.165 67.6304Z" fill="#263238"/>
<path d="M47.0538 68.2741C47.0538 68.3158 44.2709 68.3516 40.8354 68.3516C37.4 68.3516 34.6171 68.3158 34.6171 68.2741C34.6171 68.2324 37.4 68.1967 40.8354 68.1967C44.2709 68.1967 47.0538 68.2324 47.0538 68.2741Z" fill="#263238"/>
<path d="M47.0538 68.9177C47.0538 68.9594 44.2709 68.9951 40.8354 68.9951C37.4 68.9951 34.6171 68.9594 34.6171 68.9177C34.6171 68.876 37.4 68.8402 40.8354 68.8402C44.2709 68.8402 47.0538 68.876 47.0538 68.9177Z" fill="#263238"/>
<path d="M44.5838 69.5643C44.5838 69.606 42.3521 69.6418 39.6019 69.6418C36.8488 69.6418 34.6201 69.606 34.6201 69.5643C34.6201 69.5226 36.8518 69.4868 39.6019 69.4868C42.355 69.4868 44.5838 69.5196 44.5838 69.5643Z" fill="#263238"/>
<path d="M47.0538 70.2078C47.0538 70.2496 44.2709 70.2853 40.8354 70.2853C37.4 70.2853 34.6171 70.2496 34.6171 70.2078C34.6171 70.1661 37.4 70.1304 40.8354 70.1304C44.2709 70.1304 47.0538 70.1661 47.0538 70.2078Z" fill="#263238"/>
<path d="M47.0538 70.8514C47.0538 70.8931 44.2709 70.9289 40.8354 70.9289C37.4 70.9289 34.6171 70.8931 34.6171 70.8514C34.6171 70.8097 37.4 70.7739 40.8354 70.7739C44.2709 70.7739 47.0538 70.8097 47.0538 70.8514Z" fill="#263238"/>
<path d="M45.1976 58.0571H37.54V56.6269C37.54 56.2604 37.838 55.9625 38.2045 55.9625H44.5361C44.9026 55.9625 45.2005 56.2604 45.2005 56.6269V58.0571H45.1976Z" fill="#263238"/>
<path d="M42.3431 55.1758H40.3945L40.6209 56.749H42.0899L42.3431 55.1758Z" fill="#263238"/>
<path d="M44.7059 55.9624C44.7059 55.9713 43.2132 55.9773 41.3688 55.9773C39.5244 55.9773 38.0317 55.9713 38.0317 55.9624C38.0317 55.9535 39.5244 55.9475 41.3688 55.9475C43.2102 55.9475 44.7059 55.9564 44.7059 55.9624Z" fill="#455A64"/>
<path d="M37.7098 57.7174C37.7009 57.7174 37.6949 57.4224 37.6949 57.0559C37.6949 56.6894 37.7009 56.3945 37.7098 56.3945C37.7188 56.3945 37.7247 56.6894 37.7247 57.0559C37.7277 57.4224 37.7188 57.7174 37.7098 57.7174Z" fill="#455A64"/>
<path d="M44.9503 57.5625C44.9413 57.5625 44.9354 57.2943 44.9354 56.9636C44.9354 56.6328 44.9413 56.3647 44.9503 56.3647C44.9592 56.3647 44.9652 56.6328 44.9652 56.9636C44.9652 57.2943 44.9592 57.5625 44.9503 57.5625Z" fill="#455A64"/>
<path d="M44.5808 57.8395C44.5808 57.8485 43.0463 57.8544 41.1543 57.8544C39.2623 57.8544 37.7278 57.8485 37.7278 57.8395C37.7278 57.8306 39.2623 57.8246 41.1543 57.8246C43.0463 57.8246 44.5808 57.8306 44.5808 57.8395Z" fill="#455A64"/>
<g opacity="0.3">
<path d="M45.1975 56.5614L45.5134 57.4493V57.8814H45.1558L45.1975 56.5614Z" fill="black"/>
</g>
<path d="M37.5103 60.1517C37.4209 60.107 37.3494 60.0445 37.2957 59.961C37.2451 59.8806 37.2183 59.7882 37.2183 59.6869C37.2183 59.5856 37.2451 59.4932 37.2957 59.4128C37.3464 59.3323 37.4179 59.2698 37.5103 59.2221C37.5996 59.1774 37.7039 59.1536 37.8172 59.1536C37.9155 59.1536 38.0079 59.1714 38.0853 59.2042C38.1658 59.237 38.2313 59.2847 38.285 59.3472L38.0883 59.5141C38.0168 59.4336 37.9334 59.3949 37.8321 59.3949C37.7725 59.3949 37.7188 59.4068 37.6741 59.4307C37.6294 59.4545 37.5937 59.4903 37.5669 59.535C37.5401 59.5796 37.5281 59.6303 37.5281 59.6869C37.5281 59.7435 37.5401 59.7942 37.5669 59.8389C37.5937 59.8836 37.6294 59.9163 37.6741 59.9432C37.7188 59.967 37.7725 59.9789 37.8321 59.9789C37.9334 59.9789 38.0168 59.9402 38.0883 59.8597L38.285 60.0266C38.2313 60.0892 38.1658 60.1368 38.0853 60.1696C38.0049 60.2024 37.9155 60.2203 37.8172 60.2203C37.7039 60.2203 37.6026 60.1964 37.5103 60.1517Z" fill="#263238"/>
<path d="M38.6395 60.1517C38.5472 60.107 38.4756 60.0415 38.422 59.961C38.3684 59.8806 38.3445 59.7882 38.3445 59.6869C38.3445 59.5856 38.3714 59.4932 38.422 59.4128C38.4756 59.3323 38.5472 59.2668 38.6395 59.2221C38.7319 59.1774 38.8362 59.1536 38.9494 59.1536C39.0656 59.1536 39.1669 59.1774 39.2593 59.2221C39.3516 59.2668 39.4232 59.3323 39.4768 59.4128C39.5304 59.4932 39.5543 59.5856 39.5543 59.6869C39.5543 59.7882 39.5274 59.8806 39.4768 59.961C39.4232 60.0415 39.3516 60.107 39.2593 60.1517C39.1669 60.1964 39.0626 60.2203 38.9494 60.2203C38.8332 60.2203 38.7319 60.1964 38.6395 60.1517ZM39.0984 59.9432C39.1431 59.9193 39.1788 59.8836 39.2027 59.8389C39.2295 59.7942 39.2414 59.7435 39.2414 59.6869C39.2414 59.6303 39.2295 59.5796 39.2027 59.535C39.1758 59.4903 39.1401 59.4575 39.0984 59.4307C39.0537 59.4068 39.003 59.3949 38.9494 59.3949C38.8958 59.3949 38.8451 59.4068 38.8004 59.4307C38.7557 59.4545 38.72 59.4903 38.6932 59.535C38.6663 59.5796 38.6544 59.6303 38.6544 59.6869C38.6544 59.7435 38.6663 59.7942 38.6932 59.8389C38.72 59.8836 38.7557 59.9163 38.8004 59.9432C38.8451 59.967 38.8958 59.9789 38.9494 59.9789C39.006 59.9789 39.0537 59.967 39.0984 59.9432Z" fill="#263238"/>
<path d="M40.7521 59.1714V60.1964H40.4988L40.0191 59.6511V60.1964H39.7181V59.1714H39.9714L40.4511 59.7167V59.1714H40.7521Z" fill="#263238"/>
<path d="M41.0977 60.1875C41.0143 60.1667 40.9487 60.1398 40.8951 60.1041L40.9964 59.8896C41.0441 59.9194 41.1007 59.9432 41.1662 59.9641C41.2318 59.9819 41.2943 59.9909 41.3569 59.9909C41.4761 59.9909 41.5357 59.964 41.5357 59.9074C41.5357 59.8776 41.5178 59.8568 41.485 59.8419C41.4523 59.827 41.3986 59.8121 41.3212 59.7972C41.2407 59.7793 41.1722 59.7614 41.1156 59.7436C41.0619 59.7257 41.0143 59.6929 40.9725 59.6512C40.9338 59.6095 40.913 59.5529 40.913 59.4814C40.913 59.4188 40.9308 59.3622 40.9666 59.3115C41.0023 59.2609 41.056 59.2221 41.1305 59.1923C41.202 59.1625 41.2914 59.1476 41.3956 59.1476C41.4672 59.1476 41.5387 59.1566 41.6072 59.1715C41.6757 59.1864 41.7383 59.2102 41.7919 59.237L41.6966 59.4516C41.5923 59.3979 41.491 59.3711 41.3956 59.3711C41.3331 59.3711 41.2914 59.3801 41.2616 59.3979C41.2348 59.4158 41.2199 59.4367 41.2199 59.4635C41.2199 59.4903 41.2377 59.5112 41.2705 59.5261C41.3033 59.5409 41.3569 59.5529 41.4314 59.5678C41.5148 59.5856 41.5834 59.6035 41.637 59.6214C41.6906 59.6393 41.7383 59.6721 41.78 59.7138C41.8188 59.7555 41.8396 59.8121 41.8396 59.8836C41.8396 59.9462 41.8217 59.9998 41.786 60.0505C41.7502 60.1011 41.6966 60.1398 41.6221 60.1696C41.5506 60.1994 41.4612 60.2143 41.3569 60.2143C41.2645 60.2203 41.1781 60.2084 41.0977 60.1875Z" fill="#263238"/>
<path d="M42.8526 59.9729V60.1964H41.9796V59.1714H42.8348V59.3949H42.2865V59.5677H42.7692V59.7852H42.2865V59.9729H42.8526Z" fill="#263238"/>
<path d="M44.0594 59.1714V60.1964H43.8061L43.3264 59.6511V60.1964H43.0255V59.1714H43.2787L43.7584 59.7167V59.1714H44.0594Z" fill="#263238"/>
<path d="M44.5093 59.4039H44.1756V59.1744H45.1499V59.4039H44.8162V60.1994H44.5093V59.4039Z" fill="#263238"/>
<path d="M43.7405 77.3737L43.3919 76.8225C43.3919 76.8225 43.2608 75.428 42.6172 75.4012C41.9766 75.3744 41.8604 76.1461 41.8604 76.1461C41.8604 76.1461 41.8038 75.577 41.2228 75.5144C40.6418 75.4519 40.6269 76.2027 40.6269 76.2027C40.6269 76.2027 40.5732 75.3416 40.1054 75.4131C39.6376 75.4847 39.4172 75.9286 39.4172 75.9286C39.4172 75.9286 39.4291 75.2254 39.1818 75.1509C38.9345 75.0735 38.7021 75.142 38.4994 75.4131C38.2968 75.6843 38.3862 76.9864 38.3862 76.9864C38.3862 76.9864 38.3892 77.475 38.8927 77.5495L39.289 77.481C39.289 77.481 39.1788 78.7413 40.0667 78.8635C40.9546 78.9857 40.9248 78.5953 40.9248 78.5953C40.9248 78.5953 41.3151 79.1436 41.9677 79.0095C42.6202 78.8754 42.5368 78.4791 42.5368 78.4791C42.5368 78.4791 43.231 78.7831 43.5409 78.5536C43.8478 78.3182 43.7405 77.3737 43.7405 77.3737Z" fill="#AE7461"/>
<path d="M39.2712 77.5167C39.2295 77.5256 39.1371 77.1264 39.1967 76.6348C39.2533 76.1431 39.4351 75.7766 39.4738 75.7945C39.5155 75.8094 39.4053 76.1819 39.3517 76.6526C39.295 77.1234 39.3159 77.5107 39.2712 77.5167Z" fill="#6F4439"/>
<path d="M40.9547 78.6341C40.9189 78.649 40.6746 78.1007 40.6001 77.3737C40.5256 76.6467 40.6329 76.0597 40.6686 76.0657C40.7163 76.0686 40.6805 76.6526 40.752 77.3588C40.8265 78.065 40.9994 78.6192 40.9547 78.6341Z" fill="#6F4439"/>
<path d="M42.5785 78.494C42.5636 78.5059 42.4623 78.4016 42.355 78.199C42.2478 77.9994 42.1345 77.7014 42.0511 77.3707C41.8813 76.7033 41.8247 76.1521 41.8634 76.1431C41.9081 76.1342 42.0332 76.6735 42.2001 77.332C42.2835 77.6597 42.3759 77.9517 42.4534 78.1543C42.5308 78.3599 42.5964 78.4791 42.5785 78.494Z" fill="#6F4439"/>
</g>
</svg>
