<svg width="121" height="120" viewBox="0 0 121 120" fill="none" xmlns="http://www.w3.org/2000/svg">
<mask id="mask0_9_8351" style="mask-type:alpha" maskUnits="userSpaceOnUse" x="0" y="0" width="121" height="120">
<circle cx="60.2188" cy="60" r="60" fill="#D9D9D9"/>
</mask>
<g mask="url(#mask0_9_8351)">
<rect x="-20.7812" y="-3" width="158" height="123" fill="#CFDBE9"/>
<path d="M32.3627 103.601L27.0758 138.739L-19.7673 131.69H-19.7682L-39.5048 128.72L-34.2187 93.5842L2.63497 99.1287L32.3627 103.601Z" fill="#DCEAFF"/>
<path d="M27.965 106.958L23.8603 134.236L-35.9846 125.231L-31.8799 97.9526L27.965 106.958ZM23.5333 130.764L26.6285 110.192C26.8388 108.796 25.8766 107.493 24.4804 107.283L-28.5994 99.2962C-30.0205 99.0823 -31.3462 100.061 -31.5609 101.483L-34.6437 121.972C-34.8557 123.381 -33.8846 124.697 -32.4751 124.909L20.6395 132.9C22.0285 133.11 23.324 132.154 23.5333 130.764Z" fill="#C0D8FB"/>
<path d="M-5.11368 123.434C-9.16666 122.824 -11.958 119.044 -11.3486 114.99C-10.7383 110.937 -6.95886 108.146 -2.90499 108.755C1.14799 109.365 3.93937 113.145 3.32995 117.199C2.71964 121.252 -1.0607 124.044 -5.11368 123.434Z" fill="#C0D8FB"/>
<path d="M36.6741 103.765L8.80661 125.809L-20.5817 88.6572L-20.5826 88.6563L-32.9651 73.0021L-5.09771 50.9589L18.0227 80.1877L36.6741 103.765Z" fill="#DCEAFF"/>
<path d="M31.1697 103.211L9.53456 120.325L-28.0105 72.8605L-6.37532 55.7469L31.1697 103.211ZM11.6675 117.566L27.9837 104.66C29.0911 103.784 29.2791 102.176 28.4024 101.068L-4.8981 58.9687C-5.78995 57.8416 -7.42665 57.65 -8.55461 58.5419L-24.8057 71.3967C-25.9239 72.2814 -26.1128 73.9047 -25.2289 75.0229L8.09387 117.148C8.96612 118.251 10.5663 118.438 11.6675 117.566Z" fill="#C0D8FB"/>
<path d="M5.15301 94.5438C8.74528 92.5698 10.0571 88.0574 8.0831 84.4652C6.10908 80.8729 1.5967 79.5611 -1.99557 81.5351C-5.58783 83.5091 -6.89967 88.0215 -4.92565 91.6138C-2.95162 95.206 1.56074 96.5179 5.15301 94.5438Z" fill="#C0D8FB"/>
<path d="M96.9181 64.6218C96.9466 64.5603 96.9823 64.5051 97.0233 64.4543V64.4534C97.0544 64.416 97.0883 64.3813 97.1257 64.3492L97.2807 64.1924L97.3217 64.2227C98.1138 63.8351 99.7505 64.2458 101.405 65.3266C103.405 66.6327 104.69 68.4307 104.319 69.3867L104.375 69.4285L104.153 69.6504C104.142 69.662 104.131 69.6727 104.12 69.6834L104.114 69.6896L104.112 69.6905C104.056 69.7422 103.991 69.7867 103.919 69.8241L103.918 69.825C103.136 70.2349 101.483 69.8268 99.8093 68.7345C97.7726 67.4043 96.478 65.5627 96.9181 64.6218Z" fill="#FFAC00"/>
<path d="M101.644 65.0887C99.6061 63.7585 97.597 63.4422 97.156 64.384C96.715 65.3248 98.0104 67.1664 100.048 68.4966C102.086 69.8268 104.095 70.1431 104.536 69.2014C104.977 68.2605 103.682 66.4189 101.644 65.0887Z" fill="#FFB93E"/>
<path d="M100.161 68.2302C99.3085 67.6716 98.5735 66.998 98.0915 66.3343C97.5988 65.6545 97.4286 65.0602 97.6121 64.6593C97.7057 64.4552 97.8821 64.3145 98.136 64.2414C98.888 64.0249 100.22 64.4392 101.531 65.2972C102.384 65.8558 103.118 66.5294 103.6 67.1932C104.093 67.873 104.263 68.4672 104.08 68.8682C103.986 69.0722 103.81 69.213 103.556 69.286C103.423 69.3243 103.272 69.343 103.108 69.343C102.334 69.3422 101.24 68.9368 100.161 68.2302ZM98.1779 64.3849C97.9676 64.4454 97.8233 64.5586 97.7485 64.7216C97.5908 65.0664 97.76 65.6215 98.2126 66.247C98.684 66.8965 99.4048 67.5567 100.243 68.1055C101.287 68.7898 102.373 69.1934 103.112 69.1934C103.262 69.1934 103.396 69.1764 103.515 69.1426C103.725 69.082 103.869 68.9688 103.944 68.8058C104.102 68.461 103.933 67.9059 103.48 67.2805C103.009 66.631 102.288 65.9708 101.45 65.4219C100.404 64.7377 99.3192 64.335 98.5806 64.335C98.4309 64.335 98.2955 64.351 98.1779 64.3849Z" fill="#FFAC00"/>
<path d="M109.227 16.8103C109.247 16.7666 109.272 16.7274 109.302 16.6918C109.324 16.6651 109.348 16.641 109.375 16.6178L109.484 16.5065L109.513 16.5279C110.075 16.2525 111.237 16.5448 112.412 17.3119C113.832 18.2394 114.744 19.5161 114.481 20.1942L114.521 20.2236L114.363 20.3813C114.356 20.3893 114.348 20.3973 114.34 20.4044L114.335 20.4089L114.334 20.4098C114.294 20.4463 114.248 20.4784 114.197 20.5051L114.196 20.506C113.641 20.7973 112.467 20.5069 111.279 19.7317C109.833 18.7855 108.914 17.4785 109.227 16.8103Z" fill="#FFAC00"/>
<path d="M112.581 17.1417C111.134 16.1972 109.708 15.9727 109.395 16.6409C109.082 17.3092 110.001 18.6162 111.448 19.5606C112.895 20.505 114.321 20.7296 114.634 20.0613C114.948 19.394 114.028 18.087 112.581 17.1417Z" fill="#FFB93E"/>
<path d="M111.529 19.3717C110.923 18.9752 110.402 18.4968 110.06 18.0255C109.71 17.5435 109.589 17.1212 109.719 16.836C109.786 16.6908 109.911 16.591 110.092 16.5394C110.625 16.3852 111.572 16.6801 112.502 17.2887C113.108 17.6851 113.629 18.1636 113.971 18.6349C114.321 19.1169 114.441 19.5392 114.311 19.8243C114.245 19.9696 114.12 20.0693 113.939 20.121C113.845 20.1477 113.738 20.1611 113.621 20.1611C113.072 20.162 112.295 19.8742 111.529 19.3717ZM110.12 16.6427C109.971 16.6855 109.868 16.7666 109.816 16.8815C109.703 17.1256 109.824 17.5203 110.145 17.964C110.479 18.4255 110.992 18.8933 111.587 19.2835C112.328 19.7691 113.099 20.056 113.624 20.0551C113.73 20.0551 113.826 20.0435 113.91 20.0194C114.059 19.9767 114.162 19.8956 114.214 19.7807C114.327 19.5365 114.206 19.1418 113.885 18.6982C113.551 18.2366 113.038 17.768 112.443 17.3786C111.702 16.8931 110.931 16.6071 110.406 16.6071C110.3 16.6062 110.204 16.6178 110.12 16.6427Z" fill="#FFAC00"/>
<path d="M114.42 54.7107C114.4 54.6662 114.374 54.6252 114.343 54.5887C114.32 54.5611 114.295 54.5361 114.268 54.513L114.155 54.398L114.125 54.4203C113.546 54.137 112.35 54.4372 111.141 55.2266C109.679 56.1808 108.741 57.495 109.012 58.1935L108.971 58.2238L109.133 58.386C109.141 58.394 109.149 58.402 109.157 58.41L109.162 58.4145L109.163 58.4154C109.204 58.4528 109.252 58.4857 109.304 58.5134L109.305 58.5143C109.877 58.8136 111.085 58.516 112.308 57.7177C113.796 56.7439 114.742 55.3986 114.42 54.7107Z" fill="#FFAC00"/>
<path d="M110.967 55.052C112.456 54.0799 113.924 53.8492 114.246 54.537C114.568 55.2248 113.623 56.5702 112.133 57.5422C110.644 58.5142 109.176 58.745 108.853 58.0572C108.532 57.3702 109.478 56.024 110.967 55.052Z" fill="#FFB93E"/>
<path d="M109.898 58.1605C109.776 58.1605 109.667 58.1471 109.57 58.1186C109.384 58.0652 109.255 57.9627 109.187 57.813C109.052 57.5199 109.177 57.086 109.537 56.5889C109.889 56.1042 110.426 55.6115 111.049 55.2034C112.006 54.5762 112.979 54.2741 113.529 54.4318C113.714 54.4853 113.844 54.5878 113.912 54.7374C114.047 55.0306 113.922 55.4645 113.562 55.9616C113.21 56.4472 112.673 56.939 112.05 57.3471C111.262 57.8638 110.462 58.1605 109.898 58.1605ZM113.206 54.5013C112.666 54.5013 111.873 54.7962 111.109 55.2961C110.497 55.697 109.97 56.179 109.626 56.6539C109.294 57.1101 109.171 57.5163 109.286 57.7685C109.341 57.8879 109.447 57.9698 109.6 58.0144C109.686 58.0393 109.785 58.0509 109.894 58.0509C110.434 58.0509 111.227 57.756 111.99 57.2562C112.603 56.8553 113.13 56.3732 113.474 55.8984C113.805 55.4422 113.928 55.0359 113.813 54.7838C113.759 54.6653 113.653 54.5824 113.5 54.5379C113.413 54.5129 113.314 54.5013 113.206 54.5013Z" fill="#FFAC00"/>
<path d="M97.5507 28.0139C97.5632 27.9872 97.5792 27.9623 97.5979 27.9391C97.6113 27.9222 97.6264 27.907 97.6434 27.8928L97.712 27.8233L97.7298 27.8366C98.0817 27.6638 98.8096 27.8473 99.5447 28.3276C100.434 28.9085 101.005 29.7077 100.84 30.1326L100.865 30.1514L100.766 30.2503C100.762 30.2556 100.756 30.2601 100.752 30.2645L100.749 30.2672L100.748 30.2681C100.723 30.2912 100.695 30.3108 100.663 30.3278H100.662C100.314 30.5095 99.5794 30.3287 98.8355 29.8431C97.9302 29.2506 97.3547 28.4327 97.5507 28.0139Z" fill="#FFAC00"/>
<path d="M99.6507 28.2215C98.7446 27.6299 97.8518 27.4901 97.6558 27.9079C97.4598 28.3258 98.0353 29.1446 98.9414 29.7362C99.8476 30.3278 100.74 30.4677 100.936 30.0498C101.132 29.6319 100.557 28.8131 99.6507 28.2215Z" fill="#FFB93E"/>
<path d="M98.9914 29.6177C98.6118 29.3691 98.2857 29.0697 98.071 28.7748C97.8518 28.4728 97.7761 28.2082 97.8581 28.03C97.9 27.9391 97.9784 27.8768 98.0906 27.8438C98.4247 27.7476 99.0172 27.932 99.5999 28.3133C99.9794 28.5619 100.306 28.8613 100.519 29.1562C100.739 29.4582 100.814 29.7228 100.732 29.901C100.69 29.9919 100.612 30.0543 100.499 30.0872C100.44 30.1042 100.373 30.1122 100.299 30.1122C99.9581 30.1122 99.4716 29.9322 98.9914 29.6177ZM98.1102 27.9088C98.0167 27.9356 97.9525 27.9863 97.9195 28.0585C97.8492 28.2118 97.9249 28.4585 98.1263 28.7365C98.3356 29.0252 98.6564 29.3183 99.0288 29.5624C99.493 29.8663 99.9759 30.0462 100.304 30.0453C100.371 30.0453 100.43 30.0382 100.483 30.0231C100.576 29.9963 100.641 29.9456 100.674 29.8734C100.744 29.7201 100.668 29.4734 100.467 29.1954C100.257 28.9067 99.9367 28.6136 99.5643 28.3694C99.1001 28.0656 98.6172 27.8857 98.2893 27.8857C98.2225 27.8865 98.1628 27.8937 98.1102 27.9088Z" fill="#FFAC00"/>
<path d="M29.8235 56.5702C29.7994 56.5185 29.77 56.4722 29.7344 56.4294C29.7085 56.3982 29.68 56.3688 29.6479 56.3421L29.5179 56.2103L29.484 56.2352C28.8185 55.9091 27.4428 56.2548 26.052 57.1627C24.3708 58.2604 23.2918 59.7714 23.6028 60.5742L23.5555 60.6089L23.7427 60.7951C23.7516 60.8049 23.7605 60.8138 23.7703 60.8228L23.7756 60.8281L23.7774 60.829C23.8246 60.8726 23.879 60.9101 23.9387 60.9413L23.9396 60.9421C24.5971 61.2869 25.987 60.9439 27.3929 60.0253C29.1062 58.9081 30.1941 57.3614 29.8235 56.5702Z" fill="#FFAC00"/>
<path d="M25.8525 56.9622C27.5649 55.844 29.2533 55.5785 29.6239 56.3697C29.9946 57.1608 28.9058 58.7076 27.1934 59.8257C25.481 60.9439 23.7926 61.2094 23.4219 60.4182C23.0522 59.6279 24.1401 58.0803 25.8525 56.9622Z" fill="#FFB93E"/>
<path d="M24.6229 60.5376C24.4839 60.5376 24.3574 60.5216 24.2461 60.4895C24.0322 60.428 23.8843 60.3095 23.8059 60.1385C23.6518 59.8017 23.7943 59.3019 24.2086 58.7308C24.6131 58.173 25.2306 57.6073 25.9478 57.1377C27.049 56.4169 28.1681 56.0686 28.8006 56.2503C29.0145 56.3118 29.1624 56.4303 29.2408 56.6014C29.3949 56.9381 29.2524 57.438 28.8381 58.0091C28.4336 58.5668 27.8161 59.1326 27.0989 59.6021C26.1919 60.1964 25.2724 60.5376 24.6229 60.5376ZM28.4273 56.3287C27.8063 56.3287 26.894 56.6673 26.0164 57.2428C25.3116 57.7044 24.7058 58.2585 24.3102 58.8047C23.9298 59.3295 23.7872 59.7972 23.92 60.0859C23.9823 60.2231 24.1044 60.3176 24.2808 60.3692C24.3797 60.3977 24.4937 60.412 24.6185 60.412C25.2395 60.412 26.1518 60.0734 27.0294 59.4979C27.7342 59.0364 28.34 58.4822 28.7356 57.936C29.116 57.4112 29.2586 56.9435 29.1258 56.6548C29.0635 56.5176 28.9414 56.4232 28.765 56.3715C28.6661 56.3421 28.553 56.3287 28.4273 56.3287Z" fill="#FFAC00"/>
<path d="M11.6737 35.1043C11.6594 35.074 11.6425 35.0472 11.622 35.0223C11.6069 35.0036 11.5899 34.9867 11.5721 34.9715L11.4964 34.8949L11.4768 34.91C11.0892 34.7203 10.2882 34.9216 9.47836 35.45C8.4992 36.0888 7.87107 36.969 8.05193 37.4368L8.02431 37.4573L8.13301 37.566C8.13835 37.5713 8.14371 37.5767 8.14905 37.582L8.15172 37.5847L8.15261 37.5856C8.18023 37.6105 8.21142 37.6328 8.24705 37.6515H8.24795C8.63106 37.852 9.44005 37.6524 10.2588 37.1178C11.2558 36.4656 11.8893 35.5649 11.6737 35.1043Z" fill="#FFAC00"/>
<path d="M9.36077 35.3332C10.3578 34.6819 11.3414 34.5278 11.557 34.9884C11.7726 35.449 11.1391 36.3498 10.1421 37.0011C9.14516 37.6524 8.16154 37.8065 7.94592 37.3459C7.73031 36.8853 8.36379 35.9845 9.36077 35.3332Z" fill="#FFB93E"/>
<path d="M8.6453 37.4145C8.56423 37.4145 8.49028 37.4056 8.42613 37.3869C8.3014 37.3512 8.21586 37.2826 8.16953 37.1819C8.07955 36.9859 8.1633 36.6946 8.40386 36.3623C8.63907 36.0371 8.99902 35.7083 9.41688 35.4348C10.0584 35.0151 10.7097 34.812 11.0776 34.918C11.2024 34.9537 11.2879 35.0223 11.3342 35.1229C11.4242 35.319 11.3405 35.6103 11.0999 35.9426C10.8647 36.2678 10.5047 36.5966 10.0869 36.8701C9.55854 37.2158 9.02307 37.4145 8.6453 37.4145ZM10.8602 34.9643C10.4985 34.9643 9.96749 35.1621 9.45608 35.4963C9.04624 35.7644 8.69342 36.0878 8.46266 36.4059C8.24081 36.7115 8.15795 36.9833 8.23546 37.1525C8.27199 37.2318 8.34238 37.288 8.44573 37.3174C8.50364 37.3343 8.56957 37.3423 8.64263 37.3423C9.00436 37.3423 9.53538 37.1445 10.0468 36.8104C10.4566 36.5422 10.8094 36.2188 11.0402 35.9007C11.2621 35.5951 11.3449 35.3234 11.2674 35.1541C11.2309 35.0748 11.1605 35.0187 11.0571 34.9893C10.9992 34.9724 10.9333 34.9643 10.8602 34.9643Z" fill="#FFAC00"/>
<path d="M28.0567 41.3313C28.0745 41.293 28.0968 41.2582 28.1226 41.227C28.1422 41.2039 28.1636 41.1816 28.1868 41.162L28.2839 41.064L28.3097 41.0827C28.8051 40.8403 29.8279 41.0969 30.8623 41.7723C32.1123 42.5884 32.9151 43.7128 32.6835 44.3097L32.7191 44.3356L32.5801 44.4746C32.5739 44.4817 32.5667 44.4888 32.5596 44.4951L32.556 44.4986L32.5552 44.4995C32.5195 44.5316 32.4794 44.5592 32.4349 44.5833L32.434 44.5842C31.9448 44.8408 30.9113 44.5851 29.8653 43.9026C28.5904 43.0704 27.7814 41.9193 28.0567 41.3313Z" fill="#FFAC00"/>
<path d="M31.0102 41.6235C29.7362 40.7922 28.4808 40.5944 28.2055 41.1825C27.9302 41.7705 28.7392 42.9216 30.0133 43.7529C31.2873 44.5841 32.5427 44.7819 32.818 44.1939C33.0933 43.6059 32.2843 42.4548 31.0102 41.6235Z" fill="#FFB93E"/>
<path d="M30.0836 43.5862C29.5509 43.237 29.0911 42.8165 28.79 42.4013C28.4817 41.9763 28.3757 41.6047 28.4906 41.3544C28.5494 41.227 28.659 41.1388 28.8185 41.0933C29.2889 40.9579 30.1211 41.2172 30.9399 41.7535C31.4726 42.1028 31.9324 42.5233 32.2335 42.9385C32.5418 43.3635 32.6478 43.735 32.5329 43.9854C32.4741 44.1128 32.3645 44.201 32.205 44.2464C32.1222 44.2705 32.0277 44.2821 31.9244 44.2821C31.4424 44.2821 30.7581 44.0282 30.0836 43.5862ZM28.8443 41.1833C28.7125 41.2216 28.6225 41.292 28.5761 41.3936C28.4773 41.6092 28.5833 41.9567 28.8666 42.3469C29.1606 42.7532 29.6114 43.1657 30.1353 43.5087C30.7884 43.9364 31.4664 44.1885 31.9288 44.1885C32.0224 44.1885 32.107 44.1778 32.1801 44.1573C32.3119 44.119 32.4019 44.0486 32.4483 43.9471C32.5472 43.7315 32.4411 43.384 32.1578 42.9937C31.8629 42.5875 31.413 42.175 30.8891 41.8319C30.236 41.4043 29.558 41.1521 29.0956 41.1521C29.002 41.1512 28.9174 41.1619 28.8443 41.1833Z" fill="#FFAC00"/>
<path d="M75.308 120.186V121.727C75.308 121.85 75.2635 121.964 75.1868 122.059C75.1067 122.158 74.9908 122.237 74.8545 122.281C74.8126 122.296 74.7699 122.305 74.7253 122.312C74.6843 122.318 74.6434 122.321 74.6006 122.321H45.362C45.2444 122.321 45.1339 122.297 45.0359 122.255C44.8292 122.164 44.6813 121.989 44.6581 121.785C44.6572 121.776 44.6563 121.767 44.6554 121.758C44.6554 121.749 44.6545 121.738 44.6545 121.728V120.187C44.6545 120.177 44.6545 120.166 44.6554 120.156C44.675 119.844 44.9851 119.592 45.362 119.592H74.5997C74.6425 119.592 74.6835 119.596 74.7244 119.602C74.769 119.609 74.8126 119.619 74.8536 119.633C74.989 119.676 75.1049 119.755 75.186 119.855C75.2635 119.949 75.308 120.063 75.308 120.186Z" fill="#FFB93E"/>
<path d="M60.9501 122.32H45.2861C45.1809 122.32 45.0821 122.296 44.9947 122.254C44.8094 122.163 44.6776 121.988 44.6571 121.784C44.6562 121.775 44.6553 121.766 44.6544 121.757C44.6544 121.748 44.6535 121.737 44.6535 121.727V120.186C44.6535 120.176 44.6535 120.165 44.6544 120.155C44.6713 119.843 44.9493 119.591 45.2852 119.591H59.0256C59.2394 120.373 59.7285 121.446 60.8529 122.254C60.8859 122.276 60.918 122.298 60.9501 122.32Z" fill="#FFAC00"/>
<path d="M71.7503 119.592H71.418V122.321H71.7503V119.592Z" fill="#FFAC00"/>
<path d="M70.625 119.592H70.2927V122.321H70.625V119.592Z" fill="#FFAC00"/>
<path d="M69.2761 119.592H68.9437V122.321H69.2761V119.592Z" fill="#FFAC00"/>
<path d="M67.2082 119.592H66.8759V122.321H67.2082V119.592Z" fill="#FFAC00"/>
<path d="M65.0217 119.592H64.6894V122.321H65.0217V119.592Z" fill="#FFAC00"/>
<path d="M61.6699 119.592H61.3376V122.321H61.6699V119.592Z" fill="#FFAC00"/>
<path d="M58.532 119.592H58.1996V122.321H58.532V119.592Z" fill="#FFAC00"/>
<path d="M55.7299 119.591H55.3976V122.321H55.7299V119.591Z" fill="#FFAC00"/>
<path d="M72.8203 119.592H72.488V122.321H72.8203V119.592Z" fill="#FFAC00"/>
<path d="M73.5278 119.592H73.1954V122.321H73.5278V119.592Z" fill="#FFAC00"/>
<path d="M74.2111 119.592H73.8788V122.321H74.2111V119.592Z" fill="#FFAC00"/>
<path d="M74.7251 119.601V122.312C74.6842 122.318 74.6432 122.321 74.6004 122.321H74.3928V119.592H74.6004C74.6432 119.592 74.6842 119.595 74.7251 119.601Z" fill="#FFAC00"/>
<path d="M75.1867 119.853V122.059C75.1065 122.158 74.9907 122.237 74.8544 122.281V119.632C74.9898 119.675 75.1056 119.754 75.1867 119.853Z" fill="#FFAC00"/>
<path d="M77.6965 117.456V118.997C77.6965 119.12 77.652 119.234 77.5754 119.329C77.4952 119.429 77.3794 119.507 77.243 119.551C77.2021 119.565 77.1584 119.576 77.1138 119.582C77.0729 119.588 77.0319 119.592 76.9891 119.592H47.7514C47.3745 119.592 47.0635 119.34 47.0448 119.028C47.0448 119.019 47.0439 119.008 47.0439 118.998V117.457C47.0439 117.447 47.0439 117.436 47.0448 117.427C47.0627 117.138 47.3299 116.901 47.6676 116.867C47.6952 116.864 47.7229 116.863 47.7514 116.863H76.9891C77.0319 116.863 77.0729 116.866 77.1138 116.872C77.1584 116.879 77.2021 116.889 77.243 116.903C77.3785 116.946 77.4943 117.026 77.5754 117.125C77.652 117.219 77.6965 117.333 77.6965 117.456Z" fill="#FFB93E"/>
<path d="M63.3396 119.592H47.6756C47.3398 119.592 47.0618 119.34 47.0448 119.028C47.0448 119.019 47.0439 119.008 47.0439 118.998V117.457C47.0439 117.447 47.0439 117.436 47.0448 117.427C47.0609 117.138 47.2988 116.901 47.6008 116.867C47.6249 116.864 47.6498 116.863 47.6756 116.863H61.416C61.416 116.863 61.4169 116.865 61.4169 116.867C61.637 117.67 62.1484 118.778 63.3396 119.592Z" fill="#FFAC00"/>
<path d="M74.1389 116.862H73.8066V119.591H74.1389V116.862Z" fill="#FFAC00"/>
<path d="M73.0145 116.862H72.6822V119.591H73.0145V116.862Z" fill="#FFAC00"/>
<path d="M71.6656 116.862H71.3333V119.591H71.6656V116.862Z" fill="#FFAC00"/>
<path d="M69.5976 116.862H69.2653V119.591H69.5976V116.862Z" fill="#FFAC00"/>
<path d="M67.4113 116.862H67.0789V119.591H67.4113V116.862Z" fill="#FFAC00"/>
<path d="M64.0594 116.862H63.7271V119.591H64.0594V116.862Z" fill="#FFAC00"/>
<path d="M60.9215 116.862H60.5892V119.591H60.9215V116.862Z" fill="#FFAC00"/>
<path d="M58.1194 116.862H57.7871V119.591H58.1194V116.862Z" fill="#FFAC00"/>
<path d="M75.2098 116.862H74.8775V119.591H75.2098V116.862Z" fill="#FFAC00"/>
<path d="M75.9172 116.862H75.5849V119.591H75.9172V116.862Z" fill="#FFAC00"/>
<path d="M76.6006 116.862H76.2683V119.591H76.6006V116.862Z" fill="#FFAC00"/>
<path d="M77.1147 116.871V119.582C77.0737 119.588 77.0327 119.591 76.9899 119.591H76.7823V116.862H76.9899C77.0318 116.862 77.0737 116.865 77.1147 116.871Z" fill="#FFAC00"/>
<path d="M77.5762 117.124V119.329C77.496 119.429 77.3802 119.508 77.2439 119.552V116.902C77.3793 116.946 77.4951 117.025 77.5762 117.124Z" fill="#FFAC00"/>
<path d="M73.8585 114.73V116.272C73.8585 116.395 73.8139 116.509 73.7373 116.603C73.6571 116.703 73.5413 116.781 73.405 116.826C73.364 116.84 73.3203 116.85 73.2758 116.856C73.2624 116.858 73.2482 116.86 73.2348 116.862C73.2241 116.863 73.2125 116.863 73.2018 116.864C73.1965 116.864 73.1911 116.865 73.1858 116.865C73.1742 116.865 73.1635 116.866 73.151 116.866H43.9133C43.5364 116.866 43.2255 116.615 43.2068 116.302C43.2068 116.292 43.2059 116.282 43.2059 116.272V114.73C43.2059 114.721 43.2059 114.71 43.2068 114.7C43.2255 114.387 43.5364 114.137 43.9133 114.137H73.151C73.1635 114.137 73.176 114.137 73.1885 114.138C73.2179 114.139 73.2473 114.142 73.2758 114.147C73.3203 114.153 73.364 114.164 73.405 114.177C73.4263 114.184 73.4468 114.191 73.4664 114.2C73.4789 114.206 73.4914 114.211 73.503 114.216C73.5039 114.216 73.5056 114.217 73.5065 114.218C73.519 114.224 73.5306 114.231 73.5422 114.237C73.5448 114.238 73.5466 114.24 73.5484 114.24C73.5591 114.247 73.5698 114.253 73.5805 114.26C73.6054 114.276 73.6286 114.293 73.6509 114.312C73.658 114.317 73.6642 114.323 73.6705 114.33C73.6714 114.33 73.6731 114.331 73.674 114.333C73.6785 114.337 73.682 114.34 73.6865 114.345C73.6874 114.346 73.6883 114.346 73.6892 114.347C73.6963 114.354 73.7034 114.362 73.7097 114.369C73.7195 114.379 73.7284 114.39 73.7382 114.401C73.8139 114.493 73.8585 114.608 73.8585 114.73Z" fill="#FFB93E"/>
<path d="M59.5004 116.866H43.8365C43.5006 116.866 43.2226 116.615 43.2057 116.302C43.2057 116.292 43.2048 116.282 43.2048 116.272V114.73C43.2048 114.721 43.2048 114.71 43.2057 114.7C43.2226 114.387 43.4997 114.137 43.8365 114.137H57.5769C57.5822 114.158 57.5884 114.179 57.5947 114.2C57.8228 114.997 58.3368 116.07 59.4942 116.863C59.4969 116.863 59.4987 116.865 59.5004 116.866Z" fill="#FFAC00"/>
<path d="M70.3006 114.136H69.9683V116.866H70.3006V114.136Z" fill="#FFAC00"/>
<path d="M69.1753 114.136H68.843V116.866H69.1753V114.136Z" fill="#FFAC00"/>
<path d="M67.8264 114.136H67.4941V116.866H67.8264V114.136Z" fill="#FFAC00"/>
<path d="M65.7594 114.136H65.4271V116.866H65.7594V114.136Z" fill="#FFAC00"/>
<path d="M63.573 114.136H63.2407V116.866H63.573V114.136Z" fill="#FFAC00"/>
<path d="M60.2212 114.136H59.8889V116.866H60.2212V114.136Z" fill="#FFAC00"/>
<path d="M57.0823 114.136H56.75V116.866H57.0823V114.136Z" fill="#FFAC00"/>
<path d="M54.2803 114.136H53.9479V116.866H54.2803V114.136Z" fill="#FFAC00"/>
<path d="M71.3716 114.136H71.0392V116.866H71.3716V114.136Z" fill="#FFAC00"/>
<path d="M72.079 114.136H71.7466V116.866H72.079V114.136Z" fill="#FFAC00"/>
<path d="M72.7615 114.136H72.4291V116.866H72.7615V114.136Z" fill="#FFAC00"/>
<path d="M73.2755 114.146V116.856C73.2345 116.862 73.1935 116.866 73.1508 116.866H72.9432V114.136H73.1508C73.1935 114.136 73.2345 114.14 73.2755 114.146Z" fill="#FFAC00"/>
<path d="M73.7371 114.399V116.604C73.6569 116.704 73.541 116.782 73.4047 116.827V114.177C73.541 114.221 73.6569 114.299 73.7371 114.399Z" fill="#FFAC00"/>
<path d="M76.0082 112.064V113.605C76.0082 113.728 75.9636 113.842 75.887 113.937C75.8068 114.036 75.691 114.115 75.5547 114.159C75.5137 114.173 75.47 114.183 75.4255 114.19C75.3845 114.196 75.3435 114.199 75.3008 114.199H46.063C45.9499 114.199 45.8421 114.177 45.7467 114.136C45.5338 114.046 45.3814 113.868 45.3583 113.66C45.3574 113.652 45.3565 113.644 45.3565 113.636C45.3565 113.626 45.3556 113.616 45.3556 113.606V112.065C45.3556 112.055 45.3556 112.044 45.3565 112.034C45.3743 111.745 45.6416 111.509 45.9793 111.475C46.0069 111.472 46.0345 111.47 46.063 111.47H75.3008C75.3435 111.47 75.3845 111.474 75.4255 111.48C75.47 111.486 75.5137 111.497 75.5547 111.51C75.6901 111.554 75.8059 111.633 75.887 111.733C75.9636 111.828 76.0082 111.941 76.0082 112.064Z" fill="#FFB93E"/>
<path d="M61.6504 114.199H45.9864C45.8848 114.199 45.7895 114.177 45.7049 114.136C45.5142 114.046 45.3788 113.868 45.3583 113.66C45.3574 113.652 45.3565 113.644 45.3565 113.636C45.3565 113.626 45.3556 113.616 45.3556 113.606V112.065C45.3556 112.055 45.3556 112.044 45.3565 112.034C45.3725 111.746 45.6104 111.509 45.9124 111.475C45.9365 111.472 45.9614 111.47 45.9873 111.47H59.7277C59.7277 111.471 59.7286 111.473 59.7286 111.475C59.9433 112.257 60.4342 113.33 61.5613 114.137C61.5898 114.158 61.6201 114.179 61.6504 114.199Z" fill="#FFAC00"/>
<path d="M72.4506 111.47H72.1182V114.2H72.4506V111.47Z" fill="#FFAC00"/>
<path d="M71.3253 111.47H70.993V114.2H71.3253V111.47Z" fill="#FFAC00"/>
<path d="M69.9764 111.47H69.644V114.2H69.9764V111.47Z" fill="#FFAC00"/>
<path d="M67.9094 111.47H67.577V114.2H67.9094V111.47Z" fill="#FFAC00"/>
<path d="M65.723 111.47H65.3906V114.2H65.723V111.47Z" fill="#FFAC00"/>
<path d="M62.3702 111.47H62.0379V114.2H62.3702V111.47Z" fill="#FFAC00"/>
<path d="M59.2323 111.47H58.9V114.2H59.2323V111.47Z" fill="#FFAC00"/>
<path d="M56.4302 111.47H56.0979V114.2H56.4302V111.47Z" fill="#FFAC00"/>
<path d="M73.5206 111.47H73.1883V114.2H73.5206V111.47Z" fill="#FFAC00"/>
<path d="M74.228 111.47H73.8957V114.2H74.228V111.47Z" fill="#FFAC00"/>
<path d="M74.9114 111.47H74.5791V114.2H74.9114V111.47Z" fill="#FFAC00"/>
<path d="M75.4255 111.479V114.19C75.3845 114.196 75.3436 114.199 75.3008 114.199H75.0932V111.469H75.3008C75.3436 111.469 75.3845 111.473 75.4255 111.479Z" fill="#FFAC00"/>
<path d="M75.887 111.732V113.937C75.8068 114.037 75.691 114.116 75.5547 114.16V111.51C75.6901 111.554 75.8059 111.632 75.887 111.732Z" fill="#FFAC00"/>
<path d="M76.9233 109.338V110.88C76.9233 111.002 76.8787 111.117 76.8021 111.211C76.7219 111.311 76.6061 111.389 76.4698 111.434C76.4279 111.448 76.3851 111.458 76.3406 111.464C76.3272 111.466 76.313 111.468 76.2996 111.469C76.2925 111.47 76.2845 111.47 76.2764 111.471C76.2693 111.472 76.2613 111.472 76.2533 111.472C76.2408 111.473 76.2283 111.473 76.2159 111.473H46.9781C46.6012 111.473 46.2903 111.222 46.2716 110.909C46.2716 110.899 46.2707 110.888 46.2707 110.879V109.337C46.2707 109.327 46.2707 109.317 46.2716 109.307C46.2903 108.994 46.6012 108.743 46.9781 108.743H76.2159C76.2586 108.743 76.2996 108.747 76.3406 108.753C76.3851 108.759 76.4288 108.77 76.4698 108.783C76.6052 108.827 76.721 108.906 76.8021 109.006C76.8787 109.102 76.9233 109.216 76.9233 109.338Z" fill="#FFB93E"/>
<path d="M62.5654 111.474H46.9014C46.5655 111.474 46.2875 111.223 46.2706 110.91C46.2706 110.9 46.2697 110.889 46.2697 110.88V109.338C46.2697 109.328 46.2697 109.318 46.2706 109.308C46.2875 108.995 46.5646 108.744 46.9014 108.744H60.6418C60.861 109.546 61.3706 110.655 62.5591 111.469C62.5609 111.471 62.5636 111.473 62.5654 111.474Z" fill="#FFAC00"/>
<path d="M73.3657 108.745H73.0333V111.475H73.3657V108.745Z" fill="#FFAC00"/>
<path d="M72.2403 108.745H71.908V111.475H72.2403V108.745Z" fill="#FFAC00"/>
<path d="M70.8914 108.745H70.5591V111.475H70.8914V108.745Z" fill="#FFAC00"/>
<path d="M68.8244 108.745H68.4921V111.475H68.8244V108.745Z" fill="#FFAC00"/>
<path d="M66.638 108.745H66.3057V111.475H66.638V108.745Z" fill="#FFAC00"/>
<path d="M63.2853 108.745H62.9529V111.475H63.2853V108.745Z" fill="#FFAC00"/>
<path d="M60.1473 108.745H59.815V111.475H60.1473V108.745Z" fill="#FFAC00"/>
<path d="M57.3453 108.745H57.0129V111.475H57.3453V108.745Z" fill="#FFAC00"/>
<path d="M74.4357 108.745H74.1033V111.475H74.4357V108.745Z" fill="#FFAC00"/>
<path d="M75.1431 108.745H74.8108V111.475H75.1431V108.745Z" fill="#FFAC00"/>
<path d="M75.8265 108.745H75.4941V111.475H75.8265V108.745Z" fill="#FFAC00"/>
<path d="M76.3405 108.754V111.464C76.2995 111.47 76.2585 111.474 76.2158 111.474H76.0082V108.744H76.2158C76.2585 108.745 76.2995 108.748 76.3405 108.754Z" fill="#FFAC00"/>
<path d="M76.8021 109.007V111.212C76.7219 111.312 76.606 111.39 76.4697 111.435V108.785C76.6052 108.829 76.721 108.907 76.8021 109.007Z" fill="#FFAC00"/>
<path d="M75.4023 106.562V108.103C75.4023 108.226 75.3578 108.34 75.2812 108.435C75.201 108.534 75.0852 108.613 74.9489 108.657C74.9079 108.672 74.8642 108.681 74.8197 108.688C74.7787 108.694 74.7377 108.697 74.6949 108.697H45.4572C45.0803 108.697 44.7694 108.446 44.7506 108.134C44.7506 108.124 44.7498 108.113 44.7498 108.103V106.562C44.7498 106.552 44.7498 106.541 44.7506 106.532C44.7702 106.219 45.0803 105.968 45.4572 105.968H74.6949C74.7377 105.968 74.7787 105.971 74.8197 105.977C74.8642 105.984 74.9079 105.994 74.9489 106.008C75.0843 106.051 75.2001 106.131 75.2812 106.23C75.3578 106.326 75.4023 106.439 75.4023 106.562Z" fill="#FFB93E"/>
<path d="M61.0454 108.697H45.3815C45.0456 108.697 44.7676 108.446 44.7506 108.134C44.7506 108.124 44.7498 108.113 44.7498 108.103V106.562C44.7498 106.552 44.7498 106.541 44.7506 106.532C44.7676 106.219 45.0456 105.968 45.3815 105.968H59.1218C59.341 106.772 59.8524 107.883 61.0454 108.697Z" fill="#FFAC00"/>
<path d="M71.8448 105.968H71.5125V108.698H71.8448V105.968Z" fill="#FFAC00"/>
<path d="M70.7203 105.968H70.388V108.698H70.7203V105.968Z" fill="#FFAC00"/>
<path d="M69.3715 105.968H69.0391V108.698H69.3715V105.968Z" fill="#FFAC00"/>
<path d="M67.3035 105.968H66.9712V108.698H67.3035V105.968Z" fill="#FFAC00"/>
<path d="M65.1171 105.968H64.7848V108.698H65.1171V105.968Z" fill="#FFAC00"/>
<path d="M61.7653 105.968H61.433V108.698H61.7653V105.968Z" fill="#FFAC00"/>
<path d="M58.6265 105.968H58.2941V108.698H58.6265V105.968Z" fill="#FFAC00"/>
<path d="M55.8244 105.969H55.4921V108.698H55.8244V105.969Z" fill="#FFAC00"/>
<path d="M72.9156 105.968H72.5833V108.698H72.9156V105.968Z" fill="#FFAC00"/>
<path d="M73.6231 105.968H73.2908V108.698H73.6231V105.968Z" fill="#FFAC00"/>
<path d="M74.3055 105.968H73.9732V108.698H74.3055V105.968Z" fill="#FFAC00"/>
<path d="M74.8196 105.977V108.688C74.7786 108.694 74.7377 108.697 74.6949 108.697H74.4873V105.968H74.6949C74.7377 105.968 74.7795 105.971 74.8196 105.977Z" fill="#FFAC00"/>
<path d="M75.2812 106.23V108.436C75.201 108.535 75.0852 108.614 74.9489 108.658V106.009C75.0852 106.052 75.201 106.131 75.2812 106.23Z" fill="#FFAC00"/>
<path d="M72.277 103.833V105.374C72.277 105.497 72.2324 105.611 72.1558 105.706C72.0756 105.806 71.9598 105.884 71.8235 105.929C71.7825 105.942 71.7388 105.953 71.6943 105.959C71.6533 105.965 71.6123 105.969 71.5696 105.969H42.3318C41.9549 105.969 41.644 105.717 41.6253 105.406C41.6253 105.396 41.6244 105.385 41.6244 105.375V103.834C41.6244 103.823 41.6244 103.813 41.6253 103.804C41.6449 103.491 41.9549 103.241 42.3318 103.241H71.5696C71.5883 103.241 71.607 103.241 71.6257 103.242C71.6337 103.242 71.6417 103.243 71.6497 103.244C71.6587 103.245 71.6676 103.246 71.6756 103.247C71.6818 103.248 71.6881 103.249 71.6943 103.25C71.7388 103.256 71.7825 103.266 71.8235 103.28C71.8297 103.282 71.836 103.283 71.8422 103.286C71.8484 103.288 71.8547 103.291 71.86 103.292C71.8716 103.297 71.8841 103.302 71.8956 103.307C71.9028 103.309 71.909 103.313 71.9161 103.316C71.9224 103.319 71.9286 103.322 71.934 103.325C71.9455 103.331 71.9562 103.337 71.9669 103.343C71.9794 103.35 71.9919 103.358 72.0035 103.365C72.0133 103.372 72.0222 103.378 72.0311 103.384C72.0311 103.384 72.032 103.385 72.0329 103.385C72.0391 103.389 72.0453 103.394 72.0507 103.398C72.0685 103.413 72.0863 103.427 72.1023 103.443C72.1077 103.447 72.1122 103.452 72.1166 103.456C72.1211 103.461 72.1255 103.466 72.13 103.47C72.1389 103.48 72.1478 103.49 72.1558 103.501C72.2324 103.596 72.277 103.71 72.277 103.833Z" fill="#FFB93E"/>
<path d="M57.919 105.969H42.255C41.9183 105.969 41.6412 105.717 41.6242 105.406C41.6242 105.396 41.6234 105.385 41.6234 105.375V103.834C41.6234 103.823 41.6234 103.813 41.6242 103.804C41.6412 103.491 41.9183 103.241 42.255 103.241H55.9954C56.0017 103.263 56.0079 103.285 56.015 103.308C56.244 104.103 56.759 105.177 57.919 105.969Z" fill="#FFAC00"/>
<path d="M68.7183 103.239H68.386V105.968H68.7183V103.239Z" fill="#FFAC00"/>
<path d="M67.5939 103.239H67.2616V105.968H67.5939V103.239Z" fill="#FFAC00"/>
<path d="M66.245 103.239H65.9127V105.968H66.245V103.239Z" fill="#FFAC00"/>
<path d="M64.1771 103.239H63.8448V105.968H64.1771V103.239Z" fill="#FFAC00"/>
<path d="M61.9907 103.239H61.6584V105.968H61.9907V103.239Z" fill="#FFAC00"/>
<path d="M58.6389 103.239H58.3066V105.968H58.6389V103.239Z" fill="#FFAC00"/>
<path d="M55.501 103.239H55.1686V105.968H55.501V103.239Z" fill="#FFAC00"/>
<path d="M52.698 103.239H52.3657V105.968H52.698V103.239Z" fill="#FFAC00"/>
<path d="M69.7893 103.239H69.457V105.968H69.7893V103.239Z" fill="#FFAC00"/>
<path d="M70.4967 103.239H70.1644V105.968H70.4967V103.239Z" fill="#FFAC00"/>
<path d="M71.18 103.239H70.8477V105.968H71.18V103.239Z" fill="#FFAC00"/>
<path d="M71.6941 103.248V105.959C71.6532 105.965 71.6122 105.968 71.5694 105.968H71.3618V103.239H71.5694C71.6113 103.239 71.6532 103.242 71.6941 103.248Z" fill="#FFAC00"/>
<path d="M72.1548 103.501V105.706C72.0746 105.805 71.9588 105.884 71.8224 105.928V103.279C71.9588 103.322 72.0746 103.401 72.1548 103.501Z" fill="#FFAC00"/>
<path d="M73.7871 101.171V102.712C73.7871 102.835 73.7425 102.949 73.6659 103.043C73.5857 103.143 73.4699 103.222 73.3336 103.266C73.2917 103.28 73.2489 103.29 73.2044 103.296C73.1634 103.303 73.1224 103.306 73.0796 103.306H43.8419C43.7243 103.306 43.6138 103.282 43.5158 103.239C43.3091 103.148 43.1612 102.973 43.138 102.769C43.1371 102.76 43.1362 102.751 43.1354 102.742C43.1354 102.732 43.1345 102.722 43.1345 102.712V101.171C43.1345 101.161 43.1345 101.15 43.1354 101.14C43.155 100.828 43.465 100.576 43.8419 100.576H73.0796C73.1224 100.576 73.1634 100.58 73.2044 100.586C73.2489 100.592 73.2926 100.603 73.3336 100.616C73.469 100.66 73.5848 100.739 73.6659 100.839C73.7425 100.934 73.7871 101.048 73.7871 101.171Z" fill="#FFB93E"/>
<path d="M59.4292 103.306H43.7652C43.6601 103.306 43.5612 103.282 43.4739 103.239C43.2885 103.148 43.1576 102.973 43.1362 102.769C43.1353 102.76 43.1344 102.751 43.1335 102.742C43.1335 102.733 43.1326 102.722 43.1326 102.712V101.171C43.1326 101.161 43.1326 101.15 43.1335 101.14C43.1504 100.828 43.4284 100.576 43.7643 100.576H57.5056C57.7194 101.358 58.2086 102.431 59.333 103.239C59.365 103.261 59.3971 103.283 59.4292 103.306Z" fill="#FFAC00"/>
<path d="M70.2294 100.577H69.897V103.306H70.2294V100.577Z" fill="#FFAC00"/>
<path d="M69.1041 100.577H68.7717V103.306H69.1041V100.577Z" fill="#FFAC00"/>
<path d="M67.7552 100.577H67.4229V103.306H67.7552V100.577Z" fill="#FFAC00"/>
<path d="M65.6882 100.577H65.3558V103.306H65.6882V100.577Z" fill="#FFAC00"/>
<path d="M63.5018 100.577H63.1694V103.306H63.5018V100.577Z" fill="#FFAC00"/>
<path d="M60.15 100.577H59.8176V103.306H60.15V100.577Z" fill="#FFAC00"/>
<path d="M57.0111 100.577H56.6788V103.306H57.0111V100.577Z" fill="#FFAC00"/>
<path d="M54.209 100.576H53.8767V103.306H54.209V100.576Z" fill="#FFAC00"/>
<path d="M71.3003 100.577H70.968V103.306H71.3003V100.577Z" fill="#FFAC00"/>
<path d="M72.0077 100.577H71.6754V103.306H72.0077V100.577Z" fill="#FFAC00"/>
<path d="M72.6902 100.577H72.3578V103.306H72.6902V100.577Z" fill="#FFAC00"/>
<path d="M73.2043 100.586V103.297C73.1633 103.303 73.1223 103.306 73.0795 103.306H72.8719V100.577H73.0795C73.1223 100.577 73.1642 100.58 73.2043 100.586Z" fill="#FFAC00"/>
<path d="M73.6658 100.838V103.044C73.5856 103.143 73.4698 103.222 73.3335 103.266V100.617C73.4698 100.66 73.5856 100.739 73.6658 100.838Z" fill="#FFAC00"/>
<path d="M74.4873 98.4409V99.9823C74.4873 100.105 74.4428 100.219 74.3661 100.314C74.2859 100.413 74.1701 100.492 74.0338 100.536C73.9919 100.55 73.9492 100.561 73.9046 100.567C73.8636 100.573 73.8226 100.577 73.7799 100.577H44.5421C44.1653 100.577 43.8543 100.325 43.8356 100.013C43.8356 100.004 43.8347 99.993 43.8347 99.9832V98.4418C43.8347 98.432 43.8347 98.4213 43.8356 98.4115C43.8534 98.1219 44.1207 97.8858 44.4584 97.852C44.486 97.8493 44.5136 97.8475 44.5421 97.8475H73.7799C73.8226 97.8475 73.8636 97.8511 73.9046 97.8573C73.9492 97.8636 73.9928 97.8743 74.0338 97.8876C74.1692 97.9313 74.2851 98.0106 74.3661 98.1104C74.4428 98.2039 74.4873 98.318 74.4873 98.4409Z" fill="#FFB93E"/>
<path d="M60.1304 100.577H44.4664C44.1305 100.577 43.8525 100.325 43.8356 100.013C43.8356 100.004 43.8347 99.993 43.8347 99.9832V98.4418C43.8347 98.432 43.8347 98.4213 43.8356 98.4115C43.8516 98.1228 44.0895 97.8858 44.3916 97.852C44.4156 97.8493 44.4406 97.8475 44.4664 97.8475H58.2068C58.2068 97.8484 58.2077 97.8502 58.2077 97.852C58.4277 98.6538 58.9392 99.7631 60.1304 100.577Z" fill="#FFAC00"/>
<path d="M70.9297 97.8465H70.5974V100.576H70.9297V97.8465Z" fill="#FFAC00"/>
<path d="M69.8053 97.8465H69.473V100.576H69.8053V97.8465Z" fill="#FFAC00"/>
<path d="M68.4555 97.8465H68.1232V100.576H68.4555V97.8465Z" fill="#FFAC00"/>
<path d="M66.3885 97.8465H66.0562V100.576H66.3885V97.8465Z" fill="#FFAC00"/>
<path d="M64.2021 97.8465H63.8698V100.576H64.2021V97.8465Z" fill="#FFAC00"/>
<path d="M60.8503 97.8465H60.5179V100.576H60.8503V97.8465Z" fill="#FFAC00"/>
<path d="M57.7114 97.8465H57.3791V100.576H57.7114V97.8465Z" fill="#FFAC00"/>
<path d="M54.9094 97.8465H54.577V100.576H54.9094V97.8465Z" fill="#FFAC00"/>
<path d="M72.0006 97.8465H71.6683V100.576H72.0006V97.8465Z" fill="#FFAC00"/>
<path d="M72.7081 97.8465H72.3757V100.576H72.7081V97.8465Z" fill="#FFAC00"/>
<path d="M73.3906 97.8465H73.0582V100.576H73.3906V97.8465Z" fill="#FFAC00"/>
<path d="M73.9046 97.8563V100.567C73.8636 100.573 73.8226 100.576 73.7799 100.576H73.5723V97.8465H73.7799C73.8226 97.8465 73.8645 97.8501 73.9046 97.8563Z" fill="#FFAC00"/>
<path d="M74.3661 98.1094V100.314C74.286 100.414 74.1701 100.493 74.0338 100.537V97.8875C74.1701 97.9312 74.286 98.0096 74.3661 98.1094Z" fill="#FFAC00"/>
<path d="M72.3374 95.7153V97.2567C72.3374 97.3797 72.2928 97.4937 72.2162 97.5881C72.136 97.6879 72.0202 97.7663 71.8839 97.8109C71.8429 97.8242 71.7993 97.8349 71.7547 97.8412C71.7414 97.8429 71.7271 97.8447 71.7137 97.8465C71.7066 97.8474 71.6986 97.8474 71.6906 97.8483C71.6834 97.8492 71.6754 97.8492 71.6674 97.8492C71.6549 97.8501 71.6425 97.8501 71.63 97.8501H42.3922C42.0154 97.8501 41.7044 97.5988 41.6857 97.2861C41.6857 97.2763 41.6848 97.2656 41.6848 97.2558V95.7144C41.6848 95.7046 41.6848 95.694 41.6857 95.6842C41.6857 95.6752 41.6866 95.6672 41.6875 95.6592C41.716 95.408 41.9334 95.2004 42.2176 95.1389C42.2247 95.1371 42.2319 95.1362 42.239 95.1344C42.288 95.1255 42.3397 95.1202 42.3922 95.1202H71.63C71.6514 95.1202 71.6727 95.1211 71.6932 95.1228C71.703 95.1237 71.712 95.1246 71.7218 95.1255C71.7324 95.1264 71.744 95.1282 71.7547 95.13C71.7993 95.1362 71.8429 95.1469 71.8839 95.1603C72.0193 95.2039 72.1351 95.2832 72.2162 95.383C72.2928 95.4792 72.3374 95.5924 72.3374 95.7153Z" fill="#FFB93E"/>
<path d="M57.9805 97.8512H42.3165C41.9806 97.8512 41.7026 97.5999 41.6857 97.2872C41.6857 97.2774 41.6848 97.2667 41.6848 97.2569V95.7155C41.6848 95.7057 41.6848 95.6951 41.6857 95.6853C41.6857 95.6763 41.6866 95.6683 41.6875 95.6603C41.7133 95.4028 41.9147 95.1925 42.1775 95.1364C42.1864 95.1337 42.1953 95.1329 42.2042 95.1311C42.2408 95.1248 42.2782 95.1213 42.3165 95.1213H56.0569C56.0587 95.1275 56.0605 95.1337 56.0622 95.1409C56.2841 95.9418 56.7955 97.0386 57.9742 97.8467C57.976 97.8485 57.9787 97.8503 57.9805 97.8512Z" fill="#FFAC00"/>
<path d="M68.7798 95.1212H68.4475V97.851H68.7798V95.1212Z" fill="#FFAC00"/>
<path d="M67.6554 95.1212H67.3231V97.851H67.6554V95.1212Z" fill="#FFAC00"/>
<path d="M66.3065 95.1212H65.9742V97.851H66.3065V95.1212Z" fill="#FFAC00"/>
<path d="M64.2386 95.1212H63.9062V97.851H64.2386V95.1212Z" fill="#FFAC00"/>
<path d="M62.0522 95.1212H61.7198V97.851H62.0522V95.1212Z" fill="#FFAC00"/>
<path d="M58.7004 95.1212H58.368V97.851H58.7004V95.1212Z" fill="#FFAC00"/>
<path d="M55.5624 95.1212H55.2301V97.851H55.5624V95.1212Z" fill="#FFAC00"/>
<path d="M52.7595 95.1211H52.4271V97.851H52.7595V95.1211Z" fill="#FFAC00"/>
<path d="M69.8508 95.1212H69.5184V97.851H69.8508V95.1212Z" fill="#FFAC00"/>
<path d="M70.5582 95.1212H70.2258V97.851H70.5582V95.1212Z" fill="#FFAC00"/>
<path d="M71.2415 95.1212H70.9092V97.851H71.2415V95.1212Z" fill="#FFAC00"/>
<path d="M71.7556 95.131V97.8412C71.7146 97.8475 71.6736 97.851 71.6309 97.851H71.4233V95.1212H71.6309C71.6728 95.1212 71.7146 95.1247 71.7556 95.131Z" fill="#FFAC00"/>
<path d="M72.2162 95.384V97.5891C72.1361 97.6889 72.0202 97.7673 71.8839 97.8118V95.1621C72.0202 95.2058 72.1361 95.2842 72.2162 95.384Z" fill="#FFAC00"/>
<path d="M72.2769 93.0051V94.5465C72.2769 94.6694 72.2323 94.7835 72.1557 94.8779C72.0755 94.9777 71.9597 95.0561 71.8234 95.1006C71.7913 95.1113 71.7565 95.1202 71.7227 95.1265H71.7218C71.712 95.1283 71.7031 95.1301 71.6942 95.1318C71.6532 95.1381 71.6122 95.1416 71.5694 95.1416H42.3317C42.3005 95.1416 42.2702 95.1398 42.2399 95.1363C42.2283 95.1354 42.2168 95.1336 42.2052 95.1318C41.8871 95.0837 41.6421 94.8547 41.6252 94.5785C41.6252 94.5687 41.6243 94.5581 41.6243 94.5482V93.0069C41.6243 92.9962 41.6243 92.9864 41.6252 92.9766C41.6448 92.6639 41.9548 92.4135 42.3317 92.4135H71.5694C71.5881 92.4135 71.6069 92.4144 71.6256 92.4153C71.6336 92.4162 71.6416 92.4162 71.6496 92.4171C71.6585 92.418 71.6674 92.4189 71.6755 92.4197C71.6817 92.4206 71.6879 92.4215 71.6942 92.4224C71.7387 92.4287 71.7824 92.4393 71.8234 92.4527C71.8296 92.4545 71.8358 92.4563 71.8421 92.459C71.8483 92.4607 71.8545 92.4634 71.8599 92.4652C71.8724 92.4696 71.8839 92.475 71.8955 92.4794C71.9089 92.4857 71.9214 92.491 71.9338 92.4982C71.9454 92.5035 71.9561 92.5097 71.9668 92.516C71.9793 92.5231 71.9917 92.5311 72.0033 92.5382C72.0131 92.5445 72.022 92.5507 72.031 92.557C72.031 92.557 72.0318 92.5578 72.0327 92.5587C72.039 92.5632 72.0452 92.5676 72.0506 92.5721C72.0684 92.5864 72.0862 92.6006 72.1022 92.6166C72.1076 92.6211 72.112 92.6256 72.1165 92.63C72.1209 92.6354 72.1254 92.6398 72.1298 92.6443C72.1388 92.6541 72.1477 92.6639 72.1557 92.6746C72.2323 92.769 72.2769 92.8831 72.2769 93.0051Z" fill="#FFB93E"/>
<path d="M57.919 95.1407H42.255C42.2426 95.1407 42.2301 95.1407 42.2176 95.1398C42.2043 95.1389 42.1909 95.138 42.1775 95.1363C41.8764 95.1015 41.6403 94.8654 41.6242 94.5776C41.6242 94.5678 41.6234 94.5571 41.6234 94.5473V93.006C41.6234 92.9953 41.6234 92.9855 41.6242 92.9757C41.6412 92.663 41.9183 92.4126 42.255 92.4126H55.9954C56.0017 92.4349 56.0079 92.4571 56.015 92.4803C56.2422 93.2715 56.751 94.3326 57.8914 95.1229C57.9003 95.1282 57.9092 95.1345 57.919 95.1407Z" fill="#FFAC00"/>
<path d="M68.7183 92.4115H68.386V95.1414H68.7183V92.4115Z" fill="#FFAC00"/>
<path d="M67.5939 92.4115H67.2616V95.1414H67.5939V92.4115Z" fill="#FFAC00"/>
<path d="M66.245 92.4115H65.9127V95.1414H66.245V92.4115Z" fill="#FFAC00"/>
<path d="M64.1771 92.4115H63.8448V95.1414H64.1771V92.4115Z" fill="#FFAC00"/>
<path d="M61.9907 92.4115H61.6584V95.1414H61.9907V92.4115Z" fill="#FFAC00"/>
<path d="M58.6389 92.4115H58.3066V95.1414H58.6389V92.4115Z" fill="#FFAC00"/>
<path d="M55.501 92.4115H55.1686V95.1414H55.501V92.4115Z" fill="#FFAC00"/>
<path d="M52.698 92.4117H52.3657V95.1416H52.698V92.4117Z" fill="#FFAC00"/>
<path d="M69.7893 92.4115H69.457V95.1414H69.7893V92.4115Z" fill="#FFAC00"/>
<path d="M70.4967 92.4115H70.1644V95.1414H70.4967V92.4115Z" fill="#FFAC00"/>
<path d="M71.18 92.4115H70.8477V95.1414H71.18V92.4115Z" fill="#FFAC00"/>
<path d="M71.6941 92.4204V95.1307C71.6532 95.137 71.6122 95.1405 71.5694 95.1405H71.3618V92.4106H71.5694C71.6113 92.4115 71.6532 92.4142 71.6941 92.4204Z" fill="#FFAC00"/>
<path d="M72.1548 92.6734V94.8786C72.0746 94.9784 71.9588 95.0568 71.8224 95.1013V92.4516C71.9588 92.4953 72.0746 92.5737 72.1548 92.6734Z" fill="#FFAC00"/>
<path d="M73.7871 90.3428V91.8842C73.7871 92.0071 73.7425 92.1212 73.6659 92.2156C73.5857 92.3154 73.4699 92.3938 73.3336 92.4383C73.2917 92.4526 73.2489 92.4624 73.2044 92.4686C73.1634 92.4749 73.1224 92.4784 73.0796 92.4784H43.8419C43.7243 92.4784 43.6138 92.4544 43.5158 92.4107C43.3091 92.3198 43.1612 92.1452 43.138 91.9412C43.1371 91.9323 43.1362 91.9234 43.1354 91.9145C43.1354 91.9047 43.1345 91.894 43.1345 91.8842V90.3428C43.1345 90.333 43.1345 90.3223 43.1354 90.3125C43.155 89.9998 43.465 89.7485 43.8419 89.7485H73.0796C73.1224 89.7485 73.1634 89.7521 73.2044 89.7583C73.2489 89.7646 73.2926 89.7753 73.3336 89.7886C73.469 89.8323 73.5848 89.9116 73.6659 90.0114C73.7425 90.1067 73.7871 90.2199 73.7871 90.3428Z" fill="#FFB93E"/>
<path d="M59.4292 92.4785H43.7652C43.6601 92.4785 43.5612 92.4544 43.4739 92.4108C43.2885 92.3199 43.1576 92.1453 43.1362 91.9412C43.1353 91.9323 43.1344 91.9234 43.1335 91.9145C43.1335 91.9047 43.1326 91.894 43.1326 91.8842V90.3429C43.1326 90.3331 43.1326 90.3224 43.1335 90.3126C43.1504 89.9998 43.4284 89.7486 43.7643 89.7486H57.5056C57.7194 90.53 58.2086 91.6027 59.333 92.4108C59.365 92.4339 59.3971 92.4562 59.4292 92.4785Z" fill="#FFAC00"/>
<path d="M70.2294 89.7495H69.897V92.4794H70.2294V89.7495Z" fill="#FFAC00"/>
<path d="M69.1041 89.7495H68.7717V92.4794H69.1041V89.7495Z" fill="#FFAC00"/>
<path d="M67.7552 89.7495H67.4229V92.4794H67.7552V89.7495Z" fill="#FFAC00"/>
<path d="M65.6882 89.7495H65.3558V92.4794H65.6882V89.7495Z" fill="#FFAC00"/>
<path d="M63.5018 89.7495H63.1694V92.4794H63.5018V89.7495Z" fill="#FFAC00"/>
<path d="M60.15 89.7495H59.8176V92.4794H60.15V89.7495Z" fill="#FFAC00"/>
<path d="M57.0111 89.7495H56.6788V92.4794H57.0111V89.7495Z" fill="#FFAC00"/>
<path d="M54.209 89.7496H53.8767V92.4795H54.209V89.7496Z" fill="#FFAC00"/>
<path d="M71.3003 89.7495H70.968V92.4794H71.3003V89.7495Z" fill="#FFAC00"/>
<path d="M72.0077 89.7495H71.6754V92.4794H72.0077V89.7495Z" fill="#FFAC00"/>
<path d="M72.6902 89.7495H72.3578V92.4794H72.6902V89.7495Z" fill="#FFAC00"/>
<path d="M73.2043 89.7584V92.4687C73.1633 92.4749 73.1223 92.4785 73.0795 92.4785H72.8719V89.7486H73.0795C73.1223 89.7495 73.1642 89.7522 73.2043 89.7584Z" fill="#FFAC00"/>
<path d="M73.6658 90.0114V92.2165C73.5856 92.3163 73.4698 92.3947 73.3335 92.4393V89.7896C73.4698 89.8332 73.5856 89.9116 73.6658 90.0114Z" fill="#FFAC00"/>
<path d="M76.1767 87.6139V89.1552C76.1767 89.2782 76.1321 89.3922 76.0555 89.4867C75.9753 89.5865 75.8595 89.6649 75.7232 89.7094C75.6822 89.7228 75.6386 89.7335 75.594 89.7397C75.553 89.746 75.512 89.7495 75.4693 89.7495H46.2315C45.8546 89.7495 45.5437 89.4983 45.525 89.1864C45.525 89.1766 45.5241 89.1659 45.5241 89.1561V87.6148C45.5241 87.605 45.5241 87.5943 45.525 87.5845C45.5428 87.2958 45.8101 87.0588 46.1478 87.025C46.1754 87.0223 46.203 87.0205 46.2315 87.0205H75.4693C75.512 87.0205 75.553 87.0241 75.594 87.0303C75.6386 87.0365 75.6822 87.0472 75.7232 87.0606C75.8586 87.1043 75.9744 87.1835 76.0555 87.2833C76.1321 87.3769 76.1767 87.4909 76.1767 87.6139Z" fill="#FFB93E"/>
<path d="M61.8187 89.7495H46.1548C45.8189 89.7495 45.5409 89.4983 45.524 89.1864C45.524 89.1766 45.5231 89.1659 45.5231 89.1561V87.6148C45.5231 87.605 45.5231 87.5943 45.524 87.5845C45.54 87.2958 45.7779 87.0588 46.0799 87.025C46.104 87.0223 46.1289 87.0205 46.1548 87.0205H59.8951C59.8951 87.0214 59.896 87.0232 59.896 87.025C60.117 87.8268 60.6284 88.9361 61.8187 89.7495Z" fill="#FFAC00"/>
<path d="M72.6189 87.0194H72.2866V89.7493H72.6189V87.0194Z" fill="#FFAC00"/>
<path d="M71.4936 87.0194H71.1613V89.7493H71.4936V87.0194Z" fill="#FFAC00"/>
<path d="M70.1447 87.0194H69.8124V89.7493H70.1447V87.0194Z" fill="#FFAC00"/>
<path d="M68.0777 87.0194H67.7454V89.7493H68.0777V87.0194Z" fill="#FFAC00"/>
<path d="M65.8913 87.0194H65.559V89.7493H65.8913V87.0194Z" fill="#FFAC00"/>
<path d="M62.5395 87.0194H62.2072V89.7493H62.5395V87.0194Z" fill="#FFAC00"/>
<path d="M59.4006 87.0194H59.0683V89.7493H59.4006V87.0194Z" fill="#FFAC00"/>
<path d="M56.5986 87.0195H56.2662V89.7494H56.5986V87.0195Z" fill="#FFAC00"/>
<path d="M73.6899 87.0194H73.3575V89.7493H73.6899V87.0194Z" fill="#FFAC00"/>
<path d="M74.3973 87.0194H74.0649V89.7493H74.3973V87.0194Z" fill="#FFAC00"/>
<path d="M75.0798 87.0194H74.7474V89.7493H75.0798V87.0194Z" fill="#FFAC00"/>
<path d="M75.5939 87.0292V89.7395C75.5529 89.7457 75.5119 89.7493 75.4691 89.7493H75.2615V87.0194H75.4691C75.5119 87.0194 75.5529 87.023 75.5939 87.0292Z" fill="#FFAC00"/>
<path d="M76.0553 87.2814V89.4865C75.9752 89.5863 75.8593 89.6647 75.723 89.7092V87.0595C75.8593 87.1032 75.9743 87.1816 76.0553 87.2814Z" fill="#FFAC00"/>
<path d="M124.868 120.104V121.645C124.868 121.768 124.824 121.881 124.747 121.977C124.666 122.077 124.55 122.156 124.415 122.199C124.373 122.213 124.329 122.223 124.285 122.229C124.264 122.232 124.244 122.234 124.223 122.237C124.202 122.238 124.182 122.239 124.16 122.239H94.9224C94.8048 122.239 94.6935 122.215 94.5964 122.172C94.3897 122.081 94.2418 121.905 94.2186 121.702C94.2168 121.693 94.2159 121.685 94.2159 121.675C94.2159 121.666 94.215 121.655 94.215 121.646V120.105C94.215 120.094 94.2159 120.083 94.2159 120.074C94.2168 120.056 94.2186 120.035 94.223 120.017C94.2747 119.731 94.5705 119.511 94.9233 119.511H124.161C124.203 119.511 124.246 119.514 124.286 119.521C124.33 119.528 124.374 119.537 124.416 119.551C124.55 119.595 124.666 119.674 124.748 119.773C124.824 119.867 124.868 119.98 124.868 120.104Z" fill="#FFB93E"/>
<path d="M110.511 122.239H94.8457C94.7415 122.239 94.6417 122.215 94.5544 122.172C94.37 122.081 94.2381 121.905 94.2176 121.702C94.2158 121.693 94.2149 121.685 94.2149 121.675C94.2149 121.666 94.2141 121.655 94.2141 121.646V120.105C94.2141 120.094 94.2149 120.083 94.2149 120.074C94.2158 120.056 94.2176 120.035 94.2221 120.017C94.2256 119.995 94.2319 119.974 94.239 119.952C94.3112 119.699 94.5562 119.511 94.8457 119.511H108.587C108.8 120.293 109.289 121.365 110.413 122.174C110.446 122.195 110.478 122.216 110.511 122.239Z" fill="#FFAC00"/>
<path d="M120.186 119.509H119.853V122.239H120.186V119.509Z" fill="#FFAC00"/>
<path d="M118.837 119.509H118.504V122.239H118.837V119.509Z" fill="#FFAC00"/>
<path d="M116.769 119.509H116.436V122.239H116.769V119.509Z" fill="#FFAC00"/>
<path d="M114.582 119.509H114.25V122.239H114.582V119.509Z" fill="#FFAC00"/>
<path d="M111.231 119.509H110.898V122.239H111.231V119.509Z" fill="#FFAC00"/>
<path d="M108.092 119.509H107.759V122.239H108.092V119.509Z" fill="#FFAC00"/>
<path d="M105.29 119.509H104.957V122.239H105.29V119.509Z" fill="#FFAC00"/>
<path d="M127.257 117.374V118.915C127.257 119.037 127.213 119.151 127.137 119.247C127.126 119.259 127.115 119.272 127.104 119.283C127.026 119.366 126.923 119.431 126.804 119.469C126.763 119.483 126.72 119.493 126.675 119.5C126.634 119.505 126.593 119.509 126.55 119.509H97.3119C96.9591 119.509 96.6633 119.289 96.6116 119.003C96.608 118.986 96.6063 118.965 96.6045 118.946C96.6045 118.936 96.6036 118.926 96.6036 118.916V117.375C96.6036 117.364 96.6045 117.355 96.6045 117.344C96.6223 117.056 96.8896 116.819 97.2272 116.785C97.2549 116.782 97.2825 116.781 97.3119 116.781H126.55C126.592 116.781 126.634 116.784 126.675 116.791C126.72 116.798 126.763 116.807 126.804 116.821C126.923 116.86 127.026 116.925 127.104 117.007C127.115 117.018 127.126 117.031 127.137 117.043C127.213 117.137 127.257 117.252 127.257 117.374Z" fill="#FFB93E"/>
<path d="M112.899 119.509H97.2353C96.9448 119.509 96.7007 119.321 96.6285 119.068C96.6214 119.047 96.6161 119.026 96.6116 119.003C96.608 118.986 96.6063 118.965 96.6045 118.946C96.6045 118.936 96.6036 118.926 96.6036 118.916V117.375C96.6036 117.364 96.6045 117.355 96.6045 117.344C96.6063 117.318 96.6107 117.291 96.6169 117.265C96.6686 117.014 96.8878 116.816 97.1604 116.785C97.1854 116.782 97.2103 116.781 97.2353 116.781H110.977C110.977 116.782 110.977 116.784 110.977 116.785C111.197 117.588 111.709 118.696 112.899 119.509Z" fill="#FFAC00"/>
<path d="M119.158 116.78H118.826V119.51H119.158V116.78Z" fill="#FFAC00"/>
<path d="M116.972 116.78H116.639V119.51H116.972V116.78Z" fill="#FFAC00"/>
<path d="M113.62 116.78H113.288V119.51H113.62V116.78Z" fill="#FFAC00"/>
<path d="M110.481 116.78H110.149V119.51H110.481V116.78Z" fill="#FFAC00"/>
<path d="M107.679 116.78H107.347V119.51H107.679V116.78Z" fill="#FFAC00"/>
<path d="M123.419 114.649V116.191C123.419 116.314 123.374 116.427 123.298 116.522C123.217 116.623 123.102 116.701 122.965 116.745C122.924 116.758 122.88 116.769 122.836 116.775C122.823 116.777 122.809 116.779 122.795 116.78H122.792C122.785 116.78 122.779 116.78 122.772 116.781C122.768 116.781 122.765 116.782 122.761 116.782C122.757 116.782 122.751 116.782 122.745 116.783H93.4727C93.1199 116.783 92.8241 116.563 92.7724 116.278C92.7689 116.26 92.7671 116.24 92.7653 116.221V114.618C92.7662 114.599 92.768 114.579 92.7724 114.559C92.8241 114.274 93.1199 114.054 93.4727 114.054H122.71C122.724 114.054 122.736 114.054 122.749 114.055H122.752C122.764 114.056 122.775 114.056 122.785 114.058C122.802 114.059 122.819 114.06 122.836 114.063C122.88 114.07 122.924 114.079 122.965 114.093C122.982 114.099 122.999 114.105 123.015 114.111C123.019 114.112 123.023 114.114 123.026 114.116H123.027C123.136 114.162 123.23 114.23 123.298 114.314C123.373 114.411 123.419 114.525 123.419 114.649Z" fill="#FFB93E"/>
<path d="M109.061 116.783H93.3979C93.1066 116.783 92.8615 116.595 92.7894 116.343C92.7822 116.322 92.7769 116.3 92.7724 116.278C92.7689 116.26 92.7671 116.24 92.7653 116.221V114.618C92.7662 114.599 92.768 114.579 92.7724 114.559C92.776 114.537 92.7822 114.516 92.7894 114.494C92.8615 114.241 93.1066 114.054 93.3979 114.054H107.138C107.144 114.075 107.15 114.095 107.156 114.117C107.384 114.913 107.897 115.986 109.056 116.78C109.057 116.78 109.058 116.782 109.061 116.783Z" fill="#FFAC00"/>
<path d="M119.86 114.054H119.528V116.784H119.86V114.054Z" fill="#FFAC00"/>
<path d="M118.736 114.054H118.404V116.784H118.736V114.054Z" fill="#FFAC00"/>
<path d="M117.387 114.054H117.055V116.784H117.387V114.054Z" fill="#FFAC00"/>
<path d="M115.319 114.054H114.987V116.784H115.319V114.054Z" fill="#FFAC00"/>
<path d="M113.133 114.054H112.8V116.784H113.133V114.054Z" fill="#FFAC00"/>
<path d="M109.781 114.054H109.449V116.784H109.781V114.054Z" fill="#FFAC00"/>
<path d="M106.643 114.054H106.311V116.784H106.643V114.054Z" fill="#FFAC00"/>
<path d="M103.841 114.054H103.509V116.784H103.841V114.054Z" fill="#FFAC00"/>
<path d="M125.568 111.982V113.523C125.568 113.646 125.524 113.759 125.447 113.855C125.366 113.955 125.251 114.034 125.115 114.077C125.073 114.091 125.03 114.101 124.985 114.108C124.945 114.113 124.903 114.117 124.86 114.117H95.6226C95.5086 114.117 95.4017 114.094 95.3064 114.054C95.1077 113.969 94.9598 113.808 94.9232 113.616C94.9206 113.603 94.9188 113.591 94.9179 113.577C94.917 113.569 94.9161 113.561 94.9161 113.553C94.9161 113.543 94.9152 113.532 94.9152 113.523V111.982C94.9152 111.971 94.9161 111.961 94.9161 111.951C94.917 111.934 94.9188 111.915 94.9215 111.898C94.966 111.634 95.2217 111.424 95.5389 111.392C95.5665 111.389 95.5941 111.388 95.6235 111.388H124.861C124.887 111.388 124.914 111.389 124.94 111.392C124.955 111.393 124.97 111.395 124.986 111.397C125.031 111.404 125.074 111.413 125.116 111.428C125.251 111.471 125.366 111.55 125.448 111.649C125.524 111.745 125.568 111.859 125.568 111.982Z" fill="#FFB93E"/>
<path d="M111.211 114.118H95.5469C95.4454 114.118 95.35 114.095 95.2654 114.055C95.0863 113.971 94.9562 113.809 94.9242 113.617C94.9215 113.604 94.9197 113.592 94.9188 113.578C94.9179 113.57 94.917 113.562 94.917 113.554C94.917 113.544 94.9161 113.533 94.9161 113.524V111.983C94.9161 111.972 94.917 111.962 94.917 111.952C94.9179 111.935 94.9197 111.916 94.9224 111.899C94.9625 111.635 95.1906 111.425 95.4721 111.393C95.497 111.39 95.522 111.389 95.5469 111.389H109.288C109.288 111.39 109.288 111.392 109.289 111.393C109.504 112.176 109.995 113.249 111.122 114.056C111.15 114.076 111.18 114.097 111.211 114.118Z" fill="#FFAC00"/>
<path d="M119.537 111.388H119.205V114.117H119.537V111.388Z" fill="#FFAC00"/>
<path d="M117.469 111.388H117.137V114.117H117.469V111.388Z" fill="#FFAC00"/>
<path d="M115.283 111.388H114.95V114.117H115.283V111.388Z" fill="#FFAC00"/>
<path d="M111.931 111.388H111.598V114.117H111.931V111.388Z" fill="#FFAC00"/>
<path d="M108.792 111.388H108.46V114.117H108.792V111.388Z" fill="#FFAC00"/>
<path d="M105.99 111.388H105.658V114.117H105.99V111.388Z" fill="#FFAC00"/>
<path d="M126.484 109.257V110.799C126.484 110.921 126.439 111.035 126.363 111.13C126.342 111.155 126.321 111.179 126.296 111.2C126.223 111.267 126.133 111.319 126.031 111.353C125.99 111.366 125.946 111.377 125.902 111.382C125.888 111.385 125.875 111.387 125.861 111.388C125.856 111.388 125.85 111.388 125.844 111.388C125.822 111.39 125.801 111.391 125.777 111.391H96.5397C96.5138 111.391 96.488 111.39 96.4621 111.388C96.1432 111.358 95.8875 111.151 95.8394 110.885C95.8358 110.867 95.834 110.847 95.8331 110.828V109.226C95.834 109.207 95.8358 109.187 95.8394 109.169C95.891 108.883 96.1868 108.663 96.5397 108.663H125.777C125.82 108.663 125.862 108.666 125.903 108.673C125.948 108.68 125.991 108.689 126.032 108.703C126.169 108.746 126.283 108.826 126.365 108.925C126.438 109.02 126.484 109.133 126.484 109.257Z" fill="#FFB93E"/>
<path d="M112.125 111.392H96.4619C96.4387 111.392 96.4147 111.391 96.3933 111.388C96.1082 111.36 95.8792 111.151 95.8373 110.886C95.8338 110.868 95.832 110.848 95.8311 110.829V109.227C95.832 109.208 95.8338 109.188 95.8373 109.17C95.8409 109.148 95.8472 109.126 95.8543 109.105C95.9264 108.852 96.1715 108.664 96.4619 108.664H110.202C110.421 109.466 110.931 110.575 112.12 111.388C112.121 111.389 112.123 111.391 112.125 111.392Z" fill="#FFAC00"/>
<path d="M120.452 108.663H120.12V111.393H120.452V108.663Z" fill="#FFAC00"/>
<path d="M118.384 108.663H118.052V111.393H118.384V108.663Z" fill="#FFAC00"/>
<path d="M116.198 108.663H115.865V111.393H116.198V108.663Z" fill="#FFAC00"/>
<path d="M112.846 108.663H112.513V111.393H112.846V108.663Z" fill="#FFAC00"/>
<path d="M109.708 108.663H109.376V111.393H109.708V108.663Z" fill="#FFAC00"/>
<path d="M106.905 108.663H106.573V111.393H106.905V108.663Z" fill="#FFAC00"/>
<path d="M32.6934 120.104V121.645C32.6934 121.768 32.6488 121.882 32.5722 121.977C32.492 122.076 32.3762 122.155 32.2399 122.199C32.198 122.213 32.1553 122.223 32.1107 122.23C32.0697 122.236 32.0287 122.239 31.986 122.239H2.74734C2.62973 122.239 2.51925 122.215 2.42125 122.172C2.21454 122.081 2.06664 121.906 2.04348 121.702C2.04259 121.693 2.04169 121.684 2.0408 121.675C2.0408 121.665 2.03992 121.655 2.03992 121.645V120.104C2.03992 120.094 2.03991 120.083 2.0408 120.074C2.05951 119.761 2.37046 119.51 2.74734 119.51H31.9851C32.0279 119.51 32.0688 119.514 32.1098 119.52C32.1544 119.526 32.198 119.537 32.239 119.551C32.3744 119.594 32.4903 119.673 32.5713 119.773C32.6488 119.867 32.6934 119.981 32.6934 120.104Z" fill="#FFB93E"/>
<path d="M18.3354 122.238H2.67146C2.56633 122.238 2.46743 122.214 2.38012 122.171C2.1948 122.08 2.06293 121.905 2.04244 121.701C2.04155 121.692 2.04066 121.683 2.03977 121.674C2.03977 121.664 2.03888 121.654 2.03888 121.644V120.103C2.03888 120.093 2.03888 120.082 2.03977 120.072C2.0567 119.76 2.33378 119.509 2.67057 119.509H16.411C16.6248 120.291 17.1139 121.363 18.2383 122.172C18.2713 122.194 18.3034 122.216 18.3354 122.238Z" fill="#FFAC00"/>
<path d="M29.1357 119.509H28.8033V122.239H29.1357V119.509Z" fill="#FFAC00"/>
<path d="M28.0104 119.509H27.678V122.239H28.0104V119.509Z" fill="#FFAC00"/>
<path d="M26.6614 119.509H26.3291V122.239H26.6614V119.509Z" fill="#FFAC00"/>
<path d="M24.5944 119.509H24.2621V122.239H24.5944V119.509Z" fill="#FFAC00"/>
<path d="M22.408 119.509H22.0757V122.239H22.408V119.509Z" fill="#FFAC00"/>
<path d="M19.0562 119.509H18.7239V122.239H19.0562V119.509Z" fill="#FFAC00"/>
<path d="M15.9173 119.509H15.585V122.239H15.9173V119.509Z" fill="#FFAC00"/>
<path d="M13.1153 119.509H12.783V122.239H13.1153V119.509Z" fill="#FFAC00"/>
<path d="M30.2066 119.509H29.8743V122.239H30.2066V119.509Z" fill="#FFAC00"/>
<path d="M30.9131 119.509H30.5808V122.239H30.9131V119.509Z" fill="#FFAC00"/>
<path d="M31.5965 119.509H31.2642V122.239H31.5965V119.509Z" fill="#FFAC00"/>
<path d="M32.1106 119.519V122.229C32.0696 122.236 32.0286 122.239 31.9858 122.239H31.7783V119.509H31.9858C32.0286 119.509 32.0696 119.513 32.1106 119.519Z" fill="#FFAC00"/>
<path d="M32.5721 119.771V121.976C32.4919 122.076 32.3761 122.155 32.2397 122.199V119.549C32.3752 119.593 32.491 119.671 32.5721 119.771Z" fill="#FFAC00"/>
<path d="M35.0828 117.374V118.915C35.0828 119.038 35.0382 119.152 34.9616 119.247C34.8814 119.346 34.7656 119.425 34.6293 119.469C34.5874 119.484 34.5447 119.493 34.5001 119.5C34.4591 119.506 34.4181 119.509 34.3754 119.509H5.13674C4.75986 119.509 4.44892 119.258 4.43021 118.945C4.43021 118.936 4.42932 118.925 4.42932 118.915V117.374C4.42932 117.364 4.42932 117.353 4.43021 117.344C4.44803 117.055 4.71532 116.818 5.05299 116.784C5.08061 116.781 5.10823 116.78 5.13674 116.78H34.3745C34.4172 116.78 34.4582 116.783 34.4992 116.789C34.5438 116.796 34.5874 116.806 34.6284 116.82C34.7638 116.863 34.8797 116.943 34.9607 117.042C35.0382 117.137 35.0828 117.251 35.0828 117.374Z" fill="#FFB93E"/>
<path d="M20.725 119.509H5.06101C4.72512 119.509 4.44714 119.258 4.43021 118.945C4.43021 118.936 4.42932 118.925 4.42932 118.915V117.374C4.42932 117.364 4.42932 117.353 4.43021 117.344C4.44624 117.055 4.68414 116.818 4.98617 116.784C5.01023 116.781 5.03517 116.78 5.06101 116.78H18.8014C18.8014 116.78 18.8023 116.782 18.8023 116.784C19.0223 117.587 19.5347 118.696 20.725 119.509Z" fill="#FFAC00"/>
<path d="M31.5253 116.78H31.1929V119.51H31.5253V116.78Z" fill="#FFAC00"/>
<path d="M30.4 116.78H30.0676V119.51H30.4V116.78Z" fill="#FFAC00"/>
<path d="M29.051 116.78H28.7187V119.51H29.051V116.78Z" fill="#FFAC00"/>
<path d="M26.9831 116.78H26.6508V119.51H26.9831V116.78Z" fill="#FFAC00"/>
<path d="M24.7967 116.78H24.4644V119.51H24.7967V116.78Z" fill="#FFAC00"/>
<path d="M21.4449 116.78H21.1125V119.51H21.4449V116.78Z" fill="#FFAC00"/>
<path d="M18.3069 116.78H17.9746V119.51H18.3069V116.78Z" fill="#FFAC00"/>
<path d="M15.5049 116.78H15.1725V119.51H15.5049V116.78Z" fill="#FFAC00"/>
<path d="M32.5953 116.78H32.2629V119.51H32.5953V116.78Z" fill="#FFAC00"/>
<path d="M33.3027 116.78H32.9703V119.51H33.3027V116.78Z" fill="#FFAC00"/>
<path d="M33.9861 116.78H33.6537V119.51H33.9861V116.78Z" fill="#FFAC00"/>
<path d="M34.5002 116.789V119.5C34.4592 119.506 34.4182 119.51 34.3754 119.51H34.1678V116.78H34.3754C34.4182 116.78 34.4592 116.783 34.5002 116.789Z" fill="#FFAC00"/>
<path d="M34.9617 117.042V119.248C34.8815 119.347 34.7657 119.426 34.6293 119.47V116.821C34.7648 116.863 34.8806 116.943 34.9617 117.042Z" fill="#FFAC00"/>
<path d="M31.2436 114.648V116.19C31.2436 116.313 31.1991 116.427 31.1225 116.521C31.0423 116.621 30.9265 116.699 30.7902 116.744C30.7483 116.757 30.7055 116.768 30.661 116.774C30.6476 116.776 30.6333 116.778 30.62 116.78C30.6093 116.78 30.5977 116.781 30.587 116.782C30.5817 116.782 30.5763 116.783 30.571 116.783C30.5594 116.783 30.5487 116.784 30.5362 116.784H1.29849C0.921611 116.784 0.610666 116.533 0.591956 116.221C0.591956 116.211 0.591064 116.2 0.591064 116.191V114.649C0.591064 114.639 0.591065 114.629 0.591956 114.619C0.610666 114.306 0.921611 114.055 1.29849 114.055H30.5362C30.5487 114.055 30.5612 114.055 30.5736 114.056C30.603 114.058 30.6324 114.06 30.661 114.065C30.7055 114.071 30.7492 114.082 30.7902 114.095C30.8115 114.102 30.832 114.109 30.8516 114.118C30.8641 114.124 30.8766 114.129 30.8882 114.134C30.889 114.134 30.8908 114.135 30.8917 114.136C30.9042 114.142 30.9158 114.149 30.9274 114.155C30.93 114.156 30.9318 114.157 30.9336 114.158C30.9443 114.165 30.955 114.171 30.9657 114.178C30.9906 114.194 31.0138 114.211 31.0361 114.23C31.0432 114.235 31.0494 114.241 31.0557 114.247C31.0565 114.248 31.0583 114.249 31.0592 114.251C31.0637 114.255 31.0672 114.258 31.0717 114.262C31.0726 114.263 31.0735 114.263 31.0744 114.264C31.0815 114.272 31.0886 114.279 31.0949 114.286C31.1047 114.296 31.1145 114.307 31.1234 114.318C31.1991 114.411 31.2436 114.525 31.2436 114.648Z" fill="#FFB93E"/>
<path d="M16.8867 116.784H1.22275C0.88686 116.784 0.608885 116.533 0.591956 116.221C0.591956 116.211 0.591064 116.2 0.591064 116.191V114.649C0.591064 114.639 0.591065 114.629 0.591956 114.619C0.608885 114.306 0.885969 114.055 1.22275 114.055H14.9631C14.9685 114.075 14.9747 114.097 14.981 114.118C15.209 114.915 15.7231 115.987 16.8805 116.78C16.8823 116.781 16.884 116.783 16.8867 116.784Z" fill="#FFAC00"/>
<path d="M27.686 114.054H27.3537V116.784H27.686V114.054Z" fill="#FFAC00"/>
<path d="M26.5616 114.054H26.2293V116.784H26.5616V114.054Z" fill="#FFAC00"/>
<path d="M25.2127 114.054H24.8804V116.784H25.2127V114.054Z" fill="#FFAC00"/>
<path d="M23.1448 114.054H22.8125V116.784H23.1448V114.054Z" fill="#FFAC00"/>
<path d="M20.9584 114.054H20.6261V116.784H20.9584V114.054Z" fill="#FFAC00"/>
<path d="M17.6066 114.054H17.2743V116.784H17.6066V114.054Z" fill="#FFAC00"/>
<path d="M14.4678 114.054H14.1354V116.784H14.4678V114.054Z" fill="#FFAC00"/>
<path d="M11.6657 114.054H11.3334V116.784H11.6657V114.054Z" fill="#FFAC00"/>
<path d="M28.7569 114.054H28.4246V116.784H28.7569V114.054Z" fill="#FFAC00"/>
<path d="M29.4644 114.054H29.1321V116.784H29.4644V114.054Z" fill="#FFAC00"/>
<path d="M30.1469 114.054H29.8146V116.784H30.1469V114.054Z" fill="#FFAC00"/>
<path d="M30.6609 114.064V116.774C30.62 116.781 30.579 116.784 30.5362 116.784H30.3286V114.054H30.5362C30.579 114.054 30.6208 114.058 30.6609 114.064Z" fill="#FFAC00"/>
<path d="M31.1225 114.317V116.521C31.0423 116.621 30.9265 116.699 30.7902 116.744V114.094C30.9265 114.139 31.0423 114.217 31.1225 114.317Z" fill="#FFAC00"/>
<path d="M33.3936 111.982V113.523C33.3936 113.646 33.349 113.76 33.2724 113.855C33.1922 113.954 33.0764 114.033 32.9401 114.077C32.8982 114.092 32.8554 114.101 32.8109 114.108C32.7699 114.114 32.7289 114.117 32.6861 114.117H3.44839C3.33524 114.117 3.22743 114.095 3.13209 114.054C2.91915 113.964 2.7668 113.786 2.74364 113.578C2.74275 113.57 2.74186 113.562 2.74186 113.554C2.74186 113.544 2.74097 113.534 2.74097 113.524V111.983C2.74097 111.973 2.74097 111.962 2.74186 111.952C2.75968 111.663 3.02696 111.427 3.36464 111.393C3.39226 111.39 3.41988 111.388 3.44839 111.388H32.6861C32.7289 111.388 32.7699 111.392 32.8109 111.398C32.8554 111.404 32.8991 111.415 32.9401 111.428C33.0755 111.472 33.1913 111.551 33.2724 111.651C33.349 111.746 33.3936 111.859 33.3936 111.982Z" fill="#FFB93E"/>
<path d="M19.0357 114.117H3.37176C3.27019 114.117 3.17486 114.095 3.09022 114.054C2.89956 113.964 2.76413 113.786 2.74364 113.578C2.74275 113.57 2.74186 113.562 2.74186 113.554C2.74186 113.544 2.74097 113.534 2.74097 113.524V111.983C2.74097 111.973 2.74097 111.962 2.74186 111.952C2.7579 111.664 2.99578 111.427 3.29782 111.393C3.32187 111.39 3.34682 111.388 3.37265 111.388H17.113C17.113 111.39 17.1139 111.391 17.1139 111.393C17.3287 112.175 17.8196 113.248 18.9466 114.055C18.9751 114.075 19.0054 114.097 19.0357 114.117Z" fill="#FFAC00"/>
<path d="M29.8359 111.388H29.5036V114.117H29.8359V111.388Z" fill="#FFAC00"/>
<path d="M28.7107 111.388H28.3784V114.117H28.7107V111.388Z" fill="#FFAC00"/>
<path d="M27.3618 111.388H27.0294V114.117H27.3618V111.388Z" fill="#FFAC00"/>
<path d="M25.2947 111.388H24.9624V114.117H25.2947V111.388Z" fill="#FFAC00"/>
<path d="M23.1083 111.388H22.776V114.117H23.1083V111.388Z" fill="#FFAC00"/>
<path d="M19.7565 111.388H19.4242V114.117H19.7565V111.388Z" fill="#FFAC00"/>
<path d="M16.6177 111.388H16.2853V114.117H16.6177V111.388Z" fill="#FFAC00"/>
<path d="M13.8156 111.388H13.4833V114.117H13.8156V111.388Z" fill="#FFAC00"/>
<path d="M30.9069 111.388H30.5746V114.117H30.9069V111.388Z" fill="#FFAC00"/>
<path d="M31.6143 111.388H31.282V114.117H31.6143V111.388Z" fill="#FFAC00"/>
<path d="M32.2968 111.388H31.9645V114.117H32.2968V111.388Z" fill="#FFAC00"/>
<path d="M32.8108 111.397V114.108C32.7699 114.114 32.7289 114.117 32.6861 114.117H32.4785V111.388H32.6861C32.7289 111.388 32.7699 111.391 32.8108 111.397Z" fill="#FFAC00"/>
<path d="M33.2724 111.65V113.856C33.1922 113.955 33.0764 114.034 32.9401 114.078V111.429C33.0764 111.472 33.1913 111.551 33.2724 111.65Z" fill="#FFAC00"/>
<path d="M34.3088 109.256V110.798C34.3088 110.921 34.2642 111.035 34.1876 111.129C34.1074 111.229 33.9916 111.307 33.8553 111.352C33.8134 111.366 33.7706 111.376 33.7261 111.382C33.7127 111.384 33.6985 111.386 33.6851 111.388C33.678 111.388 33.67 111.389 33.6619 111.389C33.6548 111.39 33.6468 111.39 33.6388 111.39C33.6263 111.391 33.6138 111.391 33.6014 111.391H4.36361C3.98674 111.391 3.67579 111.14 3.65708 110.827C3.65708 110.817 3.65619 110.807 3.65619 110.797V109.255C3.65619 109.246 3.65619 109.235 3.65708 109.225C3.67668 108.912 3.98674 108.661 4.36361 108.661H33.6014C33.6441 108.661 33.6851 108.665 33.7261 108.671C33.7706 108.677 33.8143 108.688 33.8553 108.701C33.9907 108.745 34.1065 108.823 34.1876 108.924C34.2642 109.02 34.3088 109.134 34.3088 109.256Z" fill="#FFB93E"/>
<path d="M19.9507 111.392H4.28678C3.95089 111.392 3.6729 111.141 3.65598 110.828C3.65598 110.818 3.65509 110.807 3.65509 110.798V109.256C3.65509 109.247 3.65509 109.236 3.65598 109.226C3.6729 108.913 3.95089 108.662 4.28678 108.662H18.0272C18.2463 109.464 18.756 110.573 19.9445 111.387C19.9472 111.389 19.949 111.391 19.9507 111.392Z" fill="#FFAC00"/>
<path d="M30.7509 108.663H30.4186V111.393H30.7509V108.663Z" fill="#FFAC00"/>
<path d="M29.6257 108.663H29.2933V111.393H29.6257V108.663Z" fill="#FFAC00"/>
<path d="M28.2767 108.663H27.9444V111.393H28.2767V108.663Z" fill="#FFAC00"/>
<path d="M26.2097 108.663H25.8774V111.393H26.2097V108.663Z" fill="#FFAC00"/>
<path d="M24.0233 108.663H23.691V111.393H24.0233V108.663Z" fill="#FFAC00"/>
<path d="M20.6715 108.663H20.3392V111.393H20.6715V108.663Z" fill="#FFAC00"/>
<path d="M17.5326 108.663H17.2003V111.393H17.5326V108.663Z" fill="#FFAC00"/>
<path d="M14.7306 108.663H14.3983V111.393H14.7306V108.663Z" fill="#FFAC00"/>
<path d="M31.8219 108.663H31.4896V111.393H31.8219V108.663Z" fill="#FFAC00"/>
<path d="M32.5293 108.663H32.197V111.393H32.5293V108.663Z" fill="#FFAC00"/>
<path d="M33.2118 108.663H32.8795V111.393H33.2118V108.663Z" fill="#FFAC00"/>
<path d="M33.7258 108.672V111.382C33.6848 111.388 33.6438 111.392 33.6011 111.392H33.3935V108.662H33.6011C33.6438 108.663 33.6848 108.666 33.7258 108.672Z" fill="#FFAC00"/>
<path d="M34.1874 108.925V111.13C34.1072 111.23 33.9914 111.308 33.855 111.353V108.703C33.9914 108.747 34.1072 108.825 34.1874 108.925Z" fill="#FFAC00"/>
<path d="M92.6798 138.546C100.734 138.546 107.264 132.017 107.264 123.962C107.264 115.908 100.734 109.378 92.6798 109.378C84.6252 109.378 78.0957 115.908 78.0957 123.962C78.0957 132.017 84.6252 138.546 92.6798 138.546Z" fill="#E2810E"/>
<path opacity="0.5" d="M109.781 126.247C109.781 126.705 109.764 127.158 109.729 127.607V127.611C109.705 127.917 109.674 128.221 109.635 128.522C109.555 129.139 109.444 129.744 109.302 130.335C109.216 130.696 109.119 131.051 109.011 131.401C108.843 131.947 108.648 132.48 108.428 132.998C108.419 133.02 108.411 133.042 108.4 133.064C108.198 133.538 107.974 134 107.731 134.447C107.491 134.888 107.235 135.315 106.958 135.728C106.941 135.754 106.923 135.78 106.905 135.807C106.798 135.966 106.687 136.123 106.573 136.278C105.995 137.069 105.351 137.798 104.648 138.456H96.461C96.1697 138.456 95.9256 138.268 95.8534 138.016C95.8463 137.994 95.8409 137.973 95.8365 137.95C95.8329 137.932 95.8311 137.911 95.8302 137.892V136.289C95.8311 136.27 95.8329 136.25 95.8365 136.232C95.84 136.21 95.8463 136.188 95.8534 136.167C95.9256 135.914 96.1706 135.727 96.461 135.727H93.3355C93.0442 135.727 92.7992 135.538 92.727 135.285C92.7199 135.263 92.7145 135.242 92.7101 135.22C92.7065 135.201 92.7047 135.181 92.703 135.163C92.703 135.152 92.7021 135.141 92.7021 135.132V133.591C92.7021 133.58 92.703 133.57 92.703 133.561C92.7038 133.542 92.7056 133.522 92.7101 133.504C92.7136 133.481 92.7199 133.46 92.727 133.439C92.7992 133.186 93.0442 132.998 93.3346 132.998H94.5535C94.369 132.907 94.2372 132.731 94.2167 132.528C94.2149 132.519 94.214 132.511 94.214 132.501C94.214 132.492 94.2131 132.481 94.2131 132.471V130.93C94.2131 130.92 94.214 130.909 94.214 130.899C94.2149 130.881 94.2167 130.861 94.2211 130.842C94.2247 130.82 94.2309 130.799 94.2381 130.777C94.3102 130.524 94.5553 130.335 94.8448 130.335H95.5451C95.2547 130.335 95.0105 130.147 94.9384 129.895C94.9312 129.874 94.9259 129.853 94.9214 129.83C94.9179 129.812 94.9161 129.792 94.9143 129.773C94.9143 129.763 94.9134 129.752 94.9134 129.743V128.202C94.9134 128.191 94.9143 128.18 94.9143 128.171C94.9152 128.153 94.917 128.135 94.9197 128.118C94.9598 127.854 95.1878 127.644 95.4694 127.612H93.3952C93.1039 127.612 92.8589 127.424 92.7867 127.172C92.7796 127.15 92.7742 127.129 92.7698 127.107C92.7662 127.088 92.7644 127.067 92.7626 127.048V125.445C92.7635 125.437 92.7644 125.429 92.7644 125.42C92.7903 125.163 92.9925 124.952 93.2553 124.897C92.972 124.864 92.7457 124.653 92.7074 124.389C92.7047 124.372 92.703 124.355 92.7021 124.338C92.7021 124.328 92.7012 124.318 92.7012 124.308V122.767C92.7012 122.756 92.7021 122.746 92.7021 122.736C92.703 122.718 92.7047 122.697 92.7092 122.679C92.7128 122.657 92.719 122.636 92.7261 122.614C92.7983 122.361 93.0433 122.173 93.3338 122.173H94.5526C94.3682 122.082 94.2363 121.907 94.2158 121.704C94.214 121.695 94.2131 121.687 94.2131 121.677C94.2131 121.667 94.2122 121.657 94.2122 121.648V120.106C94.2122 120.096 94.2131 120.085 94.2131 120.076C94.214 120.057 94.2158 120.037 94.2203 120.019C94.2238 119.997 94.2301 119.975 94.2372 119.954C94.3094 119.701 94.5544 119.513 94.8439 119.513H97.2335C96.943 119.513 96.6989 119.325 96.6267 119.072C96.6196 119.051 96.6143 119.029 96.6098 119.007C96.6062 118.989 96.6045 118.969 96.6027 118.95C96.6027 118.939 96.6018 118.929 96.6018 118.92V117.378C96.6018 117.368 96.6027 117.359 96.6027 117.348C96.6045 117.321 96.6089 117.294 96.6152 117.269C96.6668 117.017 96.886 116.82 97.1586 116.788H93.3952C93.1039 116.788 92.8589 116.6 92.7867 116.348C92.7796 116.327 92.7742 116.305 92.7698 116.283C92.7662 116.265 92.7644 116.245 92.7626 116.226V114.623C92.7635 114.605 92.7653 114.584 92.7698 114.565C92.7733 114.542 92.7796 114.521 92.7867 114.5C92.8589 114.247 93.1039 114.059 93.3952 114.059H95.2627C95.0836 113.975 94.9535 113.813 94.9214 113.621C94.9188 113.609 94.917 113.596 94.9161 113.583C94.9152 113.575 94.9143 113.567 94.9143 113.559C94.9143 113.548 94.9134 113.537 94.9134 113.528V111.987C94.9134 111.976 94.9143 111.967 94.9143 111.957C94.9152 111.939 94.917 111.92 94.9197 111.903C94.9598 111.64 95.1878 111.429 95.4694 111.397C95.4943 111.395 95.5193 111.394 95.5442 111.394H96.3906C96.1055 111.365 95.8765 111.157 95.8347 110.891C95.8311 110.873 95.8293 110.853 95.8284 110.834V110.234C97.54 110.315 99.174 110.72 100.683 111.395C100.686 111.395 100.689 111.396 100.692 111.398C102.15 112.049 103.489 112.954 104.667 114.061C104.69 114.083 104.711 114.103 104.734 114.124C105.299 114.663 105.825 115.246 106.309 115.871C106.423 116.017 106.532 116.166 106.641 116.315C106.753 116.47 106.861 116.627 106.967 116.786C106.968 116.787 106.969 116.788 106.97 116.789C107.098 116.983 107.224 117.18 107.345 117.381C107.46 117.57 107.57 117.76 107.677 117.956C107.954 118.458 108.207 118.978 108.433 119.515C108.792 120.365 109.084 121.254 109.303 122.177C109.309 122.199 109.314 122.221 109.319 122.244C109.343 122.34 109.363 122.437 109.384 122.534C109.542 123.262 109.654 124.01 109.718 124.772C109.72 124.811 109.725 124.849 109.727 124.887C109.727 124.894 109.728 124.9 109.728 124.906C109.764 125.345 109.781 125.794 109.781 126.247Z" fill="#E2810E"/>
<path d="M91.4075 138.546C99.4621 138.546 105.992 132.017 105.992 123.962C105.992 115.908 99.4621 109.378 91.4075 109.378C83.3529 109.378 76.8234 115.908 76.8234 123.962C76.8234 132.017 83.3529 138.546 91.4075 138.546Z" fill="#FFB93E"/>
<path d="M91.4075 137.422C87.8579 137.422 84.5213 136.04 82.0115 133.53C79.5016 131.021 78.1198 127.684 78.1198 124.134C78.1198 120.585 79.5016 117.248 82.0115 114.738C84.5213 112.228 87.8579 110.847 91.4075 110.847C94.9571 110.847 98.2938 112.228 100.804 114.738C103.313 117.248 104.695 120.585 104.695 124.134C104.695 127.684 103.313 131.021 100.804 133.53C98.2938 136.04 94.9571 137.422 91.4075 137.422ZM91.4075 111.64C84.5177 111.64 78.9127 117.245 78.9127 124.134C78.9127 131.024 84.5177 136.629 91.4075 136.629C98.2973 136.629 103.902 131.024 103.902 124.134C103.903 117.245 98.2973 111.64 91.4075 111.64Z" fill="#FFAC00"/>
<path d="M31.4491 103.834C37.8859 97.3973 37.8859 86.9611 31.4491 80.5242C25.0122 74.0874 14.576 74.0874 8.13915 80.5242C1.70229 86.9611 1.70229 97.3973 8.13915 103.834C14.576 110.271 25.0122 110.271 31.4491 103.834Z" fill="#E2810E"/>
<path d="M30.0111 103.834C36.4479 97.3974 36.4479 86.9612 30.0111 80.5243C23.5742 74.0874 13.138 74.0874 6.70116 80.5243C0.264306 86.9612 0.264306 97.3974 6.70116 103.834C13.138 110.271 23.5742 110.271 30.0111 103.834Z" fill="#FFB93E"/>
<path d="M18.3577 107.392C14.3466 107.392 10.5751 105.83 7.73833 102.994C4.90151 100.157 3.33966 96.3853 3.33966 92.3742C3.33966 88.3631 4.90151 84.5916 7.73833 81.7548C10.5751 78.918 14.3466 77.3561 18.3577 77.3561C22.3688 77.3561 26.1402 78.918 28.977 81.7548C31.8139 84.5916 33.3757 88.3631 33.3757 92.3742C33.3757 96.3853 31.8139 100.157 28.977 102.994C26.1402 105.829 22.3697 107.392 18.3577 107.392ZM18.3577 78.2524C10.5707 78.2524 4.23597 84.5872 4.23597 92.3742C4.23597 100.161 10.5707 106.496 18.3577 106.496C26.1447 106.496 32.4794 100.161 32.4794 92.3742C32.4803 84.5872 26.1447 78.2524 18.3577 78.2524Z" fill="#FFAC00"/>
<path d="M118.94 92.9338C118.94 92.9338 117.391 95.1149 115.97 95.1452C114.55 95.1755 112.389 94.1339 112.389 94.1339C112.389 94.1339 111.084 91.2276 111.969 90.0899C111.969 90.0899 112.856 89.7005 113.784 90.3883C113.943 90.5068 114.105 90.6565 114.264 90.8481C114.49 91.1189 114.742 91.2731 115.01 91.3533C116.024 91.6615 117.227 90.9363 117.677 91.6366C117.939 92.0438 118.225 92.3494 118.46 92.5641C118.738 92.8127 118.94 92.9338 118.94 92.9338Z" fill="#FFEDDC"/>
<path d="M98.7419 108.666C98.7419 108.666 104.218 95.3982 114.074 95.1451C114.074 95.1451 123.173 96.1564 123.678 108.666H98.7419Z" fill="#FFEDDC"/>
<path d="M111.375 95.5506C111.375 95.5506 115.325 96.4291 116.545 95.9132C116.545 95.9132 116.73 94.2614 115.065 94.493C113.927 94.6516 113.184 94.1045 112.749 93.8818C112.13 93.5673 111.211 94.8592 111.375 95.5506Z" fill="#DB6A1D"/>
<path d="M114.813 93.0603C114.56 93.2501 113.784 90.3892 113.784 90.3892C113.943 90.5077 114.105 90.6574 114.264 90.849C114.49 91.1198 114.742 91.274 115.01 91.3541C115.013 91.4379 115.058 92.8759 114.813 93.0603Z" fill="#E5C1A1"/>
<path d="M118.46 92.5649C118.405 92.5979 116.577 93.692 116.329 93.692C116.076 93.692 117.677 91.6375 117.677 91.6375C117.939 92.0437 118.225 92.3502 118.46 92.5649Z" fill="#E5C1A1"/>
<path d="M104.092 104.96C103.991 104.874 107.968 99.1046 109.063 99.0627C110.158 99.0208 112.619 100.326 114.401 100.494C116.182 100.663 117.909 100.158 118.246 101.211C118.583 102.264 119.509 105.997 118.941 106.595C118.372 107.193 106.279 106.827 104.092 104.96Z" fill="#F9DDBF"/>
<path d="M65.273 74.5328C65.273 74.5328 64.0479 76.2577 62.9253 76.2818C61.8018 76.3058 60.0939 75.4826 60.0939 75.4826C60.0939 75.4826 59.063 73.1848 59.7624 72.2849C59.7624 72.2849 60.4636 71.9767 61.1969 72.5211C61.3225 72.6146 61.4508 72.7331 61.5764 72.8846C61.7546 73.0984 61.9542 73.2204 62.1662 73.2846C62.9672 73.5287 63.9187 72.9549 64.2742 73.5082C64.4818 73.8299 64.7081 74.0722 64.8935 74.2415C65.1126 74.4366 65.273 74.5328 65.273 74.5328Z" fill="#FFEDDC"/>
<path d="M49.3026 86.9733C49.3026 86.9733 53.6326 76.4813 61.4258 76.2817C61.4258 76.2817 68.6203 77.0809 69.0195 86.9733H49.3026Z" fill="#FFEDDC"/>
<path d="M59.2911 76.6016C59.2911 76.6016 62.4148 77.2966 63.3789 76.8876C63.3789 76.8876 63.5241 75.5815 62.209 75.7641C61.3083 75.8897 60.722 75.4567 60.3772 75.2812C59.889 75.0335 59.161 76.0555 59.2911 76.6016Z" fill="#DB6A1D"/>
<path d="M62.0094 74.6326C61.8099 74.7823 61.196 72.5201 61.196 72.5201C61.3216 72.6137 61.4499 72.7322 61.5755 72.8836C61.7537 73.0975 61.9533 73.2195 62.1653 73.2837C62.1671 73.3496 62.2037 74.4865 62.0094 74.6326Z" fill="#E5C1A1"/>
<path d="M64.8935 74.2414C64.8498 74.2673 63.4047 75.1324 63.2087 75.1324C63.0091 75.1324 64.2743 73.5073 64.2743 73.5073C64.481 73.8298 64.7073 74.0712 64.8935 74.2414Z" fill="#E5C1A1"/>
<path d="M53.532 84.042C53.4518 83.9734 56.596 79.4126 57.462 79.3787C58.328 79.3449 60.2739 80.3775 61.6825 80.5112C63.0911 80.6448 64.4569 80.2448 64.7233 81.0778C64.9897 81.9108 65.7221 84.8626 65.273 85.3348C64.8231 85.807 55.2613 85.5192 53.532 84.042Z" fill="#F9DDBF"/>
<path d="M38.235 107.877C38.235 107.877 41.2483 112.12 44.0111 112.179C46.774 112.237 50.9767 110.212 50.9767 110.212C50.9767 110.212 53.5132 104.559 51.7928 102.347C51.7928 102.347 50.067 101.589 48.2628 102.927C47.9528 103.158 47.6382 103.448 47.3291 103.821C46.8916 104.347 46.3998 104.647 45.8786 104.805C43.9078 105.405 41.5672 103.994 40.6923 105.356C40.1809 106.147 39.6258 106.742 39.1688 107.16C38.628 107.641 38.235 107.877 38.235 107.877Z" fill="#FFEDDC"/>
<path d="M77.521 138.478C77.521 138.478 66.8696 112.669 47.6979 112.178C47.6979 112.178 30.0008 114.144 29.0172 138.478H77.521Z" fill="#FFEDDC"/>
<path d="M52.9501 112.966C52.9501 112.966 45.2656 114.675 42.8948 113.671C42.8948 113.671 42.5366 110.457 45.7726 110.908C47.9875 111.216 49.43 110.152 50.279 109.72C51.4801 109.109 53.2691 111.622 52.9501 112.966Z" fill="#DB6A1D"/>
<path d="M46.2626 108.123C46.7544 108.492 48.2637 102.927 48.2637 102.927C47.9536 103.158 47.6391 103.448 47.3299 103.821C46.8925 104.347 46.4007 104.647 45.8795 104.805C45.8741 104.966 45.7859 107.764 46.2626 108.123Z" fill="#E5C1A1"/>
<path d="M39.1688 107.159C39.2766 107.223 42.8306 109.352 43.3126 109.352C43.8044 109.352 40.6923 105.355 40.6923 105.355C40.1818 106.146 39.6258 106.741 39.1688 107.159Z" fill="#E5C1A1"/>
<path d="M67.1155 131.268C67.3124 131.1 59.5779 119.88 57.4477 119.798C55.3174 119.716 50.5311 122.256 47.0662 122.584C43.6013 122.912 40.2423 121.928 39.5866 123.977C38.9308 126.025 37.1284 133.286 38.235 134.449C39.3416 135.612 62.8629 134.902 67.1155 131.268Z" fill="#F9DDBF"/>
<path d="M36.9966 75.2322C36.9966 75.2322 36.7534 74.033 39.5136 70.3435C40.1087 69.5479 41.9245 66.5507 41.9245 66.5507C42.6417 66.3761 44.8771 67.5646 45.467 67.9264C45.5855 67.9994 45.6541 68.044 45.6541 68.044C45.6541 68.044 46.6101 72.1896 44.5787 71.7201C44.5154 71.7049 44.4513 71.6933 44.388 71.6827C42.4234 71.3762 40.5266 73.3265 39.6641 74.564C39.1019 75.3686 37.3699 75.2652 36.9966 75.2322Z" fill="#8071F3"/>
<path d="M51.562 67.1744C51.562 67.1744 51.3188 65.9751 54.079 62.2857C54.6742 61.4901 56.4899 58.4929 56.4899 58.4929C57.2072 58.3182 59.4426 59.5068 60.0324 59.8685C60.1509 59.9416 60.2195 59.9861 60.2195 59.9861C60.2195 59.9861 61.1755 64.1317 59.1441 63.6622C59.0808 63.6471 59.0167 63.6355 58.9534 63.6248C56.9889 63.3183 55.092 65.2686 54.2296 66.5062C53.6674 67.3107 51.9354 67.2073 51.562 67.1744Z" fill="#8071F3"/>
<path d="M82.6512 46.6511C82.0863 44.2259 75.8095 36.6635 72.5941 38.4151C69.3795 40.1667 71.0465 49.6795 74.3982 60.8976C74.449 61.0687 74.5016 61.2388 74.5542 61.4081C67.7989 60.2989 59.7589 59.9621 59.7589 59.9621L58.9125 63.868C64.9995 65.5502 76.8252 71.3958 81.7843 73.9127C83.6803 74.7725 85.9077 74.7725 86.3612 73.1037C87.8803 67.5192 82.6512 46.6511 82.6512 46.6511Z" fill="#384BD5"/>
<path d="M70.6651 81.5972C70.6651 81.5972 56.2966 75.1137 47.5358 72.4943C46.4497 72.17 45.4527 71.9071 44.5787 71.72L45.4999 67.9628C45.4999 67.9628 46.3579 67.9477 47.7514 67.9495C53.2058 67.9646 66.866 68.2702 69.3064 70.9476C72.3686 74.3092 70.6651 81.5972 70.6651 81.5972Z" fill="#FFB27D"/>
<path d="M31.8014 14.6523C32.6042 15.5228 33.7553 16.4431 34.5723 16.4547C35.498 16.4681 36.021 16.8075 36.021 16.8075L36.5057 16.1776L37.0848 15.4248C37.0848 15.4248 37.0323 15.3481 36.9387 15.2252C36.846 15.1031 36.1912 14.5525 36.1796 14.1177C36.168 13.6829 35.9016 13.1136 35.5123 12.8588C35.1238 12.6049 34.5304 11.8289 34.3941 11.9144C34.0636 12.1211 35.0855 13.1029 35.0249 13.388C34.9697 13.6455 34.7692 13.6473 34.7318 13.6446C34.7291 13.6437 34.7273 13.6446 34.7247 13.6437C33.5477 13.6143 31.3702 11.7469 30.9657 12.285C30.8142 12.4882 31.4593 14.2817 31.8014 14.6523Z" fill="#FFB27D"/>
<path d="M66.564 48.4615C63.0198 49.381 63.909 53.6425 64.4391 65.3381C64.4988 66.6612 64.6226 67.9397 64.7964 69.1585C59.6021 68.1152 51.6164 67.9584 47.7505 67.9477C47.7505 67.9477 47.109 69.3759 47.1358 70.5172C47.1946 72.9469 48.4357 74.5542 48.4357 74.5542C57.1974 77.1736 70.6642 81.5963 70.6642 81.5963C70.6642 81.5963 70.6651 81.5919 70.6669 81.5856C71.565 81.8191 72.4096 81.37 73.0814 80.0826C75.7605 74.9524 80.3454 40.8082 80.3454 40.8082C80.3864 38.3197 70.1074 47.5429 66.564 48.4615Z" fill="#5367F3"/>
<path d="M60.7782 22.2504C60.7782 22.2504 62.0237 19.0911 59.6012 14.5855L63.0465 15.3508L65.3862 15.8703C65.3862 15.8703 65.7729 16.6686 66.2798 18.1511C66.4126 18.5414 66.9071 20.1068 67.0523 20.5906C67.8755 20.6253 66.6888 21.8718 65.0004 22.1168C63.1214 22.3903 60.7782 22.2504 60.7782 22.2504Z" fill="#FFB27D"/>
<path d="M65.387 15.8703C65.387 15.8703 65.7737 16.6686 66.2807 18.1511C64.2698 18.7507 60.6846 16.7969 60.6846 16.7969C61.4936 16.0574 62.2954 15.5994 63.0474 15.3508L65.387 15.8703Z" fill="#ED975D"/>
<path d="M66.9338 14.6924C66.9338 14.6924 62.9432 19.1062 60.2329 16.5786C57.5226 14.0509 55.182 12.9185 57.6152 9.9935C60.0484 7.06848 61.5862 7.49347 62.6964 8.11714C63.8056 8.73992 67.9023 13.4789 66.9338 14.6924Z" fill="#FFB27D"/>
<path d="M60.0092 16.305C60.0092 16.305 60.4182 15.8515 59.8266 15.2626C59.235 14.6728 58.5614 13.8228 59.2154 13.5618C59.8693 13.3007 60.232 13.7025 60.2525 13.2838C60.2738 12.8641 59.4506 11.8208 60.9652 10.5004C62.4799 9.18002 63.5526 9.22011 64.0283 8.31846C64.5041 7.41681 63.6639 6.27994 63.6639 6.27994C63.6639 6.27994 63.77 6.84036 63.5553 7.21545C63.5553 7.21545 63.4501 4.5791 61.1301 4.55594C58.81 4.53277 57.9645 6.42517 57.1867 7.12368C55.4725 8.66237 54.3953 9.69321 54.7472 11.3433C55.0992 12.9915 57.9502 16.0832 60.0092 16.305Z" fill="#3E3D40"/>
<path d="M64.4399 13.773L65.9207 12.3795C65.9207 12.3795 66.523 13.3034 66.1007 13.7044C65.6775 14.1053 64.4399 13.773 64.4399 13.773Z" fill="#EFF6FE"/>
<path d="M84.3155 5.42463C83.682 1.50708 81.7763 -2.79893 81.7763 -2.79893L79.7003 -2.89337C79.7003 -2.89337 79.9311 2.41318 79.8803 6.12492C79.8553 7.90773 79.0757 9.51948 78.8646 9.80548C78.2195 10.6679 68.7281 19.8029 68.4101 20.0943L68.4029 20.1023L68.4038 20.1032C67.3935 20.2752 67.5057 21.9341 66.4678 22.213C64.7375 22.6772 61.8642 21.8317 60.3264 22.401C60.3264 22.401 48.0017 22.4152 46.1263 21.5171C44.2508 20.6191 36.9378 15.227 36.9378 15.227L35.5826 16.8049C35.5826 16.8049 40.6023 26.4691 44.5822 28.2074C46.7482 29.1536 51.5068 30.2931 55.3931 31.1342C56.9301 31.4665 58.1614 32.606 58.6273 34.1082C62.2838 45.8983 60.4431 55.8405 60.4431 55.8405C60.4431 55.8405 63.9464 56.2325 68.3085 55.0217C73.9804 53.4465 78.1233 50.8939 78.1233 50.8939C79.7217 48.956 78.7764 41.8506 78.7764 41.8506C78.7764 41.8506 79.8803 43.0427 80.25 45.0331C80.5164 46.4676 80.6599 47.2605 80.7481 47.7648C80.8318 48.2388 81.3842 48.4598 81.7709 48.1738C82.5906 47.567 83.7604 46.6217 84.1257 45.9286C85.4025 43.5051 82.563 33.636 78.641 26.7498C77.9398 25.5184 77.9647 24.0056 78.714 22.8028C81.1267 18.9325 84.8358 12.7947 84.8812 11.5625C84.908 10.8933 84.6808 7.67698 84.3155 5.42463Z" fill="url(#paint0_linear_9_8351)"/>
<path d="M66.1978 23.1013C66.1978 23.1013 69.5068 27.7957 67.0799 32.3334C64.6538 36.871 55.1223 36.2438 53.3573 41.9121L54.43 45.4412L58.4144 43.2824C58.4144 43.2824 58.7476 40.2175 62.6678 38.8873C70.3247 36.2875 72.1681 31.7979 70.5609 27.7806C69.203 24.3851 67.2367 22.7493 67.2367 22.7493L66.1978 23.1013Z" fill="#F99746"/>
<path d="M61.0864 20.5184L64.9238 21.7862L65.1127 22.5141L60.3264 22.401C60.3273 22.4001 60.5812 21.2997 61.0864 20.5184Z" fill="#F99746"/>
<path d="M66.7003 19.4634L66.8277 21.4476C66.8277 21.4476 67.3302 21.8592 67.324 21.8049C67.3169 21.7505 68.4038 20.1023 68.4038 20.1023C68.4038 20.1023 67.5022 19.6693 66.7003 19.4634Z" fill="#F99746"/>
<path d="M64.9238 21.7862L66.8803 21.126C67.0594 21.0654 67.2492 21.1848 67.2723 21.3728L67.4336 22.6878C67.4505 22.8286 67.3668 22.9614 67.2331 23.0068L66.3725 23.2981C66.2789 23.3302 66.1756 23.3133 66.0972 23.2536L64.8409 22.3074C64.6476 22.1631 64.6957 21.8628 64.9238 21.7862Z" fill="#ED7D2B"/>
<path d="M36.9378 15.226L35.5836 16.8039L35.9809 18.3435L36.5324 17.9657L36.2607 16.8084L37.2096 17.5871L38.4382 15.9646L36.9378 15.226Z" fill="#8071F3"/>
<path d="M36.6429 16.6738C36.6429 16.6043 36.699 16.5473 36.7685 16.5473C36.838 16.5473 36.895 16.6034 36.895 16.6738C36.895 16.7433 36.8389 16.7994 36.7685 16.7994C36.699 16.7994 36.6429 16.7433 36.6429 16.6738Z" fill="#EBF3FA"/>
<path d="M77.8569 36.2251C77.8569 36.0772 77.9772 35.9569 78.1251 35.9569C78.273 35.9569 78.3933 36.0772 78.3933 36.2251C78.3933 36.373 78.2739 36.4933 78.1251 36.4933C77.9763 36.4933 77.8569 36.373 77.8569 36.2251Z" fill="#EBF3FA"/>
<path d="M75.7294 31.7944C75.7294 31.6465 75.8497 31.5262 75.9975 31.5262C76.1454 31.5262 76.2657 31.6465 76.2657 31.7944C76.2657 31.9423 76.1454 32.0625 75.9975 32.0625C75.8497 32.0625 75.7294 31.9423 75.7294 31.7944Z" fill="#EBF3FA"/>
<path d="M72.799 28.4408C72.799 28.2929 72.9192 28.1726 73.0671 28.1726C73.215 28.1726 73.3353 28.2929 73.3353 28.4408C73.3353 28.5887 73.215 28.709 73.0671 28.709C72.9192 28.709 72.799 28.5887 72.799 28.4408Z" fill="#EBF3FA"/>
</g>
<defs>
<linearGradient id="paint0_linear_9_8351" x1="35.582" y1="-2.88517" x2="84.8838" y2="-2.88517" gradientUnits="userSpaceOnUse">
<stop stop-color="#AB7AF3"/>
<stop offset="1" stop-color="#5367F3"/>
</linearGradient>
</defs>
</svg>
