<svg width="179" height="36" viewBox="0 0 179 36" fill="none" xmlns="http://www.w3.org/2000/svg">
<path fill-rule="evenodd" clip-rule="evenodd" d="M150.909 23.6073V18.0744C150.909 17.5246 151.35 17.0786 151.893 17.0786H153.668C154.211 17.0786 154.652 17.5246 154.652 18.0744V22.1511H156.154C156.475 22.1511 156.776 21.9924 156.96 21.7259L159.874 17.5055C160.059 17.2378 160.362 17.0786 160.684 17.0786H162.209C163.018 17.0786 163.484 18.0063 163.008 18.6669L160.06 22.7586C159.811 23.1053 159.809 23.5755 160.056 23.9246L163.343 28.5563C163.811 29.2162 163.345 30.1358 162.541 30.1358H160.56C160.239 30.1358 159.939 29.9784 159.754 29.7136L156.887 25.6052C156.703 25.3421 156.405 25.1852 156.086 25.1852H154.651V29.1389C154.651 29.6899 154.209 30.1365 153.665 30.1365H151.894C151.35 30.1365 150.908 29.6899 150.908 29.1389V23.6073" fill="#212121"/>
<path fill-rule="evenodd" clip-rule="evenodd" d="M168.147 22.8935C168.952 22.6091 169.958 22.4666 171.165 22.4666H173.188C173.756 22.4666 174.158 21.8793 173.944 21.3474C173.82 21.0404 173.637 20.7785 173.396 20.5621C172.9 20.1173 172.156 19.894 171.165 19.894C170.477 19.894 169.801 20.0037 169.138 20.2223C168.817 20.3279 168.518 20.4519 168.244 20.5933C167.775 20.8356 167.199 20.621 166.958 20.1467L166.525 19.2946C166.277 18.8054 166.462 18.1996 166.947 17.9492C167.454 17.6873 168.016 17.4697 168.634 17.2972C169.618 17.0226 170.629 16.8842 171.668 16.8842C173.667 16.8842 175.203 17.3659 176.274 18.3288C177.346 19.2911 177.882 20.7433 177.882 22.6853V29.1412C177.882 29.6905 177.441 30.1353 176.899 30.1353H175.362C174.819 30.1353 174.38 29.6899 174.38 29.1412V28.5095C173.676 29.7228 172.364 30.3297 170.445 30.3297C169.453 30.3297 168.594 30.1596 167.866 29.8197C167.138 29.4799 166.583 29.0114 166.198 28.412C165.815 27.8136 165.623 27.1335 165.623 26.373C165.623 25.1598 166.075 24.2061 166.978 23.5097C167.304 23.2593 167.694 23.0539 168.147 22.8935ZM173.084 27.3325C173.532 27.0625 173.862 26.6771 174.075 26.1763C174.12 26.0702 174.14 25.9507 174.14 25.8348V24.6746H171.573C170.038 24.6746 169.27 25.1846 169.27 26.2034C169.27 26.6892 169.458 27.074 169.834 27.3561C170.209 27.64 170.725 27.7808 171.381 27.7808C172.02 27.7808 172.588 27.6325 173.084 27.3325Z" fill="#212121"/>
<path fill-rule="evenodd" clip-rule="evenodd" d="M0.284395 31.9748C-0.0947982 31.5958 -0.0947982 30.9808 0.284395 30.6012L30.5991 0.287094C30.9783 -0.0919544 31.5935 -0.0919544 31.9733 0.287094L35.7157 4.02796C36.0948 4.40701 36.0948 5.0226 35.7157 5.40166L5.40091 35.7158C5.02171 36.0947 4.40588 36.0947 4.02669 35.7158L0.284395 31.9748Z" fill="url(#paint0_linear_9_11048)"/>
<path fill-rule="evenodd" clip-rule="evenodd" d="M33.589 22.7549L35.308 24.4938C35.6826 24.8729 35.6832 25.4879 35.3086 25.8669L25.5844 35.7135C25.2097 36.0932 24.6012 36.0932 24.2259 35.7141L20.5279 31.9732C20.1532 31.5942 20.1526 30.9791 20.5273 30.6002L30.2515 20.7535C30.6261 20.3739 31.2347 20.3739 31.6099 20.753L33.589 22.7549Z" fill="url(#paint1_linear_9_11048)"/>
<path fill-rule="evenodd" clip-rule="evenodd" d="M3.65766 14.92L0.281315 11.5045C-0.093391 11.1254 -0.0939616 10.5104 0.280744 10.1314L10.0048 0.284791C10.3795 -0.0948343 10.9881 -0.0948343 11.3634 0.284215L15.0614 4.02509C15.4361 4.40414 15.4366 5.01916 15.062 5.3982L5.33784 15.2448C4.96314 15.6244 4.35459 15.6244 3.97932 15.2453L3.65766 14.92Z" fill="url(#paint2_linear_9_11048)"/>
<path fill-rule="evenodd" clip-rule="evenodd" d="M67.845 14.1408V29.0466C67.845 29.5953 67.4053 30.0401 66.8629 30.0401H63.0428C62.5005 30.0401 62.0608 29.5953 62.0608 29.0466V21.0537H55.2317V29.0478C55.2317 29.5958 54.7925 30.0395 54.2513 30.0395H50.2533C49.8078 30.0395 49.4474 29.6743 49.4474 29.2243V8.33044C49.4474 7.78005 49.8888 7.3335 50.4329 7.3335H54.249C54.7919 7.3335 55.2322 7.77889 55.2322 8.32814V15.7776H62.0608V8.33275C62.0608 7.78062 62.5034 7.3335 63.0485 7.3335H66.8573C67.4031 7.3335 67.845 7.7812 67.845 8.33275V14.1408Z" fill="#212121"/>
<path fill-rule="evenodd" clip-rule="evenodd" d="M86.6792 13.9083L91.6239 25.083H92.951C93.4928 25.083 93.9321 25.5273 93.9321 26.0753V31.5742C93.9321 32.1223 93.4928 32.5665 92.951 32.5665H90.2659C89.7241 32.5665 89.285 32.1223 89.285 31.5742V30.1041H76.1977V31.5729C76.1977 32.1217 75.758 32.5665 75.2156 32.5665H72.5025C71.9596 32.5665 71.5193 32.121 71.5193 31.5718V26.0753C71.5193 25.5273 71.9584 25.083 72.5002 25.083H73.7641L81.0951 7.96407C81.2503 7.60176 81.6039 7.36694 81.9945 7.36694H83.15C83.5361 7.36694 83.8863 7.59657 84.0443 7.95311L86.6792 13.9083ZM79.485 25.0189H85.7443L82.5516 16.9285L79.485 25.0189Z" fill="#212121"/>
<path fill-rule="evenodd" clip-rule="evenodd" d="M130.765 28.4645L130.347 29.4389C130.191 29.8041 129.835 30.0401 129.442 30.0401H125.719C124.998 30.0401 124.52 29.2843 124.823 28.6226L134.252 7.94504C134.413 7.59253 134.761 7.36694 135.145 7.36694H136.319C136.703 7.36694 137.053 7.5931 137.215 7.94619L146.673 28.6254C146.975 29.286 146.498 30.0401 145.778 30.0401H142.051C141.66 30.0401 141.306 29.8064 141.149 29.4441L135.884 17.3128C135.821 17.1663 135.616 17.1668 135.552 17.3133L130.765 28.4645Z" fill="#212121"/>
<path fill-rule="evenodd" clip-rule="evenodd" d="M112.079 28.1529V29.0477C112.079 29.5952 111.64 30.0395 111.099 30.0395H107.685C107.144 30.0395 106.704 29.5952 106.704 29.0477V28.1529C100.982 27.9607 96.272 25.69 96.272 18.7176C96.272 11.7776 100.951 9.53912 106.673 9.347V8.36101C106.673 7.81176 107.113 7.36694 107.656 7.36694H111.128C111.671 7.36694 112.111 7.81176 112.111 8.36101V9.347C117.834 9.53912 122.513 11.7776 122.513 18.7176C122.513 25.69 117.802 27.9607 112.079 28.1529ZM106.768 22.8756V14.592C104.334 14.6883 102.057 15.5191 102.057 18.7176C102.057 21.9167 104.461 22.7481 106.768 22.8756ZM112.016 22.8756C114.324 22.7487 116.728 21.9167 116.728 18.7176C116.728 15.5191 114.451 14.6883 112.016 14.592V22.8756Z" fill="#212121"/>
<defs>
<linearGradient id="paint0_linear_9_11048" x1="-0.000433105" y1="0.00782628" x2="36.0003" y2="0.00782628" gradientUnits="userSpaceOnUse">
<stop stop-color="#AB7AF3"/>
<stop offset="1" stop-color="#5367F3"/>
</linearGradient>
<linearGradient id="paint1_linear_9_11048" x1="20.2468" y1="20.4735" x2="35.5892" y2="20.4735" gradientUnits="userSpaceOnUse">
<stop stop-color="#AB7AF3"/>
<stop offset="1" stop-color="#5367F3"/>
</linearGradient>
<linearGradient id="paint2_linear_9_11048" x1="0.00014307" y1="0.0046878" x2="15.3426" y2="0.0046878" gradientUnits="userSpaceOnUse">
<stop stop-color="#AB7AF3"/>
<stop offset="1" stop-color="#5367F3"/>
</linearGradient>
</defs>
</svg>
