<svg width="21" height="20" viewBox="0 0 21 20" fill="none" xmlns="http://www.w3.org/2000/svg">
<circle cx="10.5" cy="10" r="9" stroke="#8071F3" stroke-width="2"/>
<path d="M9.45731 11.56H11.0733C10.8493 9.496 13.3453 8.776 13.3453 6.744C13.3453 5 12.1133 4.088 10.3853 4.088C9.21731 4.088 8.27331 4.664 7.58531 5.48L8.60931 6.424C9.07331 5.912 9.60131 5.592 10.2573 5.592C11.0733 5.592 11.5533 6.104 11.5533 6.872C11.5533 8.312 9.12131 9.224 9.45731 11.56ZM9.08931 13.944C9.08931 14.664 9.60131 15.192 10.2733 15.192C10.9453 15.192 11.4733 14.664 11.4733 13.944C11.4733 13.224 10.9453 12.696 10.2733 12.696C9.60131 12.696 9.08931 13.224 9.08931 13.944Z" fill="#8071F3"/>
</svg>
