<svg width="15" height="32" viewBox="0 0 15 32" fill="none" xmlns="http://www.w3.org/2000/svg">
<path opacity="0.6" d="M8.5 1C8.5 0.447715 8.05228 0 7.5 0C6.94772 0 6.5 0.447715 6.5 1H8.5ZM6.79289 31.7071C7.18342 32.0976 7.81658 32.0976 8.20711 31.7071L14.5711 25.3431C14.9616 24.9526 14.9616 24.3195 14.5711 23.9289C14.1805 23.5384 13.5474 23.5384 13.1569 23.9289L7.5 29.5858L1.84315 23.9289C1.45262 23.5384 0.819457 23.5384 0.428932 23.9289C0.0384078 24.3195 0.0384078 24.9526 0.428932 25.3431L6.79289 31.7071ZM6.5 1L6.5 31H8.5V1H6.5Z" fill="url(#paint0_linear_1_2928)"/>
<defs>
<linearGradient id="paint0_linear_1_2928" x1="7.49986" y1="0.999639" x2="7.49986" y2="31.0003" gradientUnits="userSpaceOnUse">
<stop stop-color="#AB7AF3"/>
<stop offset="1" stop-color="#5367F3"/>
</linearGradient>
</defs>
</svg>
