<svg width="24" height="24" viewBox="0 0 24 24" fill="none" xmlns="http://www.w3.org/2000/svg">
<path d="M16.9443 13.4451C17.4699 13.4842 17.9472 13.729 18.3234 14.1486L20.4599 16.4437C20.8534 16.8607 21.0368 17.3357 20.9939 17.8133C20.9512 18.2871 20.6892 18.7329 20.2338 19.0985C20.036 19.2583 19.8345 19.41 19.638 19.5544C19.3498 19.7695 19.0757 19.9702 18.8334 20.1965C18.8285 20.2039 18.8197 20.2071 18.8147 20.2145C18.1132 20.8021 17.262 21.0608 16.2827 20.988C16.1979 20.9817 16.105 20.9709 16.0163 20.9605C14.5699 20.7678 13.3131 20.1742 12.3759 19.682C9.92464 18.3716 7.83365 16.6149 6.15807 14.4626C4.77808 12.6773 3.89251 11.0411 3.35718 9.30692C3.13907 8.60054 2.86874 7.52579 3.07167 6.40865C3.20223 5.71653 3.56575 5.13865 4.15274 4.68593L5.71296 3.47184L5.72213 3.46477C6.17933 3.12649 6.69724 2.9672 7.21443 3.00561C7.73163 3.04403 8.20571 3.27699 8.58366 3.67729C8.83842 3.92886 9.08332 4.1952 9.31619 4.4529C9.43227 4.58559 9.55686 4.71894 9.67752 4.84809L10.7402 5.98556C11.5577 6.86054 11.4635 7.9082 10.5005 8.65094C10.372 8.74998 10.2433 8.85286 10.1149 8.95189C9.7752 9.21747 9.42598 9.49398 9.05237 9.75704C9.26418 10.2962 9.5742 10.8349 10.0494 11.4829C11.0332 12.7851 12.0887 13.8135 13.2784 14.6308C13.3951 14.7092 13.5333 14.7854 13.6797 14.8661C13.7812 14.924 13.8869 14.9823 13.9923 15.0444L15.4411 13.9306C15.9042 13.5734 16.4228 13.4064 16.9443 13.4451Z" fill="black" fill-opacity="0.87"/>
</svg>
