<svg width="119" height="24" viewBox="0 0 119 24" fill="none" xmlns="http://www.w3.org/2000/svg">
<g clip-path="url(#clip0_9_11080)">
<path fill-rule="evenodd" clip-rule="evenodd" d="M0.189596 21.3165C-0.0631988 21.0638 -0.0631988 20.6538 0.189596 20.4008L20.3994 0.191363C20.6522 -0.0613355 21.0623 -0.0613355 21.3155 0.191363L23.8104 2.68528C24.0632 2.93797 24.0632 3.34837 23.8104 3.60107L3.60061 23.8105C3.34781 24.0631 2.93726 24.0631 2.68446 23.8105L0.189596 21.3165Z" fill="url(#paint0_linear_9_11080)"/>
<path fill-rule="evenodd" clip-rule="evenodd" d="M23.5386 16.3292C23.7884 16.5819 23.7888 16.9919 23.539 17.2446L17.0562 23.809C16.8064 24.0621 16.4007 24.0621 16.1506 23.8093L13.6852 21.3155C13.4354 21.0627 13.435 20.6527 13.6848 20.4001L20.1676 13.8357C20.4174 13.5826 20.8231 13.5826 21.0733 13.8353L23.5386 16.3292Z" fill="url(#paint1_linear_9_11080)"/>
<path fill-rule="evenodd" clip-rule="evenodd" d="M0.187543 7.66967C-0.0622607 7.41695 -0.0626411 7.00693 0.187163 6.75428L6.66987 0.189861C6.91969 -0.0632229 7.32539 -0.0632229 7.57558 0.189477L10.041 2.68339C10.2907 2.93609 10.2911 3.3461 10.0413 3.5988L3.55856 10.1632C3.30876 10.4163 2.90306 10.4163 2.65288 10.1636L0.187543 7.66967Z" fill="url(#paint2_linear_9_11080)"/>
<path fill-rule="evenodd" clip-rule="evenodd" d="M100.606 12.0495C100.606 11.683 100.9 11.3857 101.262 11.3857H102.445C102.807 11.3857 103.101 11.683 103.101 12.0495V14.7673H104.103C104.317 14.7673 104.518 14.6615 104.64 14.4838L106.583 11.6703C106.706 11.4918 106.908 11.3857 107.123 11.3857H108.14C108.678 11.3857 108.989 12.0042 108.672 12.4446L106.707 15.1723C106.54 15.4035 106.539 15.7169 106.704 15.9496L108.895 19.0375C109.207 19.4774 108.897 20.0905 108.361 20.0905H107.04C106.826 20.0905 106.626 19.9855 106.503 19.809L104.591 17.0701C104.469 16.8947 104.27 16.7901 104.057 16.7901H103.101V19.4259C103.101 19.7932 102.806 20.0909 102.443 20.0909H101.263C100.9 20.0909 100.606 19.7932 100.606 19.4259L100.606 12.0495Z" fill="#212121"/>
<path fill-rule="evenodd" clip-rule="evenodd" d="M112.098 15.2623C112.635 15.0727 113.305 14.9777 114.11 14.9777H115.459C115.837 14.9777 116.106 14.5861 115.963 14.2315C115.88 14.0269 115.758 13.8523 115.597 13.708C115.267 13.4115 114.771 13.2626 114.11 13.2626C113.651 13.2626 113.201 13.3357 112.759 13.4815C112.545 13.5519 112.346 13.6346 112.163 13.7288C111.85 13.8904 111.466 13.7473 111.305 13.4311L111.017 12.863C110.851 12.5369 110.975 12.133 111.298 11.9661C111.636 11.7915 112.011 11.6465 112.422 11.5314C113.078 11.3484 113.752 11.2561 114.446 11.2561C115.778 11.2561 116.802 11.5772 117.516 12.2192C118.231 12.8607 118.588 13.8288 118.588 15.1235V19.4275C118.588 19.7936 118.294 20.0901 117.933 20.0901H116.908C116.546 20.0901 116.253 19.7932 116.253 19.4275V19.0063C115.784 19.8151 114.909 20.2197 113.63 20.2197C112.969 20.2197 112.396 20.1063 111.911 19.8798C111.426 19.6532 111.055 19.3409 110.799 18.9413C110.543 18.5424 110.415 18.0889 110.415 17.582C110.415 16.7731 110.716 16.1373 111.319 15.6731C111.536 15.5062 111.796 15.3692 112.098 15.2623ZM115.39 18.2216C115.688 18.0416 115.908 17.7847 116.05 17.4508C116.08 17.3801 116.093 17.3005 116.093 17.2231V16.4497H114.382C113.359 16.4497 112.847 16.7897 112.847 17.4689C112.847 17.7928 112.972 18.0493 113.223 18.2374C113.473 18.4266 113.817 18.5205 114.254 18.5205C114.68 18.5205 115.059 18.4216 115.39 18.2216Z" fill="#212121"/>
<path fill-rule="evenodd" clip-rule="evenodd" d="M45.23 19.3643C45.23 19.7301 44.9369 20.0266 44.5753 20.0266H42.0286C41.667 20.0266 41.3739 19.7301 41.3739 19.3643V14.0357H36.8211V19.3651C36.8211 19.7305 36.5283 20.0263 36.1675 20.0263H33.5022C33.2052 20.0263 32.9649 19.7828 32.9649 19.4828V5.55355C32.9649 5.18662 33.2592 4.88892 33.6219 4.88892H36.166C36.528 4.88892 36.8215 5.18585 36.8215 5.55201V10.5183H41.3739V5.55509C41.3739 5.187 41.6689 4.88892 42.0324 4.88892H44.5715C44.9354 4.88892 45.23 5.18739 45.23 5.55509V19.3643Z" fill="#212121"/>
<path fill-rule="evenodd" clip-rule="evenodd" d="M61.0826 16.7219H61.9673C62.3285 16.7219 62.6214 17.0181 62.6214 17.3835V21.0493C62.6214 21.4147 62.3285 21.7109 61.9673 21.7109H60.1773C59.8161 21.7109 59.5233 21.4147 59.5233 21.0493V20.0693H50.7985V21.0485C50.7985 21.4144 50.5053 21.7109 50.1437 21.7109H48.335C47.9731 21.7109 47.6795 21.4139 47.6795 21.0478V17.3835C47.6795 17.0181 47.9723 16.7219 48.3335 16.7219H49.1761L54.0634 5.30928C54.1668 5.06773 54.4026 4.91119 54.663 4.91119H55.4333C55.6907 4.91119 55.9242 5.06427 56.0295 5.30197L61.0826 16.7219ZM52.99 16.6792H57.1629L55.0344 11.2856L52.99 16.6792Z" fill="#212121"/>
<path fill-rule="evenodd" clip-rule="evenodd" d="M86.8983 19.6258C86.7937 19.8693 86.5568 20.0266 86.2945 20.0266H83.8128C83.3322 20.0266 83.0136 19.5228 83.2151 19.0816L89.5012 5.29658C89.6084 5.06158 89.8407 4.91119 90.0966 4.91119H90.8791C91.1354 4.91119 91.3688 5.06196 91.4764 5.29735L97.7817 19.0835C97.9832 19.5239 97.6653 20.0266 97.1854 20.0266H94.7004C94.4399 20.0266 94.2038 19.8708 94.0992 19.6293L90.5894 11.5417C90.5472 11.4441 90.4103 11.4444 90.3681 11.5421L86.8983 19.6258Z" fill="#212121"/>
<path fill-rule="evenodd" clip-rule="evenodd" d="M74.7194 18.7685V19.365C74.7194 19.73 74.4267 20.0262 74.0658 20.0262H71.7898C71.429 20.0262 71.1363 19.73 71.1363 19.365V18.7685C67.3215 18.6404 64.1813 17.1265 64.1813 12.4783C64.1813 7.85166 67.3006 6.35931 71.1153 6.23122V5.5739C71.1153 5.20773 71.4085 4.91119 71.7705 4.91119H74.0856C74.4476 4.91119 74.7408 5.20773 74.7408 5.5739V6.23122C78.5558 6.35931 81.6752 7.85166 81.6752 12.4783C81.6752 17.1265 78.5349 18.6404 74.7194 18.7685ZM71.1789 15.2503V9.72786C69.5562 9.79209 68.0383 10.346 68.0383 12.4783C68.0383 14.6111 69.6406 15.1653 71.1789 15.2503ZM74.6774 15.2503C76.2161 15.1657 77.8183 14.6111 77.8183 12.4783C77.8183 10.346 76.3005 9.79209 74.6774 9.72786V15.2503Z" fill="#212121"/>
</g>
<defs>
<linearGradient id="paint0_linear_9_11080" x1="-0.000288737" y1="0.00334603" x2="24.0002" y2="0.00334603" gradientUnits="userSpaceOnUse">
<stop stop-color="#AB7AF3"/>
<stop offset="1" stop-color="#5367F3"/>
</linearGradient>
<linearGradient id="paint1_linear_9_11080" x1="0.00031131" y1="0.00737773" x2="23.9999" y2="0.00737773" gradientUnits="userSpaceOnUse">
<stop stop-color="#AB7AF3"/>
<stop offset="1" stop-color="#5367F3"/>
</linearGradient>
<linearGradient id="paint2_linear_9_11080" x1="9.53803e-05" y1="0.0031252" x2="10.2284" y2="0.0031252" gradientUnits="userSpaceOnUse">
<stop stop-color="#AB7AF3"/>
<stop offset="1" stop-color="#5367F3"/>
</linearGradient>
<clipPath id="clip0_9_11080">
<rect width="119" height="24" fill="white"/>
</clipPath>
</defs>
</svg>
