<svg width="24" height="24" viewBox="0 0 24 24" fill="none" xmlns="http://www.w3.org/2000/svg">
<path fill-rule="evenodd" clip-rule="evenodd" d="M21 12C21 16.9706 16.9706 21 12 21C10.4003 21 8.89813 20.5827 7.59636 19.8509L3 21L4.14909 16.4036C3.41734 15.1019 3 13.5997 3 12C3 7.02944 7.02944 3 12 3C16.9706 3 21 7.02944 21 12ZM8.0625 13.125C8.68382 13.125 9.1875 12.6213 9.1875 12C9.1875 11.3787 8.68382 10.875 8.0625 10.875C7.44118 10.875 6.9375 11.3787 6.9375 12C6.9375 12.6213 7.44118 13.125 8.0625 13.125ZM13.125 12C13.125 12.6213 12.6213 13.125 12 13.125C11.3787 13.125 10.875 12.6213 10.875 12C10.875 11.3787 11.3787 10.875 12 10.875C12.6213 10.875 13.125 11.3787 13.125 12ZM15.9375 13.125C16.5588 13.125 17.0625 12.6213 17.0625 12C17.0625 11.3787 16.5588 10.875 15.9375 10.875C15.3162 10.875 14.8125 11.3787 14.8125 12C14.8125 12.6213 15.3162 13.125 15.9375 13.125Z" fill="black" fill-opacity="0.87"/>
</svg>
